<svg xmlns="http://www.w3.org/2000/svg" width="13" height="13"><title>Instagram</title><desc>Created with Sketch.</desc><g fill="none"><g fill="#7A90A6" fill-rule="nonzero"><path d="M6.5 0c-1.77 0-2 0-2.68.04-.7.03-1.16.14-1.58.3-.43.17-.8.4-1.15.75-.37.35-.6.7-.76 1.14-.16.42-.27.9-.3 1.58C0 4.52 0 4.72 0 6.5c0 1.77 0 2 .04 2.68.03.7.14 1.16.3 1.58.17.43.4.8.75 1.15.35.37.7.6 1.14.76.42.16.9.27 1.58.3.7.03.9.04 2.68.04 1.77 0 2 0 2.68-.04.7-.03 1.16-.14 1.58-.3.43-.17.8-.4 1.15-.75.37-.35.6-.7.76-1.14.16-.42.27-.9.3-1.58.03-.7.04-.9.04-2.68 0-1.77 0-2-.04-2.68-.03-.7-.14-1.16-.3-1.58-.17-.43-.4-.8-.75-1.15-.35-.37-.7-.6-1.14-.76-.42-.16-.9-.27-1.58-.3C8.48 0 8.28 0 6.5 0zm0 1.17c1.74 0 1.94 0 2.63.04.63.04.97.14 1.2.23.3.12.52.26.75.5.23.22.37.43.5.74.08.23.18.57.2 1.2.04.7.05.9.05 2.63 0 1.74 0 1.94-.04 2.63-.04.63-.14.97-.23 1.2-.12.3-.26.52-.5.75-.22.23-.43.37-.74.5-.23.08-.57.18-1.2.2-.7.04-.9.05-2.63.05-1.74 0-1.94 0-2.63-.04-.63-.04-.97-.14-1.2-.23-.3-.12-.52-.26-.75-.5-.23-.22-.37-.43-.5-.74-.08-.23-.18-.57-.2-1.2-.04-.7-.05-.9-.05-2.63 0-1.74 0-1.94.04-2.63.04-.63.14-.97.23-1.2.12-.3.26-.52.5-.75.22-.23.43-.37.74-.5.23-.08.57-.18 1.2-.2.7-.04.9-.05 2.63-.05zm0 2c-1.84 0-3.34 1.5-3.34 3.33 0 1.84 1.5 3.34 3.34 3.34 1.84 0 3.34-1.5 3.34-3.34 0-1.84-1.5-3.34-3.34-3.34zm0 5.5c-1.2 0-2.17-.97-2.17-2.17S5.3 4.33 6.5 4.33s2.17.97 2.17 2.17S7.7 8.67 6.5 8.67zm4.25-5.64c0 .43-.35.78-.78.78-.43 0-.78-.34-.78-.77s.34-.78.77-.78.78.35.78.78z"/></g></g></svg>