<svg xmlns="http://www.w3.org/2000/svg" width="17" height="14"><path fill="#7A90A6" d="M16.75 2.13c-.44.65-1 1.24-1.67 1.76v.38c0 1.1-.2 2.24-.63 3.4-.42 1.13-1.03 2.16-1.84 3.08-.8.93-1.8 1.67-2.98 2.25-1.18.6-2.54.88-4.08.88-.95 0-1.86-.14-2.72-.4-.87-.28-1.68-.66-2.44-1.14.13.02.26.03.4.03h.4c1.6 0 3-.48 4.16-1.42-.74-.02-1.4-.25-1.96-.7-.57-.42-.96-.98-1.16-1.65.22.06.43.1.6.1.18 0 .33-.02.47-.04.13-.02.28-.05.42-.1-.78-.15-1.42-.54-1.94-1.14-.5-.6-.76-1.32-.76-2.14v-.03c.22.12.46.2.7.28.26.08.54.1.86.1-.48-.28-.86-.67-1.12-1.16-.26-.48-.4-1.02-.4-1.62 0-.6.16-1.16.46-1.7.84 1.04 1.85 1.88 3.04 2.5 1.2.62 2.48.96 3.88 1.02-.06-.23-.08-.47-.08-.73 0-.46.08-.9.26-1.32.18-.42.42-.78.73-1.1.3-.3.66-.54 1.06-.72.4-.17.84-.26 1.3-.26.5 0 .96.1 1.37.3.4.2.77.44 1.1.76.36-.06.73-.16 1.1-.3.38-.16.72-.3 1.04-.48-.3.78-.78 1.4-1.47 1.84.35-.04.7-.1 1-.2.32-.1.63-.2.92-.33z"/></svg>