<svg xmlns="http://www.w3.org/2000/svg" viewBox="0 0 768 768" enable-background="new 0 0 768 768"><style type="text/css">.st0{fill:#cdcdcd;}</style><path d="M332.83 376.66l.72-.35 2.5 5.14-.73.35zM597.4 218.9l.6.5 3.6-4.4-.6-.5zM537.9 159.6l-.7-.3-2.5 5.1.7.3zM584.6 206.1l3.3-4.5-.6-.5-3.4 4.6zM550.4 177.3l2.7-4.9-.7-.4-2.7 4.9zM544.9 187.2l2.8-4.9-.7-.4-2.8 5zM467.4 366l-.6-.5-3.4 4.6.6.4zM450 388.3l.6.5 3.4-4.6-.6-.4zM529.8 174.6l.7.3 2.5-5.1-.8-.3zM324.8 135.8l.8-.1-.9-5.6-.8.1zM362.8 115.7l-.4-5.7-.8.1.4 5.6zM382.6 120.1h.8v5.7h-.8zM362.6 127h.8l-.3-5.7-.8.1zM323 124.6l.7-.1-.9-5.6-.8.1zM518.3 155.9l2.2-5.2-.7-.3-2.2 5.2zM382.6 108.8h.8v5.7h-.8zM284.3 138l.7-.2-1.6-5.5-.7.2zM251.8 167.4l.7-.3-2.2-5.3-.7.3zM303.6 130.5l.8-.1-1.3-5.6-.7.2zM287.4 148.9l.8-.3-1.6-5.4-.8.2zM306.1 141.6l.8-.2-1.3-5.5-.7.1zM479 146.9l1.6-5.5-.8-.2-1.6 5.5zM460.8 141.6l1.3-5.6-.8-.1-1.2 5.5zM463.3 130.5l1.3-5.5-.8-.2-1.2 5.6zM514 166.4l2.1-5.3-.7-.3-2.2 5.3zM402.9 120.8h-.8l-.3 5.6.7.1zM482.1 136l1.6-5.5-.8-.2-1.5 5.5zM458.3 152.6l1.3-5.5-.8-.2-1.3 5.5zM403.5 109.5h-.8l-.3 5.6.8.1zM441.3 135.8l.9-5.6-.8-.1-.9 5.6zM443.1 124.6l1-5.6-.8-.1-.9 5.6zM433.6 359.9l-.7-.3-2.2 5.2.7.3zM291.9 370.9l-3.6-4.3-.7.5 3.7 4.3zM240.66 223.44l.7-.4 2.76 5-.7.38zM455.6 228.5l-.8-.2-1.5 5.4.7.3zM313.6 397.1l-3.6-4.4-.6.5 3.6 4.4zM306.3 388.3l-3.6-4.3-.6.5 3.6 4.3zM299.1 379.6l-3.6-4.3-.6.5 3.6 4.3zM257.1 253.2l2.7 5 .7-.4-2.7-5zM443.7 333.4l.8.3 2.1-5.2-.7-.3zM262.6 263.14l.7-.4 2.75 5-.7.4zM295.4 322.6l2.8 4.9.7-.3-2.8-5zM268 273l2.8 5 .7-.4-2.8-4.9zM251.6 243.3l2.7 5 .7-.4-2.7-5zM246.1 233.4l2.8 5 .7-.4-2.8-5zM247.4 156.9l.7-.3-2.2-5.2-.7.3zM290 312.7l2.7 4.9.7-.4-2.7-4.9zM284.47 302.76l.7-.4 2.76 5-.7.38zM448.8 323.3l2.2-5.3-.8-.3-2.1 5.3zM498.8 203l-.8-.3-2.1 5.2.7.3zM427.3 219.6l-.8-.2-1 5.6.8.1zM432.9 186.1l-.8-.2-.9 5.6.7.1zM335.2 311.9l-1.6-5.5-.7.3 1.5 5.4zM490.1 223.9l-.8-.3-2.1 5.2.7.3zM494.4 213.4l-.7-.3-2.2 5.3.7.3zM332.1 301l-1.6-5.4-.8.2 1.6 5.4zM361.1 347.9l-.9-5.6-.8.1 1 5.6zM440.2 375.2l.7.4 2.7-5-.7-.3zM478.5 305.8l.7.4 2.7-4.9-.6-.4zM233.72 172.98l.72-.35 2.5 5.12-.73.35zM336.8 202.7l-.9-5.6-.8.1.9 5.6zM258.53 223.84l.72-.34 2.5 5.12-.73.35zM253.5 213.7l.72-.36 2.5 5.13-.73.35zM263.44 234.06l.72-.34 2.5 5.12-.73.35zM350.1 286.6l.9 5.6.8-.2-1-5.5zM434.7 385.1l.7.4 2.7-4.9-.6-.4zM278.28 264.57l.72-.35 2.5 5.13-.72.35zM273.4 254.33l.72-.35 2.5 5.13-.73.36zM268.43 244.27l.72-.35 2.5 5.13-.73.35zM298.8 366.4l3.4 4.5.6-.4-3.3-4.6zM338.7 213.9l-.9-5.6-.8.1.9 5.6zM305.6 375.5l3.3 4.6.7-.5-3.4-4.6zM473 315.7l.7.4 2.8-4.9-.7-.4zM467.6 325.6l.7.4 2.7-4.9-.7-.4zM312.3 384.6l3.4 4.6.6-.5-3.4-4.6zM462.1 335.6l.7.3 2.7-4.9-.7-.4zM340.6 225l-1-5.6-.8.2 1 5.6zM344.3 247.4l-.9-5.6-.8.1.9 5.6zM342.4 236.2l-.9-5.6-.8.1 1 5.6zM451.1 355.4l.7.4 2.8-5-.7-.4zM456.6 345.5l.7.4 2.7-5-.6-.4zM445.7 365.3l.7.4 2.7-5-.7-.4zM398.5 200l-.8-.1-.3 5.7h.8zM399.1 188.7l-.8-.1-.3 5.7h.8zM397.9 211.3h-.8l-.3 5.6h.8zM397.3 222.6h-.8l-.3 5.6.7.1zM583.03 236.44l3.63-4.4.6.5-3.6 4.4zM399.7 177.4l-.7-.1-.4 5.7h.8zM382.5 188.1h.8v5.7h-.8zM431 197.2l-.8-.1-.9 5.6.8.1zM329 381.7l-.7.3 2.8 5 .7-.4zM317.4 362.2l2.7 5 .7-.4-2.7-5zM382.5 222h.8v5.7h-.8zM392.4 296.1h.8l.3-5.7h-.8zM577.2 214.8l.7.5 3.3-4.6-.6-.5zM396.6 233.9h-.8l-.3 5.6.8.1zM396 245.2h-.8l-.3 5.6.8.1zM557.8 242.7l3.3-4.6-.6-.5-3.3 4.6zM328.3 350.2l2.2 5.2.7-.3-2.2-5.2zM449.5 191.2l-.8-.1-1.3 5.5.8.2zM351.9 297.7l1 5.6.7-.1-.9-5.6zM564.5 233.5l3.3-4.5-.6-.5-3.3 4.6zM446.9 202.3l-.7-.2-1.3 5.5.8.2zM571.2 224.4l3.3-4.6-.6-.4-3.4 4.5zM551.1 251.8l3.3-4.6-.6-.4-3.3 4.5zM544.4 260.9l3.3-4.5-.6-.5-3.3 4.6zM382.5 290h.8v5.7h-.8zM437.3 240.8l.8.1 1.3-5.5-.8-.2zM590.8 228.1l3.6-4.3-.6-.5-3.6 4.3zM382.5 233.4h.8v5.7h-.8zM340 376l-2.2-5.2-.7.3 2.1 5.2zM334.9 191.5l-.9-5.6-.8.2 1 5.5zM172.4 227.2l-.6.5 3.7 4.4.6-.5zM469.1 302.5l-.7-.4-2.5 5.1.7.4zM436.4 368.4l.7.4 2.5-5.1-.7-.4zM431.5 378.6l.7.4 2.5-5.1-.7-.4zM456.1 327.6l.7.4 2.4-5.1-.7-.4zM451.2 337.8l.7.4 2.4-5.1-.7-.4zM441.3 358.2l.7.4 2.5-5.1-.7-.4zM218.7 256.6l-.6.5 3.4 4.5.6-.4zM212 247.5l-.6.5 3.3 4.5.7-.5zM324.88 224.44l.78-.17 1.26 5.56-.78.17zM191.8 220.2l-.6.4 3.4 4.6.6-.5zM198.6 229.3l-.7.4 3.4 4.6.6-.5zM188.5 215.6l-3.4-4.6-.6.5 3.3 4.6zM177.7 202.4l3.4 4.6.6-.5-3.3-4.6zM513.3 210.6l-.7-.3-2.5 5.1.7.3zM168.2 223.3l.6-.5-3.6-4.3-.6.5zM222.2 188.4l-2.8-4.9-.7.3 2.8 5zM216 178.9l.7-.4-2.8-4.9-.7.3zM228.83 162.74l.7-.35 2.5 5.12-.7.35zM508.4 220.8l-.7-.3-2.5 5.1.7.3zM412.5 303.2l.7.1 1-5.6-.8-.1zM490.5 256.2l.7.3 2.4-5.1-.7-.3zM503.5 231l-.7-.3-2.5 5.1.7.3zM208.6 242.9l-3.3-4.5-.6.5 3.3 4.5zM505.9 256.3l.7.3 2.7-4.9-.7-.4zM494.9 276.1l.7.4 2.8-5-.7-.4zM421.7 312.7l-.8-.2-1.2 5.5.8.2zM500.4 266.2l.7.4 2.7-5-.6-.4zM509.6 176.8l2.2-5.2-.7-.3-2.2 5.2zM339.9 290.7l1.2 5.5.8-.2-1.3-5.5zM319.4 196.6l-1.3-5.5-.7.2 1.2 5.5zM321.9 207.7l-1.3-5.6-.7.2 1.2 5.5zM314.9 180.2l1.2 5.6.8-.2-1.3-5.5zM329.4 240.8l-1.3-5.5-.7.2 1.2 5.5zM429.1 208.4l-.8-.1-.9 5.6.8.1zM342.4 301.7l1.2 5.5.8-.1-1.3-5.6zM303.8 203.1l-1.5-5.5-.8.2 1.6 5.5zM539.4 197.2l2.8-5-.7-.4-2.8 5zM511.4 246.3l.7.4 2.7-4.9-.7-.4zM467.9 376.3l.6.5 3.6-4.4-.6-.5zM453.5 393.8l.6.5 3.6-4.4-.6-.5zM460.7 385l3.64-4.4.62.5-3.63 4.4zM525.6 185.1l2.4-5.1-.7-.3-2.4 5.1zM316.4 246.6l-1.6-5.5-.8.3 1.6 5.4zM516.8 236.4l.7.4 2.8-4.9-.7-.4zM307 213.9l-1.6-5.4-.8.2 1.6 5.5zM313.2 235.7l-1.5-5.4-.8.2 1.6 5.4zM522.3 226.5l.7.4 2.8-5-.7-.3zM274.4 219.3l-2.2-5.2-.8.3 2.2 5.2zM267.1 203.9l2.2 5.2.7-.3-2.2-5.2zM278.7 229.7l-2.2-5.2-.7.3 2.2 5.2zM291.9 261.1l-2.2-5.3-.8.4 2.2 5.2zM284.6 245.7l2.2 5.2.7-.3-2.2-5.2zM350.9 366.3l-1.6-5.5-.8.3 1.6 5.4zM367.8 217.5l.8-.1-.4-5.6h-.8zM367.1 206.2l.8-.1-.3-5.6h-.8zM369.1 240.1h.7l-.3-5.7-.8.1zM368.4 228.8l.8-.1-.3-5.6h-.8zM366.5 194.9l.8-.1-.4-5.6h-.7zM366.6 183.5l-.3-5.6h-.8l.3 5.7zM352.4 345.9l1.2 5.5.8-.1-1.3-5.6zM465 195.9l-.8-.3-1.6 5.5.8.2zM461.8 206.7l-.7-.2-1.6 5.5.8.2zM425.2 331.7l.8.2 1.5-5.4-.7-.2zM422.1 342.6l.7.2 1.6-5.4-.8-.2zM372.7 290.9l-.7.1.3 5.6h.8zM371.7 48.2l11-8.5 11 8.5-3.6-13.7 11.6-9.5h-14.3l-4.7-13.7-5 13.7h-14l11.5 9.5zM413.8 49.4l12.2-7 9.8 10.1-1.9-14.2 12.6-8-13.8-1.8-3-14.5-6.7 13.3-14.1-1.7 10 10.9zM455.7 55.7l13.2-5.2 7.9 11V47.1l13.4-6.1-13.8-3.4-.9-15-7.9 12.6-13.9-3.6 8.7 11.8zM509.6 63.7l7.1 12.1 1.6-14.3 14.3-4.7-13.4-4.8.8-15.1-9.5 11.5-12.9-5 6.8 12.3-7.9 11.6zM548.8 82.1l5.3 12.8 3.8-13.8 14.1-2.9-12.3-6.4 2.7-15.2-10.7 10.6-12.4-6.7 5.3 13.2-9.5 10.5zM571.3 105.7l14.2-.3 3.2 13.3 5.8-13.3 14.3-1.3-11.4-7.9 4.8-14.4L590 91l-11.4-8.5 3.6 13.7zM604.6 131.1l14.4 1.5 1.6 14.1 7.6-12.7 13.9.5-9.9-8.9 6.2-14.1-13.4 7.9-10.5-10.1 2.3 14.3zM634.6 160.9l14.1 3.2-.5 14 9.5-11.6 13.7 2.6-8.6-10.3 7.7-13.2-14 6.2-9.2-11.4.2 14.5zM674.2 199.2l-2.1 13.9 10.8-10.3 13 4.2-7-11.5 9.2-12.3-14.5 4.6-8-12.7-1.2 14.8-13.9 4.2zM682 230.4l12.9 7.2-3.4 13 11.6-8.6 12.4 5.5-5.1-12.2 10.2-10.8-14.8 2.3-6.3-13.3L696 228zM713.6 268.7l-14.2.3 11.6 8.6-5.2 12.7 12.3-7.2 12.2 7.1-4.2-12.7 11.9-9.6-15.2.8-4.4-14.6zM732.1 297.2l-6.7 13.8-14.1-1.5 10.5 10.1-7 11.9 13.2-5.6 11.4 8.6-2.4-13.4 12.8-7.5-15.3-1.6zM740.6 341.9l-8.6 12.3-13.9-3 8.9 11.3-7.9 10.8 13.6-3.8 10 10-.8-13.6 13.7-6.1-14.7-3.2zM732 413.6l8.2 10.9 1.2-13.3 14.6-4.5-14.3-4.8 1.3-15-9.9 11-13.3-4.5 7.2 12.3-9.5 9.9zM739.9 432l-11.3 9.8-12.5-6.2 5.7 13.1-10.6 8.5 14.5-.1 6.5 11.7 2.9-12.9 15.2-2.5-13.8-6.8zM730.8 476.2l-11.7 8.4-12.3-7.7 4.2 13.8-11.6 7 14.7 1.7 5.1 12.6 4.3-12.5 15.2-.8-13-8.4zM716.8 519.3l-13 6.5-11.5-9 2.6 14.1-12 5.4 14.3 3.5 3.2 13.6 6.1-12 14.7 1.1-11.6-10zM697.3 559.8l-13.7 4.8-10.2-10.3.8 14.4-12.9 4 13.8 5.4 1.9 13.8 7.1-10.9 14.7 3-10.3-11.6zM658.7 600.8l-9-11.6-1 14.6-13 2.6 12.5 6.6.5 13.9 8.4-9.6 14.7 4.3-9.5-12.6 10.5-11.3zM629.5 633.4l-7.6-12.5-2.9 14.6-13.3.7 11.9 8.5-1.4 13.5 9.3-8.7 13.9 6.3-7.2-13.6 11.6-9.8zM596.5 662.5l-6.2-13.8-4.7 14.4-13.6-.7 10.9 9.5-2.9 13.4 10.6-7.3 12.6 7.8-5-14.2 12.3-8.5zM560.2 687l-4.3-14.4-6.6 13.7-13.6-2.8 9.7 11.2-4.6 12.7 11.4-5.7 11.2 9.2-3-15 13.5-6.8zM521 706.7l-2.9-14.6-8 12.6-13.3-4.5 8.4 12.2-6.3 12.3 12.3-4.4 10 10.6-.8-15 13.7-5.3zM478.4 706.5L469 718l-12.9-6.2 7 13.4-7.8 11.1 12.5-2.7 9 11.9 1-15 14.3-3.4-12.6-5.4zM437.2 716l-10.9 10.2-11.8-7.3 5 13.7-8.9 9.9 12.6-1 7.6 12.9 3.1-14.7 14.2-1.9-11.6-6.9zM395 720.3l-11.7 8.6-10.8-8.8 3.3 14.2-10.4 8.6 12.9.6 6 13.7 4.3-14.3 14.6.4-10.9-8.7zM352.7 719l-12.6 7.2-9.8-10.2 1.7 14.6-11.4 7.2 13 2.1 3.7 14.5 6.5-13.7 14.3 2.2-9.4-9.7zM311.2 712.9l-13.4 5.1-8.6-11.3v14.9l-12.4 5.9 12.5 3.7 2.3 14.3 7.7-12.3 14.3 3.8-8.5-11.1zM256.3 705l-6.8-12.5-1.8 14.2-13 4.4 11.9 5.5.4 14.6 9.3-11.5 13.9 5.7-7.2-11.8 7.5-12.4zM217.4 686.5l-5.5-13.4-3.4 14.5-13.6 2.4 11 6.9-1.4 14.2 11.1-9.9 12.6 7.3-5.6-12.6 9.1-11.7zM195 663.1l-14.1.1-3.8-13.7-5.1 13.6-14 .7 10.3 8.5-3.2 14 12-8.8 11.6 9-3.7-13.4zM161.6 637.5l-14-1.8-1.9-14.1-7.1 12.8-14-1.2 9.5 9.8-5.3 13.3 13.2-6.8 10.2 10.5-2-13.7zM118.2 604.2l-.6-14.4-8.2 11.9-13.8-2.7 7.9 10.9-6.9 12.3 14.1-4.8 8.8 11.5v-13.6l12.3-7.7zM92.9 569.4l1.2-14.5-10 10.9-13.2-4.6 6.4 11.9-8.3 11.5 14.7-3.4 7.5 12.3 1.7-13.2 13-5.9zM84.1 538.1l-12.5-6.8 3.3-14-11 9.4-12.6-6 5.1 12.6-10.1 9.9 15.3-1 5.7 12.9 3.1-12.6zM53.1 502.3l14.3-2.8-11.6-8.2 4.9-13.7-12.3 8.2-11.6-7.8 3.1 13.3-11 8.6 15.3.7 4.1 13.6zM34.7 471.1l6.1-10.9 14.9-1.2-10.7-9.7 6.4-12.8-12.9 6.4-10.4-9 1.4 13.5-12 7.1 14.8 2.7zM26.6 426.6l7.5-10 14.6.7-9-10.9 8-11.8-13.7 4.7-9.5-10.3v13.6l-13 5.3 14.3 4.6zM24.2 381.6l8.7-9 14.4 2.8-7.6-12.4 9.3-10.5-14.3 3.1-8.1-11.8-1.7 13.5-13.4 4.1 13.4 6.1zM27.5 336.3l9.6-7.4 14.2 4.5-6.3-13.2 10.8-9.2-14.4 1-7-12.6-3.2 13.4-13.7 1.9 12.4 8.2zM36.1 292.3L47 286l13.2 6.3-4.4-14.1 11.6-7.9-14.3-.8-5.2-13.3-5.1 12.8-14 .4 11.6 9.5zM50.6 249.7l11.4-5.2 12.5 8.1-3-14.5 12.6-6.5-14.3-2.1-3-14.1-6.8 12-14-1.6 10.4 11.1zM70.2 208.7l11.8-3.4 11.3 9.5-1-14.7 13.6-4.6-14-4.3-1.3-14.3-8.3 11.3-13.6-3.4 8.6 12.3zM106.7 169.1l10.1 10.4.8-14.2 14.2-3-13.6-5.8.6-14.6-9.4 10-13.1-5 7.2 13.5-8.6 10.4zM136 136.4l8.7 11.3 2.5-13.7 14.2-1.4-12.3-7.4 2.4-14.7-10.8 9.2-12.5-7 5.3 14.5-9.8 9.2zM169 107.5l7.4 12.2 4.2-13.3 14.2.5-11.5-9.2 4.4-14.4-12 7.9-11.6-8.2 3.6 15-11 7.8zM205.5 82.5l5.5 13.4 6.1-12.7 13.9 2-9.9-10.1 6.1-13.9-13.2 6.1-10.5-9.5 1.7 15.6-12.1 6.1zM248.7 76.5l7.6-11.7 13.3 3.7-8.5-11.7 7.8-12.5-13.7 4.5-9.3-11.2-.3 15.8-12.8 5 11.9 4.3zM288.6 62.1l8.8-10.8 12.7 5.5-7.1-12.5 9.2-11.7-13.7 2.7-7.9-12.3-2.4 15.9-13.5 3.1 11.5 5.6zM329.8 52.9l10-9.5 11.9 7.1-5.4-13.6 10.5-10.2-14 .7-5.8-13-4.8 15.3-13.9 1.3 10.8 7.3zM363 568.3c.6-.9-3.8-1.2-4.8-3.3-.4-1.3-23.6 28.2-34.4 38.9-.7 1 19-26.8 30.6-39.3.6-.7-2.5-3.3-2.5-3.3s-28.2 21.5-33.7 50.2c0 .8 23-3.3 44.8-43.2zM365.2 570c-.4.9-19.5 26.6-32.7 49-.3.7 9.1-19 9.1-19s-9.8 8.8-12.7 9.9c-1.3.6-3.4 12.9-2 16.4.4.8 25.9-6.7 44.3-52 .3-.8-5.6-5.5-6-4.3zM337 624.1c-.6.1-.4 15.8 2 17.1.6.2 29.9-10.6 38.6-65.6 0-.7-3.7.4-3.7 0 0-.7-19.7 39.2-29.6 54.2-.3.4 9.9-21.2 9.9-21.2s-12 12.2-17.2 15.5zM359.8 646.2s0 .1 0 0c0 .1 0 .1 0 0zM379.9 578.1s-10.9 44.2-20.1 68.2c0 .1 0 .1 0 .1s0 0 0-.1c.5-1.6 8.8-33.9 8.8-33.9s-6.4 12.2-17.8 23.8c-.1.3-.6 15.7 5.5 20.8.1.1 25.2-12.7 25.2-77.1-.1-.7-1.6-1.8-1.6-1.8zM382.4 600.8c0-.2 0-.3 0-.2 0 0 0 .1 0 .2zM381.1 616.6c0-.6-.3-9.9-.3-9.9s-2.5 26.6-12.3 39.5c-.2.4 9.6 15.3 14.2 17.3.6.3 10.2-7.4 14.7-19.1.3-.6-12.9-13.5-15-43.5.2 3.3 2.4 44.1.3 59.9-.1.6-1.6-32.4-1.6-44.2zM402.8 567.4c-2.2 9.2-6.1 3-6.1 3.1 14.6 50.5 47.1 57.2 47.3 56.6 1-3.4-.1-19-.7-19-7.2-1.6-19.5-12.3-19.5-12.3s15.8 26 15.4 25.5c-13.6-16.6-21.8-32.3-22.9-33.1-4.7-3.4-13.4-21.3-13.5-20.8zM397.7 609.5c-7.2-17.6-8.3-33.4-8.3-33.1-2.1 7.1-6.7 3.4-6.7 4 0 62.7 29.7 74.3 30 73.9 3.4-3.1 5.8-15.4 5.4-15.6-7.2-5.9-17.5-23.4-17.5-23.4s10.7 34.5 10.3 34c-5.8-10-13.2-39.4-13.2-39.8zM447.3 506.8c-.4-.2-.8-.4-1.1-.5 0 0 .4.2 1.1.5zM402.9 565.3c0-.2 0-.3 0-.3-.1.1 0 .2 0 .3zM539.7 211.6l-1.4 2.3c.6-.7 1-1.5 1.4-2.3zM410.6 563.9c3.2-2.3 4.3-8 4.7-10.7.2-.8.3-1.4.4-1.5 1.6-.6 2.6-10.8 3-15.2 1-.9 1.8-1.8 2.8-2.8 1.6 1.8 3.7 3.5 6 3.7 4.1.1 13.2 4.9 15 7.3 3.8 4.4 8.9 5.8 11.5 6.9 13.7 5.9 24.8 3.7 24.8 3.4 0-1.3-1-2.2-1-2.2 2.4 0 8.5-1.8 8.5-2 0-.4-.3-1-.7-1.7 10.3 2.6 28.3 8 31.1 10.5.2-1 1.1-3.7 4.5-4.5l.2 1c-3.4.8-3.9 4.1-3.9 4.1l-.6-.1s.1.1.1.1c-1.3 3.6-1 6.7.2 9.3l-2.7 2.8.2.3-3.6 3.2h3.3l3.9-4.1 8.7-9.2c0-1.2.2-2.4.4-3.4.3-1.5.8-2.5.8-2.6l1 .2s0 .3 0 .6c.1.5.3 1.2.8 2l3.6-3.9.5.5-3.7 4c.3.4.9.8 1.4 1.2l2.4-2.6.5.5-.4.4.1.1-1.5 2.4c.1 0 .1.1.1.1.1 0 .1 0 .1.1 3 1.2 3.2 2.4 3.2 4 0 .2 0 .4 0 .6 0 .6-.9 1.7-2.1 2.2-.4.2-.9.3-1.5.3-.7 0-1.5-.3-2.4-.8-.3-.2-.6-.4-.9-.6l-.5.8 1.3.7c0 .3 0 .5-.1.8l-1.7-.8-3.4 5.6-1.3 2.1-5.4 8.9 8-3.8 1-2 .5-1 1.9-4c.1.4.2.8.3 1.1l-1.5 3.2-.5 1-21.8 46.6-.4-.2-1.2 2.7 4.1 1.4 1.3-2.8-.4-.2 21.1-47.6 1.1-2.4c.3.2.6.3 1 .5l-.6 2.4-11.7 47.9-.7-.2 11.7-48 .1-.5-.2.5-14.1 31.8h.1l-4.3 19.5 6.9-3.3 2.5 2.1 3.4-1.1 5.8 3.7 7.8-42.3-5.1-6.7-8.8 45.4-.7-.1 8.8-45.4.6.1-.3-.3.4-2.4c.3.1.6.1.6.1s.1-.2.2-.6c5.5 6.2 11.1-3.6 13-4.5l-.5-.2c1.6-3.1 1.8-5.6.7-7.4-1.3-2.2-4.3-2.9-5.7-3.1.3 1 .3 2.1.1 3.3l-1-.2c.5-2.4-.4-4.1-1.5-5.2-1.1-1.2-2.5-1.8-2.6-1.8l.1-.3.2-.6c.1 0 1.3.6 2.5 1.7.6.6 1.2 1.2 1.7 2.1 1.1.1 5.2.7 7 3.7 1.2 2 .9 4.7-.6 7.9 18.7-1.3 8.9-14.8 9.9-15.8 10.6-8.8 5.9-13.6 2.3-15.9-.1-.1-.2-.1-.3-.2-.1-.1-.2-.1-.3-.2l30.1-23-.9-2.6-31.9 24.3c-.2-.1-.3-.1-.4-.1-.2 0-.3-.1-.4-.1-.1 0-.1 0-.2 0s-.3-.1-.4-.1c-.1 0-.3-.1-.4-.1L588 512l2 5.5.1.3.1.3.5 1.3 1.1-2.5.3-.7.3-.7 9-20-2.8 1.5-1 .5-1 .5-8.5 4.4-1 .5-1 .5-1.5.8-.8.4-.8.4-5.4 2.8 2.4.7.4.1.4.1 3.5 1 .5.2.5.1.4.1.4.1-.4.4-33.2 31.3c-.1 0-.2 0-.3 0-.1 0-.2 0-.3 0-.1 0-.1 0-.2 0s-.3 0-.4 0c0 0-.1 0-.1 0l28.4-33.1-2.8-.8-19.3 22.4-8.5 12.3c-.2.1-.5.3-.7.4-.2.2-.5.3-.7.4l5.6-8.1 1.9-2.8 1.9-2.8 29.4-42.5 3.3 4.5.2.3.2.3.9 1.3.7-3.1.2-.7.2-.7.4-2 .1-.4.1-.4.6-2.7.2-.8.2-.8 2.1-9.7.2-.9.2-.9.5-2.3-2.3 1.9-.4.3-.4.3-1.8 1.5-.3.2-.3.2h-.1l-.9.8-.9.8-7.2 5.9-.7.6-.7.6-4.8 4 2.5.2h.8l5.2.3-.4.5-25.9 37.3-2 2.9-2 2.8-6.4 9.2-1 1.4-.5.7-.5.7-2.2 3.1c.3-.1.6-.2 1-.3 0 0 .1 0 .1 0 .1 0 .2-.1.3-.1.1 0 .2-.1.3-.1 0 0 .1 0 .1 0 .1 0 .2-.1.2-.1.1 0 .2-.1.3-.1.1 0 .1 0 .2 0s.3 0 .4 0c.1 0 .3 0 .4 0 .1 0 .3 0 .4 0 0 0 .1 0 .1 0 .2 0 .3 0 .5 0 .1 0 .3 0 .5 0 .4 0 .7 0 1.1 0 .1 0 .2 0 .3 0 .1 0 .1 0 .2 0s.1 0 .2 0 .2 0 .3 0c.1 0 .1 0 .2 0 1.1.2 2 .5 2.6.9.1.1.2.1.3.2.1.1.2.1.3.2.1.1.2.1.2.2 0 0 0 .1 0 .1.5.6.8 1.7.2 3.2 0 .1 0 .1 0 .1-.2.4-.4.6-.7.8-.2.2-.4.4-.7.5-.2.1-.5.1-.8.2-.2 0-.3.1-.5.1-.9 0-1.9-.2-2.9-.4-.1 0-.1 0-.2 0s-.2 0-.3 0c0 0 0 0-.1 0s-.2 0-.4-.1c0 0-.1 0-.1 0-.2 0-.3-.1-.5-.1s-.4-.1-.6-.1c-.4-.1-.6-.1-1-.2-.1 0-.3 0-.4-.1-.1 0-.3 0-.4-.1-.1 0-.2 0-.3-.1l-1.2 1.1-.1.1-.3.3s0 0 .1 0c0 0 0 0 .1 0 .1.1.2.1.2.2 0 0 0 0 .1.1s.1.2.2.3c.1.1.2.2.2.3.1.1.1.1.2.2 0 0 0 .1.1.1 0 0 .1.1.1.2.1.1.2.2.2.3.1.1.2.2.2.3 0 0 .1.1.1.1.2 0 .4-.1.6-.1.2 0 .4-.1.6-.1.8-.1 1.7.1 2.6.4.1 0 .3.1.4.2.1.1.3.1.4.2.1.1.3.1.4.2.7.5 1.3 1.1 1.7 1.8 1-.1 5.1-.5 6.9 1.8 1.1 1.4 1.1 3.5 0 6.3l-.9-.4c1-2.4 1-4.2.1-5.3-1.3-1.7-4.5-1.6-5.7-1.5.3.8.5 1.7.6 2.8l-1 .1c-.2-2.3-1-3.9-2.3-4.8-.2-.2-.5-.2-.8-.3-.1-.1-.3-.1-.4-.2-.1 0-.3-.1-.4-.1-.8-.2-1.5-.1-2.1 0 0 0 0 0 0 .1.3.4.4.8.6 1.1 0 .1.1.2.2.3 0 .1.1.2.1.3.5 1.5.2 2.7-.2 3.4-.8 1.4-2.3 2.2-3.1 2.2h-.2c-.2-.1-.4-.1-.6-.2-.3-.1-.5-.2-.7-.3-1.1-.4-1.7-1.2-2.3-3.9 0-.2-.1-.3-.1-.5 0-.1-.1-.3-.1-.4-.1-.6-.3-1.1-.4-1.6 0-.1-.1-.3-.1-.4 0-.1-.1-.2-.1-.3-.1-.2-.1-.3-.2-.5 0 0 0-.1 0-.1s0-.1 0-.1c0-.1-.1-.2-.1-.3 0 0 0 0 0-.1 0 0 0 0 0-.1 0 0 0-.1 0-.1 0-.1-.1-.2-.1-.2 0-.1 0-.1-.1-.2 0-.1 0-.1-.1-.2 0 0 0-.1 0-.1-.1-.3-.2-.6-.4-.9-.1-.2-.2-.4-.2-.6-.1-.1-.1-.3-.2-.5 0 0 0-.1-.1-.1 0 0 0-.1 0-.1l-.3.3-.6.6.6-1.6-.5-.9.7.2 1.1-3.2 3.5-17.9c-6.4-3.7-11.9.2-15.9 5.1 2.5-2.1 5.7-3.1 6.8-2.5l-.5.8c-.5-.3-3.9.6-6.5 3.1-2.1 2.1-4.1 5.7-1.2 10.9.4.8 1.5 1.5 2.8 1.9-.2-.7-.4-1.4-.3-2.1 0-3.1 1.3-4.4 2.4-4.9 1.3-.6 2.9-.4 3.4 0 .2.2.3.4.4.5 1 1.3 1.6 2.3.3 5.3-1.5 4.1.5 6.2.6 6.3l-.5.8c-.2-.1-4-1.8-5.8-4.6-1.8-.5-3.5-1.3-4.2-2.7-1.7-3-1.8-5.5-1.3-7.5-1.5 2.6-2.5 4.7-2.7 5.2l.5.2s-1.3 3.1 0 5.4l-.9.5c-1.3-2.4-.4-5.2-.1-5.9-11.4-.1-20.2-5.4-25.3-7.6-.4-6.5-3.4-9.2-5.5-10.3 0 0 1.4-2.9 1.4-3.1-3.1-8.9-17.3-13.2-17.3-13.7 0-3.7-6.7-5.1-12-8.1-3.8-2-8.8-5.3-11.6-7.2 1-2.8 2-5.5 2.8-8.2 9.3 12 9.7-2.4 10-2 9.8 9.9 9.2-9.6 9.5-9.5 17.8 13.9 11.7-5 12-4.7 13.5 9.3 9.1-9.6 9.5-9.5 16 9.5 9.2-10.1 9.5-9.9 18.4 11.7 10.5-8.8 10.5-8.8 16.8 11.3 7.2-12.3 7.2-12.3 20.4 8.6 9.3-9.8 9.3-9.8 17.1 2.5 3.7-11.6 4.5-11.6 25.3-.6 5.5-15.1 6.4-15.3 26.7-7.4 3.8-14.7 4.2-14.9 30.6-8.6-.4-14 .4-14.4 32-15.6 2-16.8 2.1-17.1 30-23.9 9.6-21.8 9.6-21.8 22.4-19.5 3.3-18.3 3.4-18.7 25.7-24.1 6.1-21.6 6.1-21.6 39.1-33.8 31.8-48 31.8-48-4.3 1.3-9.9 4-18.9 9l2.3-2.8-.6-.5-3.6 4.4c-4.7 2.7-10.3 5.9-17 9.8l36.6-47.1-1.2-.9-38.9 50c-4.4 2.6-9.1 5.4-14.4 8.5l-.5-.4-.9 1.2c-.6.4-1.1.7-1.7 1-4.5 2.7-8.7 5.2-12.6 7.7l55.8-81.1-1.6-1.1-58.5 85c-13.4 8.7-23.9 16.6-31.8 23.7l72.7-123.5-1.7-1-20.3 34.5c-.4.8-.8 1.6-1.4 2.3l-54.5 92.6c-12.7 12.5-17.3 22.4-17.8 30.3l-18.1 30.8h-4.5l3.1 2.3-11.7 19.8c-.6-1.5-1.3-2.9-2.1-4.4l45.1-87.2c2.3-.7 4.4-1.5 6.3-2.5l-.5 1 .7.4 1.1-2.1c.8-.5 1.8-.8 2.6-1.4 4.4-3.4 6.7-8 6.7-13.7 0-.7-.7-1.5-2.1-3.3-.6-.7-1.4-1.7-2.2-2.7l29.5-57.1c2.2 1.9 4.9 3.1 8 3.1 4.1 0 7.7-2.1 10-5.3l1.4-2.3c.8-1.7 1.2-3.5 1.2-5.5 0-5.9-4-10.6-9.3-12.1l14.4-27.9-1.3-.7-14.6 28.3c-.6-.1-1.2-.4-1.9-.4-.9 0-1.6.3-2.5.5 0-.2.1-.4.1-.6 0-5.7-3.5-10.7-8.4-13l11.2-25.2-1.3-.6-11.2 25.3c-1.5-.5-3.1-.9-4.8-.9-.6 0-1.2.1-1.8.2-.9-3.5-2.9-6.6-5.7-8.8l9.4-24.5-1.8-.7-9.2 24c-2.5-1.6-5.5-2.5-8.7-2.5-3.9 0-7.4 1.5-10.2 3.9 0-1.1-.1-2.1-.3-3.1l10.1-32-1.9-.6-9.2 29.3c-1.2-2.9-3.3-5.3-5.8-7.2l1.3-4.6-.8-.2-1.2 4.3c-2.1-1.4-4.5-2.2-7.1-2.5l6.8-26.2-1.4-.4-6.8 26.4c-.3 0-.5-.1-.8-.1-2.6 0-5.1.6-7.4 1.7-1.5-4.2-4.3-7.7-8-10l4.8-24-1.5-.3-4.7 23.5c-2.6-1.3-5.5-2.2-8.6-2.2-.2 0-.4 0-.6.1l.2-1.1-.8-.1-.2 1.4c-3.3.2-6.4 1.2-9.1 2.9l4.1-29.8-2-.3-4 29c-3.6-5.1-9.4-8.5-15.9-9l1.9-23.4-2-.2-1.9 23.4c-3.1 0-6 .8-8.6 2l.3-5.2h-.8l-.3 5.6c-.2.1-.5.3-.7.4-2-2-4.5-3.7-7.1-4.9l.6-23h-1.5l-.6 22.5c-2.7-1-5.5-1.6-8.6-1.6-3.2 0-6.2.7-9 1.8l-.6-22.7h-1.5l.7 23.4c-2.5 1.3-4.7 2.9-6.6 5-.7-.4-1.5-.8-2.2-1.2l-.3-4.7h-.8l.2 4.3c-2.4-1-5.1-1.6-7.8-1.7l-1.9-23-2 .2 1.9 23c-6.3.4-11.9 3.6-15.6 8.4l-3.9-28.2-2 .3 4.2 30c-2.7-1.9-5.9-3-9.3-3.2l-.2-1.4-.8.1.2 1.1c-.2 0-.4-.1-.6-.1-2.6 0-5 .5-7.3 1.4l-4.6-23.3-1.5.3 4.7 23.7c-3.1 1.5-5.8 3.8-7.6 6.7l-1-4.3-.8.2 1.2 5.2c-.6 1-1 2-1.4 3.1-1.9-.9-4-1.4-6.2-1.6l-6.8-26.6-1.4.4 6.7 26.2c-3.3 0-6.4 1-9 2.7l-.6-2.3-.8.2.7 2.5c-2.8 1.9-4.9 4.7-6.1 7.9l-9.2-28.6-1.9.6 10.1 31.6c-.1.6-.2 1.3-.2 1.9-2.8-2.3-6.4-3.7-10.3-3.7-2.5 0-4.9.7-7.1 1.7l-8.7-22.8-1.8.7 8.8 23c-3 1.9-5.3 4.7-6.6 8.1l-2.1-5-.7.3 2.2 5.2.5-.2c-.2.5-.3 1-.5 1.4-.6-.1-1.2-.2-1.9-.2-1.9 0-3.7.4-5.4 1.1l-10.7-23.6-1.3.6 10.7 23.7c-2.7 1.5-4.8 3.7-6.2 6.5l-2.1-4.3-.7.3 2.4 4.9c-.6 1.6-1 3.4-1 5.3 0 .2.1.4.1.7-.9-.2-1.8-.5-2.7-.5-.4 0-.7.2-1.1.2l-14-27-1.3.7 13.8 26.6c-2.8.6-5.4 2.2-7.2 4.4l-2.7-4.9-.7.4 2.7 5 .7-.4c-1.7 2.1-2.8 4.8-2.8 7.8 0 1.6.4 3 .9 4.4l-18.7-31.7-1.7 1 66.7 112.9v.1c0 .4.2.5.5.6l11.3 19.1c-8-9.6-20.2-20.8-38-33.7l-57.8-83.5-1.6 1.1 54.7 79.1c-3.8-2.7-7.8-5.4-12.2-8.3-8.9-5.8-16.5-10.6-23-14.5l-33.5-42.6-1.2.9 31.1 39.6c-7.8-4.6-14.1-8-19-10.4l.1-.1-3.6-4.4-.6.5 2.7 3.3c-5-2.4-8.8-3.8-11.7-4.7 0 0-7.1 14.1 31.7 48 .3 0-19.4-2.4 6.4 21.6.1.4-19.2-.9 3.3 18.7 0 0-20.4-2.1 9.6 21.8.3.3-29.7 1.6 2.1 17.1 1 .4-30.1 5.8.3 14.4.4.2-22.5 7.5 4.5 14.9.6.1-19.2 14.7 6.2 15.3.6 0-12.6 14.1 4.7 11.6 0 0-11 18.4 9.2 9.8 0 0-9.6 23.6 7.1 12.3 0 0-7.8 20.5 10.3 8.8.6-.2-6.2 19.4 9.9 9.9.4-.1-4.1 18.8 9.1 9.5.4-.3-5.7 18.6 12.2 4.7.4-.1-.4 19.4 9.6 9.5.3-.4.7 13.8 9.9 2.2 1.2 4.1 2.7 8.3 4.5 12.4-2 1.3-4.3 2.8-6.6 4.1-5.5 3.1-11.9 4.7-11.9 8.4 0 .6-14.3 4.5-17.6 13.4 0 .2 1.7 3.1 1.7 3.1-2 1.4-4.9 3.8-5.6 9.2-5.3 2.4-13.7 7.2-24.7 7.3.3.8 1.3 3.5 0 5.9l-.9-.5c1.3-2.3-.1-5.3-.2-5.3l.6-.3c-1-2.2-10.6-24.3-24.2-3.4-1.4-1.2-2.7-2.3-4.2-3.4-.1 0-.1 0-.2 0-3.7 0-6.8-3-6.8-6.8 0-2.1 1-3.9 2.5-5.1-.2 0-.4.1-.6.1-.9 0-1.8-.2-2.6-.6-.2 1.7-.4 3.2-.5 5 0 .7-10.9-5.2-9.1-16.9.5-3.4 2.1-7.2 5.3-11.5.2-.3.4-.7.7-1 .7-1 6.2-12.6 4.8-27.6-.7-6.8-3.7-9.6-.9-18.5 0 0-13.4 16.6-16.3 22.1-3.5 6.8-5 13.1-5.4 18.9 3 .5 5.3 3 5.3 6.2 0 2.8-1.9 5.2-4.4 6 .7 3.1 1.6 5.9 2.5 8.3 0 0-2.6-2.8-4.9-8-3.3-.2-6-2.9-6-6.3 0-2.3 1.2-4.1 3-5.3-.2-1.7-.2-3.6-.2-5.5-.7.2-1.4.4-2.2.4-.5 0-.9-.2-1.4-.3-.2 2.7-.1 6 .6 7.8 0 0-3.6-4-3.7-9.3-1.2-1.1-1.9-2.7-1.9-4.5 0-3 2.2-5.4 5-6 3.1-5.1 3.4-11.2 2.9-15.9-1.3-11.9 2.3-17.6 4-20.4.3-.5.6-.9.7-1.2l.9.4c-.1.4-.4.8-.8 1.4-1.7 2.7-5.1 8.2-3.9 19.8.5 4.7.2 10.6-2.6 15.7.7 0 1.3.2 2 .4 4.1-3.6 9.6-11.2 9.1-27.7 0-1.3.3-16.1 3.4-20.7 0 0-19.1 6.4-20.7 24.9-.1 1.3-.4 2.4-.3 3.8 0 1.2.4 3.2.7 5.6.7 5.4 1.2 12.8-2.2 18.3 0 0-4-12.6-2.4-17.4.1-.3 0-.5-.1-.7-.2-.5-.7-.8-1.1-.8-.1.1-2.4 1.9-2.4 4.2 0 0-7.1-7.3 5.8-25.2.4-.8 8.2-9.8 5.1-30.6-.4-2-3-9.5 1.4-16.1 0 0-11.9 2.6-14.4 15.9l.5-.1c0 .2.1.5.2 1 .3 1.4.8 3.8 1.1 6.9.7-3.6 2-8.5 5.5-12.9l.8.6c-4.6 6-5.4 12.7-5.8 16 0 .3-.1.6-.1.8.2 3.8 0 8-1 12-.3 1.6-.7 3.2-1 4.7-1.8 8.5-3.2 14.6-2 20.2l-1 .2c-1.2-5.8.1-12 2-20.6.3-1.5.7-3 1-4.7.9-3.8 1.1-7.7 1-11.3h-.1c0-.1.1-.3.1-.5-.2-5-1.1-9.2-1.4-11.1-.1-.5-.2-.9-.2-1.1l.5-.1s-1.7-7.6-5.5-12.3c-.6-.9-3.1-4.1-2.7-10.3 0 0-12 8.2-8.8 35.3 0 0-7.9-6-12.2-8.1-4-2-5.8-2.6-8.5-7.7 0 0-4.9 32.4 22.9 46.1-.8-1-1.4-2.3-1.4-3.7 0-2.7 1.8-5 4.3-5.8-1.7-3.6-4.6-7.2-9.6-10.4-10.3-6.6-12.9-15.8-13-16.2l1-.3c.1.4 2.5 9.1 12.5 15.6 5.4 3.3 8.4 7.1 10.1 11 .3-.1.6-.2 1-.2.9 0 1.7.2 2.4.5-.7-13.1-9.8-20.4-9.9-20.5l.6-.8c.1.1 7 5.7 9.5 15.9 0-5.3-.3-14.2-2.2-19.7-3-8.1-3.3-10-1.1-19.8l1 .2c-2.1 9.6-1.8 11.2 1.1 19.3 2.8 8.4 2.2 23.9 2.2 24.5h-.3c0 .5.1 1 .1 1.6 1.7 1.1 2.9 2.9 2.9 5.1 0 3.2-2.4 5.6-5.4 6.1.7.3 1.4.6 2.2.8.7.1.1 3.2 1.9 6.3l.1-.1c.5.8 1.2 1.6 2.2 2.5 2.4 2.5 5.7 5.9 7.1 12.4l-1 .2c-1.3-6.2-4.5-9.5-6.8-11.9-1-1-1.8-1.8-2.3-2.7l.6-.4c-1.4-1.3-6.6-5.6-17.6-6.5-2.4-.4-7.1-1.7-12.3-8.5 0 0-5.9 14.6 9.9 23.3 4.2-.4 7.7-.2 11 .3 0-.3.1-.6.2-.9-6.3-2.8-10.5-6.9-13.9-10.1-.5-.5-1-.9-1.4-1.4l.7-.7c.5.4 1 .9 1.5 1.4 3.2 3.1 7.4 7 13.5 9.8.9-2 2.9-3.4 5.3-3.4 3.3 0 5.9 2.6 5.9 5.9 0 1-.3 2-.8 2.8 5.7 3.2 9.1 7.9 11 12.2l-.9.4c-1.8-4.2-5.1-8.7-10.7-11.8-.5.6-1 1.1-1.7 1.4.6.9 1 1.9 1 3.1 0 .6-.2 1.1-.3 1.7 4.7 1.8 9.6 4.7 14.4 9.9l-.7.6c.4.8.6 1.7.6 2.6 0 .4-.2.7-.2 1.1 2.2 1.7 4 4.3 3.9 8.2 0 .1-10-4.4-24.1-3-1.1.3-20.8 1-23.8-4 0 0-.2 11.6 11.3 14.6.7-.3 1.4-.7 2.1-1.1 8.1-4.3 23.1-12.4 45.7 3.7l-.6.8c-22-15.7-36.7-7.9-44.6-3.6-.8.4-1.5.8-2.1 1.1l-.3-.6c-.5.5-5.3 4.9-15.1 4.9 0 0 10.8 16.1 45.8 5 .1 0 .3-.1.6-.3-1.1-1.1-1.7-2.6-1.7-4.3 0-1.9.9-3.6 2.3-4.7-11.2-2.2-19.1 1.4-24.5 3.9-2.5 1.2-4.6 2.1-6.3 2.1-.3 0-.5 0-.8-.1l.2-1c1.5.3 3.7-.7 6.5-2 5.7-2.6 14-6.4 26.1-3.8.8-.4 1.7-.7 2.7-.7 3.4 0 6.2 2.8 6.2 6.2 0 .1-.1.3-.1.4 5-.5 10.8 1 15.4 8.3 0 0-.8.1-2.1.4.7 1 1.2 2.2 1.2 3.5 0 .8-.2 1.5-.5 2.3 2.6-.5 5.3-.8 8.4-1.1l.1 1c-3.4.3-6.4.8-9.1 1.3-1.1 1.7-3 3-5.3 3-.7 0-1.3-.2-1.9-.4-.3 3.2-3 5.8-6.3 5.8-1.9 0-3.5-.9-4.7-2.2-5 2.8-8.4 5.9-11 8.4-2.8 2.7-5.1 4.8-8.1 5.4l-.2-1c2.8-.6 4.9-2.6 7.6-5.2 2.7-2.5 6-5.6 11.1-8.5-.7-1-1.1-2.1-1.1-3.4 0-1.1.4-2.2.9-3.1-5.5 2.4-10.8 5.7-14.3 9.9-2 2.4-3.1 8.1-16 14 0 0 12.9 6.2 29.5.6l-.1-.3c6.2-1.9 10.1-6.9 13.9-11.8 5.1-6.4 9.8-12.5 19-10.1l1.5.4-1.5.5c-.2.1-16.4 6.2-23.8 24.1-4.3 9.9-5.4 12.7-6.1 14.2-.5 1.3-.7 1.8-2.2 4.9l-.9-.4c1.4-3.1 1.6-3.5 2.1-4.8.6-1.5 1.8-4.4 6.1-14.2 6.2-15.1 18.7-22 22.9-24-7.6-1.3-11.8 4-16.5 10.1-3.9 5-7.9 10.1-14.4 12.1l-.2-.6c-.2.2-11 13-4.1 34.5 0 0 4.8-8.6 15.3-14.1 2.7-1.6 9.5-8.5 12.4-22.7 1 1.4 2.3 2.9 4.2 4.5.1-1.9.7-3.3 1.8-4.1 2.3-1.5 5.8-.4 6.4-.2.4-.7 1-1.3 1.6-1.7 1.8-1.2 3.8-1 5-.8.5-.6.9-1.3 1.5-1.8s1.3-.9 1.9-1.3c.2-.1.3-.2.5-.3 1.8-1 3.3-1.5 3.5-1.5l1.1-.3-.5 1s-.5 1.2-1.2 3c-.2.6-.5 1.3-.7 2.1-.3 1-.6 2-.9 3.2-.3 2.1-.9 2.9-1.7 3.4-.4.2-.8.4-1.2.5-.2.1-.4.1-.7.2h-.2c-.7 0-2.2-.7-2.9-2-.6-1-.9-2.8.7-5.3-1-.1-2.5-.1-3.7.7-1.3.9-2.1 2.5-2.3 4.8l-1-.1c.1-1.1.3-2.1.7-2.9-.8-.3-3.7-1.1-5.4.1-1 .7-1.5 1.9-1.5 3.6h-.5c.8 1-9 14.4 9.7 15.8-1.6-3.3-1.8-6-.6-8 1.7-3 5.9-3.5 7-3.6.5-1.1 1.3-1.9 2.1-2.6 1-.9 2-1.4 2-1.4l.1.3c-.1.3-.2.5.1.5 0 0 .1 0 .1 0l.1.2c-.1 0-1.1.6-2.1 1.5-1.2 1.2-2.4 3-2 5.7l-1 .2c-.2-1.3-.1-2.4.2-3.3-1.4.2-4.4.8-5.7 3.1-1.1 1.8-.8 4.3.8 7.5l-.5.2c1.8.8 7.3 10.4 13.1 4.5.1.3.1.4.1.4s11.4-2.5 16.6-9.2c8 10.9 14.2 23.7 13.2 35.5-1 7.5-1.8 15.3 5 16.3 3.7.3 13.8-23.3-15.7-58.7 0-1.5-.1-3.1-.7-4.9 0 0 .1-.1.1-.2l-.6.1c0-.1-.7-3.4-4.2-4.3l.2-1c3.5.9 4.5 3.7 4.8 4.6 2.8-2.6 21.5-8.2 31.5-10.8-1.1 1.3-2.1 2.8-2.1 3.7 0 .3 6.1 1.8 8.3 1.8 0 0-.8 1.1-.8 2.4 0 0 10.6 2.1 24.1-4 2.5-1.1 7.1-2.1 10.8-6.5 2-2.1 12.5-6.9 16.6-7.4.8 0 1.4-.3 1.9-.6.7 4.2 2 11.3 3.6 12.1.4.1-.7 4 .5 8.1.7 2.2 2 4.5 4.6 6.2.6.3 2.2-.9 2.6-2 .3-.4.7 4.2 3 4.4.6 0 1.1-1.7 1.7-1.4.6.2 1.8 4.8 3.3 5 1 0 1.6-.6 1.8-1.7.1-.5 1.3 4.8 4.4 6 .6.3 3.5-1.1 3.5-1.7 0-.7 1.7 5.9 7.4 6.9 3.5-.5 5.2-3.9 6-5.9 8.3 58.9 38 68.1 38.2 67.6 3.5-4.4 4.8-16.7 3.8-17.1-5.2-1.8-18.5-15.3-18.5-15.3s11.7 26.4 11.5 25.8c-8.5-10.5-15-30.6-15.6-31.3-10.5-14.7-13.6-31.6-13.6-31.4-1.8 6.2-5.1 2.1-5.7 1.5.3-.8.4-1.3.4-1.2 0 .8 1.8 2.8 2.2 2.7 3.3-1.3 3.3-7.2 3.4-6.6.3 1.8 2.6 3.1 3.1 3 .5-.3 3-5.2 3.3-6.4-.1-.1-.1-.2 0-.3.1 0 0 .1 0 .3.2.3.7.7 1.8 1 1.1.6 3.1-3.8 3.4-3.7 0 .1.1.1.1.2-.2-.1-3.1 4.6-3.1 4.6s13.3 34.2 47.4 42c.4 0-5-34.1-37.4-53.8-.4-.3-.1 7.4-2.2 8.6-.6.1 13.7 15 32 36.5.3.6-22.8-22.5-36-37.3.9.6 1.7.7 1.9.6zm127.1 13c.9-.8 1.3-1.8 1.3-3.2h1c0 1.7-.6 3-1.7 4-.7.6-1.6 1-2.4 1.2-.4.1-.7.1-1 .2-.4 0-.8.1-1 .1 0 0-.1 0-.1 0-.3 0-.5 0-.5 0l.1-.6v-.4s.8 0 1.8-.1c.4-.1.8-.2 1.2-.3.4-.3.9-.5 1.3-.9zm-329.4-55c-7.3-19.7-5-39.9 6.3-56.9.2-.4.4-.6.5-.8l.9.5c-.1.2-.3.4-.5.8-8 11.9-11.3 25.4-10 39.2.1 1.1.2 2.3.4 3.4.7 4.5 1.8 9 3.4 13.5l-1 .3zm27.3 24.5s-1.2.1-3 .5c-.5.1-1 .2-1.6.4-.2 0-.3.1-.6.1-1 .3-2 .6-3.1 1-.8.3-1.6.6-2.3.9-1.3.5-2.5 1-3.5 1-.8 0-1.6-.3-2.2-1.2-1-1.5-.8-2.7-.4-3.4.4-.7 1.1-1.3 2.1-1.8 1.4-.8 3.4-1.2 5.7-1.2 1.3 0 2.6.3 3.8.6.1 0 .1 0 .2.1 2.8.8 5 2.2 5.1 2.3l1.2.8-1.4-.1zm1.2-7.5l.1-.3c.4-.9 1.8-2 3.4-2 1.2 0 2.8.6 4.2 3.3 1.8 3.2-.1 7.2-1.5 9.3-.5.8-.9 1.4-1 1.4l-.9-.5c0-.1.3-1.3-.1-2.8-.3-1.1-.8-2.5-2.2-3.8-2.6-1.9-2.3-3.4-2-4.6zm3.8 40.1c-.5 0-1.3-.1-2.1-.2-.9-.2-1.8-.6-2.6-1.3-1-.9-1.5-2.2-1.5-3.9h1c0 1.4.4 2.4 1.2 3.2.5.4 1 .7 1.6.9 1.4.5 2.8.4 2.9.4v1c-.1-.1-.2-.1-.5-.1zm4.9-11.8c-.5.5-1 .8-1.5 1-.9.5-1.7.8-2.3.8-.5 0-.9-.1-1.2-.2-1.4-.5-2.5-1.8-2.6-2.5v-.2c0-1.6.3-2.8 3.2-4.2.1 0 .1-.1.2-.1 1.8-.8 2.7-1.9 3.3-2.9.7-1.2.7-2.3.7-2.3l1-.2c.1.2.9 2.6 1 5.3 0 2-.3 4.1-1.8 5.5zm167.6-15.5c-.7.8-1.4 1.5-2.4 1.9-.2 0-.9-.9-.9-2.7 0-1.4.3-3.3 1.6-6 0-.2 0 4.2 0 5.6 0 .3 0 .5 0 .5 0 .2.1 0 .2-.3.6-1.4 2-6.8 2-7.5.1-.4 2.4-1.8 2.4-1.8s-.1 6.7-2.9 10.3zm-12.9-2.9V439.5H412v100.7c-3.7 3.1-7.6 5.9-11.8 8.6zm25.6-15c-.8-1.6 4.4-4.8 4.4-4.8s1.3 3 4 7.2c.3.1-7.5-1.3-8.4-2.4zm-2.9-3.6V439.5h11.9V515.4c-3.5 5.3-7.5 10.1-11.9 14.8zm9.2-3.4c-.2-.3-.2-.4-.1-.1.1 0 .1.1.1.1.7 1.2 4.1 6.5 6.2 7.1.7.1-3-4.8-3.2-7.9-.8-3.1.1-2.4.1-2.4s6.2 10.5 8.1 11.5c.7.4 0 3.8 3.2 6.7.6.2-8 1.8-14.4-15zm10.7-14.5s2.4-2.6 2.4-4.2c0 0 11.3 6.7 13.4 10.9 2.3 4 4.4 5.7 6.1 7.1.2.3-7.9 1.6-25-7.7-1.6-.8 1.6-3.7 1.7-4.1.1-.6 9.6 6.8 16.7 8.5.3-.1-15.3-10.5-15.3-10.5zm14.6-134.1l-.7 1 .6.5.8-1 2.6-3.5-.6-.5-2.2 3-1-3.3 4.1-6 1.2-.8h-.6l9.6-14c.6 1.2 1.2 2.4 1.8 3.5l-2.8 3.8.6.5 2.5-3.5c.5 1 1 1.9 1.5 2.8l-25.5 32.8c-.7-2.1-1.2-3.3-1.4-3.4l-.4-.2-.4.2c-.6.3-1.1.6-1.7.9l9.9-14.4 2.1 1.6zm-1.4-6.3l.3-.2-.3.3v-.1zm19.7-3.9l1.7-2.1c.2.3.3.5.3.5-2.4 9.9 4.7 18.8 4.7 18.8-9.8 9.3-11.6 19.5-11.9 19.5-7.5 0-14.2 2.2-17.5 3.5-1.1-5.4-2.3-9.9-3.2-13l25.7-33.1c.6 1.2 1.2 2.3 1.5 3l-1.9 2.3.6.6zm-23.1 169s3.7 1.1 7.2.4c1.1-.2 1.8 4 5.5 6.6.4 0-14.1 2.4-19.1-7.6-.7-1.3 9.2 5.8 14.2 5.8.4 0-6.8-3.6-7.8-5.2zm12.3 1.6s3 .8 4.7.3c.6-.1 3.8 3.7 6.1 4.4.3.2-7.5 4.2-10.8-4.7zm-9.9-10.9s6.8 1.1 11.7 1.1c.3 0 4.7 4.5 7.1 5.2 2.6.6-17.7 7.8-18.8-6.3zm-6.4 2.4c.3 0-7.3-8.4-7.3-8.4s6.9 3.6 11.2 5c.7.3 0 5.2 3.1 7.8 3 2.4-14.2 1-19-12.3-1.1-3.3 8.1 7.9 12 7.9zm-1 13.4s4.7 2 8.5 2c.7 0 .7 3.1 3.1 5.1.5.3-9.8-3.2-11.6-7.1zm12.2 3.1s3.3.7 5.1 0c1.1-.1 7.6 3.1 8.9 6.2.3.2-10.3 2.3-14-6.2zm22.8 1.9c.2.3-5.2 3.1-9.9-1.6 0 0 3 .6 5.5-1.4.1-.1.4 0 .7.2.8.6 2.2 2.3 3.7 2.8zm-.7-7.2c-2.2.4-5.9.3-8.6-3.8 0 0 2-.1 3.2-1.7.9-.6 4.6 1.3 6.6 4 .2.3.5.5.6.8 0 .2-.7.5-1.8.7zm8.2-6.8c.1.8-.1 1.2-.1 1.2-1 .1-2.1.1-3.1.1-8.4-.4-17-5.4-18-7.7-1.3-2.8-3.5-5.1-3.5-5.1 5.4 1.8 7.4 1.6 11.2 3.7 5.8 3.7 9.8 5.2 9.8 5.2-1.6-3.8-9.8-7.5-9.5-7.5 5.1 0 2-4.1 2-4.1 9.3 6.8 11 12 11.2 14.2zm-22.3-24.1c4.5-1.1 18 6.9 17.7 10.6-.4 1-2.8-1.7-6.8-2.5-5-1.2-12.2-7.9-10.9-8.1zm-1-2.8c.3 1.8-9.2-4-9.2-4s8.7-1.1 9.2 4zm-16.6-10.5s6.5 2.6 8.2 4.9c0 .3-7.1-.7-9.5-2-.7-.3 1.3-2.9 1.3-2.9zm-2.3 4.9c2 .7 11 3.6 16.3 8.6 2.1 1.8 6.2 7.1 12.2 9.7 5.9 3-12.5 2.3-15.4-2.4-1-1.4-9.8-9.1-13.6-11.2-.7-.3-1.1-.5-1.1-.5.3.1.7.3 1.1.5 2.5 1.2 9.5 4.7 22.4 12.9 0 0-11.6-11.6-22.1-15.9-.3.1.2-1.7.2-1.7zm2-19.7c-.1.4-.3.7-.4 1.1-.9 3-1.9 5.9-3 8.8-.4 1-.6 2-1 2.9V439.5h9.5c.3 13.2-.9 27.9-5.1 42.8zm7 5.6c-.2.1-4.5-2.1-4.2-3.7.3-.8 1.8-6.2 1.8-6.2l1.7 7.9.1-6.5s1.8-.6 1.8.3c0 .3 1 4.9-1.2 8.2zm1.6-11c0 .7-3.5 1-3.1-4 0-2.8 1.7-.6 1.7-.6l1.6-13.2c0 .1 1.5 9.3-.2 17.8zm.5-21.7s.3-3.4.2-6.1c-.2-1.6 4.5 7.9 4.5 7.9l-4.5-18.1v-4.5s8.5 13.6 5.8 24.2c-.2 1.2-4.8-.8-6-3.4zm5.1-32.5c3 1.4 4.1 0 4.5.7 4.3 4.8 1 14.1.4 14-7.9-3.4-9.8-8.2-9.9-10.1 0-2 1.1-3.9 1.1-3.9l7.6 11.6c.1 0-3.9-12.3-3.7-12.3zm10.6-6.7c2.8 1.3 1.3-1.1 1.7-1 6.9 5 4.1 12.9 3.5 12.7-7.9-3.1-10.8-8.7-10.8-10.5-.1-1.8 1.7-.1 1.7-.1l7.9 8.3c.1.1-4.2-9.5-4-9.4zm7.6 10.5c.7-2.5 2.7-.4 2.7-.1 3.5 5.5 1.8 14.2 1.3 13.9-7.9-3.2-11.3-7.4-11.3-9.3-.3-1.7 3.4-.6 3.4-.6l7.1 7.7-3.2-11.6zm6.4-9.6c-1.1-8.6 2.6-2.1 3.1-1.4 8.1 11.5 5.4 17.8 4.7 17.7-7.8-3.1-10.5-8.6-10.5-10.7-.3-1.6 1.4-1 1.4-1l8.1 9.3-6.8-13.9zm7.5-9.8c-4.9-6.2 2.4-2.7 3-2 9.6 10.3 9.5 19.5 8.9 19.4-8.4-2.2-14.6-10.2-15-11.9-.1-2 1.7-1.4 1.7-1.4l10.9 9.8-9.5-13.9zm-2.3-67.8c0-.3-.1-.5-.2-.6-.4-.5-1.4-.4-1.4-.4 1.6-1.6 3.2-2.8 4.6-3.8 3.6-2.5 6.4-3.2 8-3.3.4 0 .7 0 1 0 .3.1.5.1.5.2.1 10.3-12.4 12.9-12.4 12.6.8-4.1 8.1-9.6 7.8-9.6-3.3.1-7.9 5.6-7.9 4.9zm-4.2-10.7c-.3-.8.8-3.1.8-3.1.2-.4.4-.6.6-1 .6-1 1.2-2 1.9-2.7 4.8-5.8 9.7-5.1 9.7-4.5.7 11-13.3 20-13.3 19.8-.6-5.4 7.8-15.6 7.7-15.6-3.2 1-7.3 7.9-7.4 7.1zm34.5-1.5l1.1-6.2s12.4-5.4 17.8-3.5c.4 0-6.1 18.5-29.6 27.2 0 0 4.5-8.9 25.5-24.2.6-.2-6.2 1.8-14.8 6.7zM508.1 385c-2.1-3.4 1.4-2.3 2.4-2.1 13.7 3.2 12.3 8.8 12.3 8.8-8.2 7.4-26.6-6.2-14.4-3.1 2.4.6 11 1.7 11 1.7l-11.3-5.3zm-9.1-8.3c-1-.9 16.6-1.1 16.6-1.1s-4.1-1.5-6.8-1.8c-3.2-.5-8.3 0-8.3 0s9.8-9.2 20 2c.2.5-9.6 9.5-21.5.9zm9.8-9.8c1.4-5 11.2-6.7 9.9-6.8-6.4-1.1-8.6 2.8-9.1 2-1-2.8-6.1-2.2-6.1-2.2 6.5-3.8 20.7-2.7 19.8-.1-2.2 5.6-15.1 9.2-14.5 7.1zm-2.3-11c4-4 13.5-7.2 12-7.2-6.7-.6-10.3 3.1-9.9 2.4.3-1.3.4-2.8.4-2.8 6.5-3.8 15.1-3.8 14.7-1.4-1.5 7.7-19 10.4-17.2 9zm-3.8-12.9c16.1-14.1 16.7-18.1 16.5-18.1-5.6 1.6-10.2 8.3-9.9 7.3.2-1.9-1.1-2.7-1.8-3-.2-.1-.4-.1-.4-.1.2-.2.4-.4.6-.6 5.4-6.3 14.5-6.2 14.5-6-2.8 20.5-19.5 20.5-19.5 20.5zm4-21c-.9.8-1.8 1.5-2.8 2.3-.1 0 .3-.9.7-2.1.3-1 .6-2.2.5-3.1-.1-.7 8-9.4 14.6-16.3 4.6-4.8 8.5-8.9 8.5-8.9l-4 3-22.9 17.5s2.4-4.4 2.1-7.1c0-.3 7.1-7.2 14.6-12 .6-.4 1.1-.7 1.7-1 3.2-1.9 6.4-3.2 9.1-3.5.7-.1 1.3-.2 1.9-.1.1 0 .3 0 .5 0 3.1.8-3.6 13.9-24.5 31.3zm.2 23.5c2.4 3.7-4.4 6.8-7.9 9.1-3.3 2-5.5.6-4.4-.4 1.2-.9 2.6-5.1 2.6-5.1 0-.6 7.9-6.7 9.7-3.6zm-8 16.2c-1.6 1-3.1 1.1-3.7.4-.6-.7 0-2.5 1.5-3.5 1.3-1.1 3.1-1.3 3.7-.6.6 1-.1 2.7-1.5 3.7zm-3.7 6.8c.8-.3 5.2-.8 8.2-3.7l-3-1.4s4-2.6 6.6-.6c1.6.7-.6 7.1-11.3 8.4-1.3.1-1.3-2.4-.5-2.7zm1.9 15.5l6.1 1.4s-5.8-6.2-5.5-6.2c7.5-.1 8.2 7.4 7.6 7.5-8.1 2.3-9.5-.7-9.5-1.7-.3-1.9 1.3-1 1.3-1zm1.4 6.4c17.3 5.7 15.4 17 14.7 17-8.5 0-13-3.1-13.4-4.9-.7-2.1 0-5.2 0-5.2l10.8 6.5c-.1-.1-13.4-13.7-12.1-13.4zM471 436.1c2.1-5.8 3.5-1.1 4.1-.3 3.5 5.8.6 14.1 0 14-7.9-3.1-10.6-8.6-10.6-10.6-.3-1.7 1.6-1.2 1.6-1.2l8.1 9.3-3.2-11.2zm-5.1 47c-.6 1-5.1-2-4.8-7.6 0-2.3 3.1 4 3.1 4l-2-17.8s2-.3 2.7 1.1c1 1.2 4.5 9 1 20.3zm14-6.8c-15.3-7.7-12.2-17.1-12.2-17.1l10.9 14.6-7.9-15.6c-2.5-10.3-1.1-7.2 2.6-1.8 9 12.8 6.9 20.3 6.6 19.9zm8.9-7.4c-11.2-4.8-13.3-15.6-14.4-17.1-1.1-1.4 2.7 0 2.7 0l10.5 14.4-7.6-15.4c-2.4-10.3.7-5.5 3.1-2.1 9.1 12.9 6.3 20.5 5.7 20.2zm10.1-8.9c-11.6-4.1-15.7-14.7-15.8-16.4-.2-2 3-.4 3-.4l11.7 14-7.9-15.6c-.6-14.3 1.7-7.9 4.4-2.7 7.7 15.3 5.3 21.3 4.6 21.1zm11.3-9.2c-11.6-4-14.4-12.7-14.7-14.6 0-1.8 1.7-1.1 1.7-1.1l10.9 12.9-8.2-16.1c-1.3-10-2-11.3 4.1-1.3 9 14.3 6.9 20.4 6.2 20.2zm8.5-9.6c-7.9-2.8-11.2-8.1-11.5-9.9-.1-1.8 1-1 1-1l9.3 8.6-8.1-12.3c0-2.5 3-3.4 3.2-2.7 9.1 10.8 6.8 17.4 6.1 17.3zm9.8-13c-8.5 0-17.1-7.2-17.6-9.1-.4-2-1.4-3.7-1.4-3.7l16.4 9.1-13.3-10.3c-11.2-8.5 1.3-3.1 2.4-2.6 15.4 7.1 14.2 16.6 13.5 16.6zm6.2-12c-8.5 2.6-17.7-5.7-18.3-7.5-.8-1.8 15.1 5.1 15.1 5.1l-13.7-10c-5.9-4.1.4-2.6 1.8-2.3 15.5 6.4 15.6 14.5 15.1 14.7zm8.3-14c-8.2 8.9-36.7-8.8-24.8-5.8 2.4.3 21.4 4.4 21.4 4.4l-13.6-6.9c-3-7.7 2.4-4.2 3.5-4 17.2 7.3 13.5 12.3 13.5 12.3zm6.5-18.2c.3.1-11.3 12-32.3-1.7l29.6 1.7-24.6-4.5s-1.3-2.1 3.1-2.1c4 0 19.6-.7 24.2 6.6zm4.3-15c-5.5 6.8-16.7 6.5-29.7 4.8-4.1-.3-2.8-2.4-2.8-2.4l26.8-2.6-25.8-1.1c22.3-8 31.8 1.2 31.5 1.3zm2.7-18.9c-4 7.9-15.8 12-28.7 13.4-4.2.6-2.3-3.2-2.3-3.2l24.6-10.2-20 3c13.6-9.3 26.5-3.3 26.4-3zm3.4-23.7c-1.8 9.2-19.2 19.2-31.3 24.5-7.4 3.1-.8-4.7-.8-4.7l28.7-17.8-32.3 14.1c23.9-20.4 35.7-16.3 35.7-16.1zm3.9-16.9c.1 7.8-23.2 19.7-22.1 18.1 3.2-5.5 19.1-17.4 17.8-17.1-6.5 1-13.1 7.9-12.9 6.9.1-1.2-1-2-1-2 8-9.1 18.2-8.5 18.2-5.9zm5.1-24.1c1.4.2 3.3 7.5-20.1 23.9-1.4.8-7.7 5.5-13 5.4-1 0 25.2-19 29.9-26.3.4-1.1-10.2 6.1-22.3 15.3-1.4 1-12.5 9.3-15.3 10 0 0 25.5-20.4 28.9-24 1.6-1.6 8.3-4.9 11.9-4.3zm11.8-40.6c0-.3 9.9-5.8 14.1-6.9.7-.2 2.3 14.7-32.5 43.7-1.3 1-22.1 18.7-26 22.1-3.7 2.7-12.9 11.9-21.9 17.4-.7.4-1.4.9-2 1.2-1.4.8-2.8 1.4-4.2 2 0 0 4.8-3.7 10.4-9.1 1.3-1.3 2.6-2.6 4-4.1 1.3-1.4 2.4-2.9 3.6-4.4l2.5-3c.3-.5.7-1 1-1.4.9-1.3 1.8-2.7 2.6-4.1 0-.1.2-.3.6-.6.7-.6 1.9-1.8 3.6-3.3 11.5-10.4 43.2-38.9 51.7-50.2.1-.4-6.7 4.5-8.6 6.4-.2.1 1.8-3.7 1.1-5.7zm-65.1 40.6c1.5-1 3.1-2.2 4.6-3.3 5.9-4.1 12.3-8.5 19.7-13.2 4.7-3 8.5-5.6 12.4-8.1 1.2-.8 2.4-1.5 3.7-2.3 5.5-3.4 11.7-7 20.7-11.7 2.4-1.2 3.6 5.7-27.2 31.4-.7.6-1.6 1.3-2.3 1.9-3.8 3.1-7.9 6.4-12.7 10.1 0 0-.9-.8-2.2-1.3-.5-.2-1-.4-1.5-.4-.7-.1-1.5 0-2.2.4 0 0 2-1.6 5.2-4.2 1.5-1.2 3.2-2.5 5-4 8.4-6.8 19.9-16.3 25.8-21.9.2-.2.3-.3.5-.5 1.2-1.2 2.1-2.2 2.7-2.9.4-.5-9.5 6.3-20.2 13.9-1.4 1-2.8 2-4.2 3.1-6.3 4.6-12.5 9.2-16.5 12.4-1 .8-1.8 1.5-2.5 2.1-.5.4-1 .9-1.3 1.2-.8.7-5.9 3.9-12.1 7.6-1.3.8-2.6 1.5-4 2.3-8.5 4.9-17.6 9.8-20.3 10.2 0 0 9.8-9.1 28.9-22.8zm-35 30.5c9.3-8.1 21.9-11.9 22.2-11.8h.1c-1.8 7-8.3 14-9.9 14.4-.2 0-.4.1-.4-.1-.4-1.1 5.2-7.4 4-7.2-2.3.3-5 5.1-5.2 4.8-1.1-.9-8.7 1-11.7 1.8-.8.2-1.3.4-1.3.4.6-.9 1.4-1.6 2.2-2.3zM468.8 332c.7-2.2 1.7-4.5 3-6.9.1-.1.7-1.7 2.9-3.3.8-.6 1.9-1.2 3.3-1.7 2.5-1 5.9-1.8 10.7-1.8.6 0 1.2 2.9-.4 6.6-.7 1.5-1.7 3.1-3.2 4.7-.5.5-1 1-1.6 1.6 0 0 .1 0 .4.1.4.1 1.1.4 1.7 1 1.4 1.2 2.4 3.5-1 8.4 0 0 .2 0 .2 0 .1 0 .5-.1 1.1-.2 1.3-.2 3.1-.4 4.5-.1.4.1.8.1 1.1.2.1 0 .1.3.1.6.1 1.2-1.3 4.2-4.2 6.8 0 .1 1.9-.3 4-.4.4 0 .7 0 1.1-.1 1.2 0 2.3 0 3.2.3.4.2-1.2 4.4-6.1 7.5 0 0 3.4 1.1 4.2 2.4.1.7-3.6 4.8-4.2 5.1-.4 0 3.1 0 4.2 1.7.1.1-.6 3.1-3.4 4.4-.1.1 3 2.4 3.4 3.8 0 .4-.9 2.1-2.1 2.8-.1.2 4 3 4 5.5 0 .9-1.8 2-4 2-.6 0 3 4.2-1.1 4.2-.3 0 7.8 2.6 6.9 12.2 0 .7-7.4-.4-7.9-1-.6-.3 4.5 5.5 2.8 11-.2.8-5.5-.3-7.6-2-.6-.4 3 7.2 1.4 11.2-.1.6-6.9-1.8-11.2-8.9-.4-.6-.6 3.8-1.3 4.4-.7.7-7.1-1.1-7.4-1.7-.4-.6.7 6.6.1 8.3-.6 1.3-5.7-1.8-6.9-2.7-.4-.1-.4 3.4-1.5 4.1-.6.4-1.3-10.3-2.1-12.3 0 0 8.1-3.7 15-3.7 1 0 5.8-11.1 13.2-20.4.1-.3-5.8-9.8-5-19.7 0-.1-.2-.7-.6-1.7-.1-.2-.2-.5-.3-.8-.4-.9-.8-2-1.4-3.3-.2-.5-.5-1-.7-1.5-1-2.2-2.3-4.7-3.7-7.3-.4-.6-.7-1.3-1.1-1.9-.4-.6-.7-1.2-1.1-1.8-1.8-3-2.7-6.4-2.6-10.2.2-1.5.6-3.4 1.2-5.5zm-2.7 8.5c.3 2.8 1.1 5.3 2.2 7.5.6 1.2 1.2 2.4 1.8 3.5l-11 16h-4.4l-1.6-5 13-22zm-15.4 26.2l-.3 1h-.3l.6-1zm-2.6 4.4l1.1.8-2.3 6.8 5.5-3.8 1.1.8-12 17.5c-1.4.7-2.8 1.3-4.2 1.8-.3-1.2-.7-2.3-1.2-3.5l12-20.4zM432.4 383c-.9-1.6-1.8-3.2-2.7-4.7l12.2-27.6 3.7 2.8-1.8-6.8 4.7-3.4-2.3 4.7.7.3 2.5-5.1-.5-.2.8-.6h-4.1l9.1-20.6 4.6-3.3 4.6 3.3-31.5 61.2zm-18-1c1.1-.6 1.7-2.3 1.9-4.3.1.1.2.2.3.3.9 1.3 2.3 2.7 3.7 3.8.6.5 1.1.8 1.7 1.2.4.2.7.5 1.1.6.1.3.2.8.3 1.3.2 1 .3 2.2.4 3.6.1 1.5 0 3-.5 3.9-.2.4-.5.6-.9.7-.1 0-.1 0-.2 0s-.3-.1-.4-.2c-.4-.1-.8-.4-1.4-.9-.2-.2-.4-.3-.6-.5-.2-.2-.5-.6-.7-.9-.4-.5-.9-1-1.4-1.8-.8-1.1-1.7-2.5-2.7-4.1l-.1.1c0-.2 0-.5 0-.7 0-.2 0-.4 0-.6 0-.6 0-1.2 0-1.4l-.5-.1zm-23.4-3.1c.5-1.3 1-2.7 1.3-4.3.3.4.6.8.9 1.1 1.1 1.2 2 1.9 2.7 1.9.1 0 .1 0 .2 0s.2-.1.3-.2c.5-.2.9-.5 1.4-1 .1 1.4.2 2.9.2 4.2 0 1.2-.2 2.3-.4 3.2-.3.9-.6 1.6-1.3 1.8-.3.1-.6-.1-1-.1-1-.2-1.9-.8-2.8-1.9-.7-.9-1.3-1.8-1.8-2.5-.1-.2-.3-.5-.4-.7.3-.4.4-.9.7-1.5zm-2.5 3c-.3.2-.5.4-.8.5-.1 0-.1.1-.2.1-.3 0-.6-.3-.8-.4-.5-.3-1-.7-1.4-1.4-.5-.8-.9-1.7-1.2-2.7.3.1.7.3 1 .2.1 0 .2-.2.3-.2.6-.2 1.1-.7 1.5-1.4.7-1.2 1.2-2.7 1.4-4.5.1-.8.2-1.6.3-2.4 0 0 0-.1 0-.1s0 .1.1.1c0 0 0 0 0 .1.2.3.3.4.5.7.8 1.2 1.6 2.3 2.3 3.2.1.2.2.3.3.4-.2.7-.3 1.4-.5 2.1-.9 2.6-1.8 4.7-2.8 5.7zm9-7.6c-.3.6-.6 1.1-.9 1.5-.3.3-.5.5-.8.6-.5 0-1.5-1.1-2.5-2.5-.2-.3-.4-.6-.7-.9-.2-.3-.4-.5-.6-.8-.2-.3-.4-.5-.5-.8-.7-1-1.3-1.9-1.7-2.5-.4-.6-.8-1.2-1.1-1.7l-.1-.5-.6.1c-.6.1-.6.5-.7 1.4-.1 1-.2 1.7-.3 2.5-.4 3.1-1 4.8-1.6 5.5-.3.3-.5.4-.7.5-.3.1-.7-.1-1.1-.4-.2-.1-.5-.3-.7-.6-.6-.5-1.1-1.2-1.7-2v-.1s0 0 0 .1c-.2-.3-.4-.6-.6-.8-.3-.5-.6-.9-.9-1.5-.5-.9-1-1.8-1.4-2.7l-.2-.5h-.5c-.6 0-.7.4-1 1.9-.2.8-.5 1.9-.9 3.2-.4 1.3-1 2.6-1.7 3.7-.5.9-1.1 1.4-1.8 1.8-.2.1-.3.3-.5.4 0 0-.1 0-.1 0-.2 0-.4-.2-.6-.4-.8-.5-1.7-1.8-2.5-3.4-.6-1.3-1.2-2.6-1.5-3.9l-.1-.3c.3-.2.6-.4.9-.6.6-.5 1.2-1 1.8-1.6.4-.4.8-.8 1.2-1.2.3-.3.5-.6.6-.6l-.2-.3.3.1.1-.3-.2-.1c-.3-.2-.3-.1-1.1.7-.3.3-.6.5-.9.8-.6.6-1.2 1.2-1.8 1.6-.8.7-1.5 1.1-2 1.4-.6.3-1.1.4-1.4.2-1.2-1-1.2-3-.9-5.3 0 0 0 0 .1 0v-.1c0-.1 0-.1 0-.2H363.7v-.2l-.1-.1v-.2c0-.2.1-.4.1-.6 0-.2.1-.4.1-.6.1-.2.1-.5.2-.7h-.1l-.6-.1c0 .1 0 .2-.1.3-.1.2-.1.5-.2.7-.1.5-.2 1-.3 1.4-.2.2-.3.2-.5.3-.6.4-1.1.7-1.4.8-.2.1-.4.1-.4 0-.5-.5-.7-1.1-.7-1.8 0-.2 0-.5.1-.7 0-.2.1-.5.2-.8 0-.1.1-.3.1-.4.1-.3.2-.6.3-1 .2-.6.4-1.2.5-1.8 0 0 .1-.1.1-.1.5-.4.9-.9 1.4-1.3.2-.2.5-.5.7-.7.9-.9 1.7-1.8 2.5-2.7.6-.7 1.2-1.3 1.7-2 .3-.3.5-.7.7-1-.4 2.7-.4 5.1 1.1 6.4.2.1.5.2.7.2.7 0 1.6-.5 2.5-1.1.6-.5 1.3-1 1.8-1.5 1.4-1.4 2.6-2.7 2.6-2.8l-.1-.5h-.5l.3.2-.3-.2c-.4.5-1.2 1.3-2.1 2.2-.6.6-1.2 1.1-1.8 1.6-1.1.9-2.2 1.6-2.7 1.2-1.6-1.3-1.2-4.3-.5-7.4.7-1.2 1.4-2.5 1.8-3.8.1.9.3 1.7.6 1.9.1 0 .2 0 .3.1.2.1.3.1.5.1.4 0 .9-.2 1.4-.4.1-.1.3 0 .4-.1.5-.3 1-.6 1.4-1 .1-.1.2-.2.3-.3 1.3-1.2 2.4-3 2.3-4.9h-.7c.1 2.5-1.8 4.6-3.7 5.5-.1 0-.1 0-.1.1-.9.5-1.6.5-1.7.3-.1-.1-.2-.7-.3-1.5 0-.3-.1-.7-.1-1.2 0-.3 0-.7-.1-1.1 0-.6 0-1.3 0-2 0-.6.1-1.1-.1-1.7.7 1 1.5 1.9 1.9 2 0 0 .1 0 .1 0 .6 0 1.3-.6 1.9-1.5.2-.2.4-.4.5-.7.1-.1.1-.3.2-.4.6-1.2 1.5-3.7-.1-6.3l-.6.4c.9 1.4.8 2.9.6 4-.2.8-.5 1.5-.7 1.9 0 0 0 0 0 .1-.7 1.2-1.5 1.8-1.8 1.8 0 0-.1-.1-.2-.2-.4-.3-1.1-1.2-2.2-3-.2-.3-.4-.6-.6-1-1.4-3.7-3.7-6.6-6.3-8.9-.7-.7-1.5-1.3-2.2-1.8-.9-.6-1.8-1.2-2.7-1.8-.3-1-.6-1.9-1-2.7.7 0 1.2-.1 1.9-.1.3 0 .7.2 1.1.2.7.1 1.4.3 2 .4.4.1.7.1 1.1.2.8.2 1.7.3 2.5.6.3.1.7.3 1.1.4.6.2 1.2.5 1.8.8.7.3 1.4.5 2 .8.5.2.9.3 1.4.6l1.1.6-.1-1.2c0-.3-.4-6.2-3.3-10-.6-.8-1.3-1.4-2.1-1.9-.5-.3-1.1-.7-1.7-.9-2.5-.9-4.3-1.8-5.7-2.7-1-.7-1.7-1.3-2.3-1.9-1-1.1-1.3-2-1.4-2.2 0-.3.2-1 .8-2 .4-.6.9-1.3 1.7-2 .3-.2.4-.5.8-.7 1.4-1 3.5-1.9 6.5-2.5.6-.1 1.2-.2 2-.3 2.3-.2 5.1-.2 8.3.1.5 0 1 .1 1.5.2 2.1.3 4.4.6 6.9 1.2.5.1.9.3 1.4.4.5.1 1 .3 1.5.4 1.1.3 2.2.6 3.3 1 .3.1.5.2.8.3 1.4.5 2.7 1 4.1 1.6.6.3 1.3.5 1.9.8 2.3 1.1 4.7 2.3 7 3.6.6.3 1.2.7 1.8 1.1 1.1.7 2.2 1.3 3.3 2 .1.1.2.1.3.2h-.3l-3.6.4-1 .1.9.5 1.1.6c2.6 1.4 4.3 4.2 5.6 8 .3 1 .6 2 .9 3.1.2.7.4 1.5.5 2.3 0 .2-.1.4-.1.8-.2 3.2-.6 5.3-1.1 6.4l-.2.1c-.1.1-.2.2-.2.5-.2.2-.5.2-.7.2-.1 0-.1-.1-.2-.1-.5-.1-.9-.3-1.4-.6-1.2-1-2.4-2.9-3.5-5.1h-.1c.3-1.4.5-3.2.6-4.9 0-.4 0-.7.1-.8l-.3-.1.2-.3-.2-.2-.2.1c-.2.1-.2.1-.3 1.2-.3 4.8-1 7.3-2 7.3-.1 0-.1 0-.2 0-.3 0-.6-.1-.9-.2-.8-.3-1.4-.7-1.8-1.3-.3-.4-.5-.7-.5-.8l-.7.2c.1.3.4 1 1.1 1.6.4.4 1.1.8 1.9 1 .3.1.6.2 1 .2.1 0 .2 0 .3 0 .9 0 1.4-.8 1.8-2.1.2.4.4.7.6 1 .1.1.1.2.2.3.9 1.5 1.8 2.8 2.8 3.5.4.3.9.5 1.4.5.1 0 .2.1.3.1.2 0 .4 0 .6-.1 0 .1 0 .3 0 .4-.2 1.8-.6 6.7-1.9 6.7-.2 0-.3-.1-.5-.1s-.3 0-.5-.1l.1-.1-.2-.1-.2.1c-.2-.1-.4-.4-.5-.5-1.3-1.1-2.6-3-3.7-5l-.6.3c1.2 2.2 2.6 4.3 4.1 5.4.2.1.3.4.5.4 0 .1 0 .3 0 .5-.3 4.8-1 7.2-1.9 7.2 0 0-.1 0-.1 0-.3 0-.7-.1-1-.2v-.1h-.1c-1.1-.5-1.9-1.5-2.3-2.2-.2-.3-.3-.4-.4-.6.2-1.6.4-3.5.6-5.4.1-.7.1-1.4.1-1.5l-.3-.1.3-.2-.2-.2-.2.1c-.3.1-.3.1-.4 1.9-.2 2.4-.7 9.3-2.4 10.4-.1.1-.3.2-.5.2-.1 0-.1 0-.2 0-.5 0-.9-.2-1.3-.4-.3-.1-.6-.1-.8-.2-.9-.6-1.4-1.5-1.7-2.1-.2-.3-.3-.6-.5-.7l-.1.1c.5-1.5.8-3.9.9-6.2 0-.4 0-.7.1-.7l-.3-.1.3-.2-.2-.2-.2.1c-.2.1-.2.1-.3 1.1-.4 5.4-1.1 6.9-1.8 7.2-.1 0-.2.1-.2.1-.1 0-.1 0-.2 0-.6 0-1.1-.2-1.6-.5-1-.6-1.6-1.5-1.7-1.8l-.7.2c.1.5 1 1.8 2.4 2.5.5.2 1 .4 1.6.4.1 0 .1 0 .2 0s.1 0 .1-.1c.5-.1 1-.4 1.3-1.1.1.1.1.2.2.3.4.6.9 1.6 1.8 2.2.3.7.7 1.4 1.1 2.2.5.9 1 1.7 1.6 2.5.6.7 1.1 1.3 1.8 1.6 0 .2 0 .4 0 .7-.1 1-.2 1.9-.3 2.7 0 .3-.1.5-.1.8 0 .3-.1.5-.1.7 0 .2-.1.5-.1.6-.1.5-.2.9-.4 1.2-.3.7-.5 1.2-.9 1.2-.2 0-.4-.1-.6-.2v-.2h-.6c-.7-.3-1.3-.7-1.8-1.4-.5-.6-.9-1.2-1.3-1.9-.1-.2-.2-.5-.4-.7-.1-.3-.3-.5-.4-.8-.1-.2-.2-.4-.3-.7l-.7.3c.1.1.1.2.2.3.1.3.3.5.4.8.1.3.2.5.4.7.6 1.2 1.3 2.2 2 2.9.4.4.8.7 1.2.9 0 .1-.1.3-.1.4-.3 2.2-.6 3.8-1.1 5.1-.2 1.4-.4 2-.6 2.4zm-17.4.5c-.1.6-.3 1.3-.4 1.9-.6 2.2-1.1 3.9-1.7 5.2-.2.5-.5 1-.7 1.4-.3.5-.6.7-.9.9-.2.2-.4.5-.6.5-.1 0-.1 0-.2 0-.4 0-.8-.2-1.2-.5-.8-.6-1.5-2-2.1-4 .6-.2 1.2-.4 1.6-.9.7-.7 1.3-1.6 1.8-2.7.4-.8.7-1.7 1-2.6.3-.8.5-1.5.7-2.3.1-.3.2-.7.2-.9.5 1 1.2 2.1 2 3.2.1.4.3.6.5.8zm-38.6 13.5c0 .3 0 .6.1.8l-.3-.1c-.1.1-.5.6-1.1 1.2-.2.2-.4.4-.6.6-.3.3-.6.5-.9.8-.4.3-.8.7-1.2 1-.6.5-1.2.8-1.8.9-.1 0-.2 0-.2 0-.2 0-.4 0-.5-.1-.5-.4-.7-1.1-.8-1.8-.1-1.2.2-2.7.6-4.2.1-.2.1-.5.2-.7 0-.1.1-.3.1-.4.1-.2.3-.5.4-.7.9-1.5 1.7-2.9 2.7-4.4.3-.5.7-.9 1-1.3.3-.4.6-.8 1-1.2-.2.8-.4 1.6-.5 2.3-.2 1.6 0 3.1 1.1 4 .2.1.4.2.6.2 0 0 0 .1 0 .1.1.8 0 1.9.1 3zm-33 151.7c-3.4 8.8-11.2 4.9-10.6 4.8 2-.7 5.4-4.8 6.1-4.4 1.4.6 4.5-.4 4.5-.4zm-8.9-4.5c2.6-.6 6.8-5.2 6.9-5.2 5.2 0 11.7-1.3 11.7-1.3-.7 14.1-21 7.3-18.6 6.5zm13.8 3.6c3.7.7 7.6-.6 7.6-.6-1.1 1.4-8.2 5.1-7.9 5.1 5.1 0 15-6.9 14.3-5.7-5.4 9.9-19.7 7.5-19.5 7.4 4-2.5 4.7-6.4 5.5-6.2zm4.6-3.2c3-2.3 2.1-7.4 3-7.7 4.4-1.7 12-4.9 12-4.9s-8.6 8.2-8.2 8.2c4 0 13-9.8 11.6-6.4-6.2 12.6-21.5 13.5-18.4 10.8zm14-20.3v-76.1h11.7v90.7c-4.2-4.6-8.2-9.4-11.7-14.6zm.7 5.3c-17.1 9.2-24.2 6.9-23.9 6.8 1.4-1.8 3.8-3.2 6.1-7.5 2.1-4.1 11.7-8.9 11.7-8.9 0 1.8 1.7 2.8 1.7 2.8s-15.1 11.2-15 11.2c7.2-1.4 16.4-9.1 16.6-8.5.3.4 4.7 3.1 2.8 4.1zm-7-12c-2.7.8-12 8.9-13.2 10.8-3 4.4-21.4 5.2-15.3 2.6 5.8-3 9.5-8.5 11.9-9.9 4-2.6 12.2-6.7 14.2-7.4 0 0 1 .8.4 1.1-10.3 4-22.6 15.7-22.5 15.7 16.5-10.8 24.5-12.9 24.5-12.9zm3.6-114c-1.6-.6-3.3-1.4-4.9-2.2l-28.4-41c1.9-4.4 2.6-10.3.3-17.7l4.9 8.3c-.9 3.1-.6 6.1.9 8.9 0 .1 3.5 6.8 9.4 8.5l19.1 32.3c-.5 1.1-.9 2-1.3 2.9zm-44.4-31.4s1.7-.9 3.9-2.6l27.8 35.4c-.9 3-1.9 7.1-2.9 12-3.3-1.3-9.9-3.5-17.5-3.5-.1 0-1.8-10.2-11.7-19.5-.2 0 3-11.7.4-21.8zm5-3.6c.8-.7 1.6-1.5 2.4-2.4l3.2 4.3.6-.5-3.3-4.5c.8-1 1.5-2 2.2-3.2l25.6 37c-.3-.2-.6-.3-1-.5l-.4-.2-.4.2c-.2.1-.9 1.7-1.7 4.3l-27.2-34.5zm17.8-60.9c1.3-.9 2.7-1.8 4.3-2.8l4.3 11.3c-2.6-.1-5.7-.4-10.3-1.2l-2-4.5c.8-.8 1.8-1.6 3-2.4l1.5 3.6.7-.3-1.5-3.7zm21.1-9.4c1.6-.4 3.2-.8 5-1.1l6.3 24.7c0 .1-.1.1-.1.1-1.1 2.1-1.4 4.7-1.1 7.6-.3.2-.6.4-.8.7l-1.2-4.2-.8.2 1.4 4.8c-.8 1-1.6 2-2.4 3.3l-11-34.5c1.3-.4 2.6-.9 4.1-1.3l.2.6.8-.2-.4-.7zm29.2 13.1c-1.4 1.7-1.8 3.1-1.9 3.7-.2 0-.5 0-.8.1-1.1.1-3 .3-5 .6l-4-20.4c3-.3 6.1-.4 9.4-.4l2.3 16.4zm-.3-16.5c2.7 0 5.5.1 8.4.2l1 11.7c-3.4.6-5.7 1.6-7.2 2.8 0 0-.1.1-.1.1l-2.1-14.8zm1.2 48.5c.1-.6.3-1.1.4-1.8.2-1.8.1-3.5-.1-5.2.8.5 1.7 1.1 2.5 1.8l3.4 24.1c-.8 1-1.6 1.9-2.6 2.8l-.5-3.1-.8.1.6 3.6c-.5.5-.9.9-1.4 1.4l-3.6-18.5c.6-1 1.2-2.2 1.6-3.4v.2l.8-.1-.3-1.9zm5.1-3c2.5 2.5 4.5 5.6 5.5 9.6.8 3.3-.5 6.7-2.8 10.1l-2.7-19.7zm-7.9 30.7c-.5.4-1.1.9-1.6 1.3l-4.6-17.9c.2-.1.2-.3.5-.4 2.1-.7 3.8-2.1 5.3-3.8l3.6 18c-.8.7-1.6 1.4-2.4 2.1l-1.1-5.1-.8.2 1.1 5.6zm-32.5-6.5l-.5.3c.9-.8 1.8-1.8 2.7-2.9l2.9 6.5c-1.3.8-2.7 2.6-3.9 4.8l-3.6-7c.6-.4 1.2-.8 1.8-1.3l2.4 5 .7-.3-2.5-5.1zm16.3-27.7h-.2c.2-.3.4-.6.6-1 .8 2.2 1.8 4.4 3.2 6.9l.8 1.4.1-1.6s.1-.8.4-2l1.8 7c-.6.5-1.2 1.1-2 1.5-.4.3-.7.4-1 .7l-.6-2.1-.8.2.7 2.3c-1 .6-1.8 1.2-2.3 1.6l-3.4-10.5c.7-1.3 1.3-2.6 2-3.8l1.4 4.9.8-.2-1.5-5.3zm7.9 9.4l-2-7.9c.5-1 1.2-2.1 2.2-3.1l.6 2.8.7-.2c0 .2.1.3.1.5.4.6.9 4.5-1.6 7.9zm.3 7.1c0 .3-.1.6-.2 1-.6.9-.8 1.9-1 3-.1.7-.3 1.4-.5 2.1-.1.4-.3.7-.5 1-.4.6-1.1 1.1-2.1 1.5-.3.1-.5.3-.9.4-.4.1-.6.2-.9.4-1 .4-1.7.8-2.2 1.3.1-1.3 0-2.4-.2-3.4-.3-1.4-.6-2.7.2-5.2 0-.1.1-.3.1-.4.3-.6.7-1.2 1.3-1.7.5-.5 1.3-1 2.3-1.7.2-.1.5-.3.7-.4.5-.3.8-.5 1.4-.9.6-.4 1.1-.8 1.6-1.2.2-.2.4-.3.6-.4.1.4.1.8.3 1.2 0 .9.2 1.9 0 3.4zm-9 .2c-.6.8-1 1.8-1.6 3.5-.3.8-.7 1.8-1.1 3-.2.5-.4.8-.5 1.3l-3.6-9.3c.5-1 1-2.2 1.6-3.4.6-1.4 1.4-3 2.2-4.6l3 9.5zm-4.5 10.2c-1.1 2.1-1.8 2.5-3.7 3.5-.3.1-.7.3-1 .5l-3.2-7c1.3-1.7 2.7-3.8 4-6.1.1-.1.1-.3.2-.4l3.7 9.5zm-9.8 12.8c.2-.6.5-1.1.8-1.7 1.2-2.3 2.6-4.3 3.7-5.1.1-.1.2-.2.3-.3.4-.2.7-.3 1-.5.3-.2.7-.4 1-.5 1.8-.9 2.8-1.5 3.7-3 .4-.6.8-1.4 1.2-2.3.3-.8.7-1.5 1.1-2.6.2-.6.4-1 .6-1.6.1.7.2 1.3.3 1.8.3 1.3.5 2.7-.1 5.1-.2.5-.3.9-.4 1.4 0 .1 0 .1 0 .2-.2.9-.4 1.8-1 2.7-.5.7-1.3 1.3-2.4 1.9-.2.1-.4.3-.7.4 0 0 0 0-.1 0-.5.2-1 .5-1.5.7-.4.2-.9.4-1.3.6-.8.5-1.6.9-2.3 1.4-.2.2-.5.3-.7.4-.5.4-1 .8-1.5 1.2-.4.3-.8.7-1.2 1-.6.6-1.2 1.2-1.6 1.6.3-.9.7-1.9 1.1-2.8zm9.6-2.9c.1 0 .1 0 0 0l.4.8.7-.3-.4-.9c1.1-.5 1.8-1.1 2.4-1.7l4.3 11.3c-1 1-1.3 1.5-1.3 1.9-.7.8-1.3 1.6-1.9 2.4l-5.7-12.7c.6-.3 1-.6 1.5-.8zm4.5-4.2c.2-.6.4-1.2.5-1.7.4-1.7.8-2.9 3-3.7l4.6 14.4c-1.5 1.2-2.7 2.2-3.5 3l-4.6-12zm5.3-6.2c.9-.4 1.6-.8 2.1-1.3l.7 2.3.8-.2-.8-2.8c.9-1.2 1.2-2.6 1.4-3.8.1-.7.3-1.1.4-1.6l4.5 17.5c-1.8 1.4-3.3 2.6-4.6 3.6l-4.5-13.7zm13.8-21.8c0 .1-.1.2-.1.4-.3 1.7-.8 3.3-1.5 4.7-.3.7-.7 1.5-1.1 2.1-1.4 2-3.2 3.4-5.4 4.2-.2 0-.3.1-.4.2-.2.1-.3.1-.4.2.1-.7.1-1.3 0-1.8-.1-.6-.2-1.2-.3-1.7-.2-.8-.3-1.4-.2-2.2.6-.8 1.2-1.7 1.5-2.5.2-.5.4-1 .5-1.5.7-2.8.4-5.1.2-5.6-.3-1.6-.7-3-1.1-4.1.2-.1.3-.2.5-.3.5-.3 1.1-.4 1.7-.6.1 0 .2-.1.3-.1.3-.1.5-.2.8-.3.2-.1.4-.2.6-.2.1 0 .2-.1.4-.1.7-.2 1.5-.2 2.2-.3 0 0 .1 0 .1 0 .3.6.7 1.1.9 1.8.1.2.1.4.1.6 0 .1 0 .2.1.3.1.3.1.6.2.9.3 1.4.4 2.9.4 4.5 0 .3 0 .9 0 1.4zm-9.1-25.4c-2.8.7-5.6 2.1-7.6 4.4l-6.1-23.7c3-.6 6.2-1 9.6-1.3l4.1 20.6zm-24.2 34.2c-.6.7-1.2 1.3-1.8 1.9l-5.2-11.4c.3-.3.6-.6.9-.9.4-.4.8-.8 1.2-1.2l1.9 4.5.7-.3-2-4.7c1-1 2-2 3.1-3.2l4.2 11c-.8 1.3-1.7 2.5-2.5 3.6l-.6-1.5-.7.3.8 1.9zm-6.8 4.5c-.3 0-.6.1-.9.1-.4 0-.8 0-1.2-.1-.4-.1-.6-.3-.9-.5L313 342c-.1-1.5.1-3 .7-4.5l1.7 3.5.7-.3-2-4.2c.4-.8.8-1.4 1.3-2 .3-.3.7-.8 1.2-1.2l5.1 11.3c-1 .7-1.9 1.2-3 1.5l-.1-.2-.7.2zm7.2-21.4c1.8-2.2 3.3-4.4 4-6.6.4-.6.7-1.2.8-1.8l3.6 11.4c-.7 1.2-1.4 2.4-2.2 3.7-.8 1.3-1.5 2.6-2.3 3.8l-3.9-10.5zm3.1-13.8c-1.1-1.1-2.5-2-3.8-2.3-2.1-.6-4-.8-5.9-.9l-4.8-12.4c2.4-1.3 5.1-2.5 8.2-3.7l6.3 19.3zm-23.8-4.8c-1.1-.2-2.3-.5-3.5-.8.5-.6 1.2-1.4 2.1-2.3l1.4 3.1zm.7 1.6c.6.1 1.2.2 1.8.3 1.5.2 2.8.4 4 .6.3 0 .6.1.9.1 1.8.2 3.4.3 4.8.4.1 0 .3 0 .4 0 .8 0 1.5.1 2.2.2 1.6.1 3.2.3 4.9.8 1.4.4 3.8 1.8 4.5 3.8.3.8.2 1.5-.1 2.3-.2.5-.3.9-.7 1.4 0 0 0 0 0 .1-.4.5-.7.8-1 1.2-.2.3-.5.6-.7.9-.8.9-1.4 1.6-2 2.2-.6.6-1.1 1-1.6 1.4-1.4 1.1-2.4 1.3-3.6 1.6-1 .2-2.2.7-3.7 1.5-.4.2-.8.4-1.3.7-.2.2-.4.2-.6.4 0-.1 0-.2.1-.3.1-.3.1-.6.2-.9.3-.8.5-1.7.5-2.4.1-1.5-.1-2.9-.9-4.1-.4-.7-1.1-1.1-1.7-1.6-.7-.5-1.4-1-2.2-1.4-1.7-.7-3.5-1.2-5.3-1.4-.2 0-.4-.1-.5-.1-1.3-.1-2.5-.2-3.5-.2-.3 0-.4 0-.7 0-.5 0-1 0-1.3 0 0 0 0-.1 0-.1 0-.1-.1-.3-.1-.4-.1-.3-.1-.7-.1-1.1 0-.2 0-.5 0-.8 0-.2.1-.4.1-.5 0-.4.1-.8.2-1.2.1-.3.1-.6.3-1 .2-.7.7-1.5 1.2-2.3.2-.3.2-.6.4-.9.1-.1.1-.2.2-.3 1.7.4 3.3.8 4.9 1.1zm-1.4 9.2l1.8 3.7.7-.3-1.6-3.3c2.2.3 4.1 1.1 5.6 2.1l2.4 5.4c-.2 1.4-.8 2.9-1.7 4.6-.1.1-.2.1-.3.2l-1.9-4-.7.3 2 4.2c-.8.7-1.5 1.4-2.2 2.1l-8-15.4c1.3.1 2.6.2 3.9.4zm4.9 16.4c.9-.9 1.8-1.8 2.8-2.8 0 0 .1-.1.1-.1l.2.2c1.1-1 2-1.6 2.8-2.2.5-.3.9-.6 1.3-.8 1.4-.8 2.5-1.1 3.5-1.3 1.2-.3 2.3-.6 3.8-1.6v.1c-1.8 2-3.7 3.8-5.3 5.4-.2.2-.4.3-.6.5-.4.4-.8.7-1.1 1.1-.7.6-1.2 1.2-1.6 1.7-1.4 1.6-2.3 3.8-2.6 6-.2 1.1-.2 2.2 0 3.2.1.5.1 1.1.3 1.6.4 1.1 1 1.8 1.8 2.4.6.4 1.1.8 1.8.9.1 0 .2 0 .3 0 .9.1 1.8.1 2.7-.1.3-.1.5-.2.8-.2 1-.3 2-.8 2.9-1.5.4-.3.8-.6 1.2-.9.6-.5 1.2-1.1 1.8-1.8.2-.2.4-.5.6-.7.9-1.1 1.7-2.2 2.5-3.4.4-.7.9-1.3 1.3-2 1-1.6 1.9-3.2 2.9-4.8.5-.9 1-1.7 1.5-2.6.5-.8.9-1.5 1.4-2.2 1.2-1.8 2.3-3.5 3.5-4.7.2.9.5 1.9.8 2.9-1 1.5-2.1 3.4-3.2 5.4-.4.8-.8 1.6-1.3 2.5-.9 1.9-1.9 3.9-2.9 5.9-.4.8-.7 1.5-1 2.2-.4.9-.8 1.7-1.2 2.4-.3.5-.5 1.1-.7 1.4-1.2 2-2.3 3.7-3.5 5.3-.3.5-.7.9-1 1.3-1.5 1.9-3.1 3.3-4.6 4.4-.4.3-.8.6-1.2.8-1.8 1-3.5 1.7-5.2 1.7-.3 0-.6-.1-.9-.2-1-.1-1.9-.4-2.8-.9-4.3-2.2-6.9-7.1-7-7.2-1.1-2.1-1.5-4.2-1.1-6.5.1-.9.4-1.7.7-2.6.9-2.2 2.4-4.5 4.6-6.9.2-.5.5-.9.9-1.3zm5.4 26.9c.1 0 .1 0 .2 0 1.9 0 3.8-.7 5.6-1.8l4.1 7.9c-1.1 2.3-1.8 4.7-1.8 6.5v.5l.5.2c.1 0 .2.1.3.1.1 0 .4-.3.5-.4l2.2 4 .7-.4-2.3-4.1s0 0 .1 0c.5-.5 1.2-1.3 2.1-2.1l7.8 15.2c-.9 1.5-1.6 2.9-2.3 4.4l-17.7-30zm13.3 9.2c.4-.4.9-.8 1.5-1.2l1.6 3.2.7-.3-1.6-3.4c.7-.5 1.4-1 2.3-1.4l6.1 13.4c-1 1.4-2 2.9-2.8 4.3l-7.8-14.6zm14.2 15.2c-.5-.5-.7-1.1-.8-1.8-.2-1.5.3-3.5.9-5.5 0 0 .1-.1.1-.1.4 0 .8-.2 1.2-.2.7-.1 1.3-.2 2-.4 1.4-.4 2.6-1 3.7-1.6-.4 1.8-.7 3.7-.4 5.2-.2-.1-.3.1-1 .8-.1.1-.3.3-.4.4-.4.4-.9.9-1.6 1.4-.6.5-1.2 1-1.8 1.4-.2.1-.5.3-.7.4-.5.1-.9.2-1.2 0zm.7 1.7c0-.2.1-.5.1-.7 0-.1 0-.2.1-.3.1 0 .3-.2.5-.3.2-.1.5-.3.7-.4.6-.4 1.2-.7 1.9-1.3.5-.4 1-.9 1.6-1.4.2-.2.4-.4.7-.6.3-.3.6-.6.6-.6l-.2-.3h.2c.2.6.6 1.1 1 1.6.4.3.9.2 1.5 0 .2-.1.4-.1.6-.2-.1.4-.1.8-.2 1.2-.1.4-.1.7-.2 1.1h-.2c-.2.3-1.1 1.3-2.2 2.5-.5.5-1 1-1.5 1.5-1.2 1.1-2.3 2-3.2 2.3-.1 0-.3.2-.4.2-.2 0-.3 0-.4-.1-1.3-1-1.1-2.9-1-4.2zM349 376c.1-.6.2-1.1.4-1.6.4-.2.7-.4 1-.6.5-.3.9-.6 1.3-.9 0 0 .1 0 .1-.1.1 1.9.4 5.1 1.8 6.4 0 0 .1 0 .2.1-.4.4-.8.7-1.3 1-.7.5-1.2.8-1.7 1-.3.1-.7.2-.9.1-1.4-1.1-1.3-3.3-.9-5.4zm-1.1 13.8c.1-.4.1-.9.2-1.3h-.1c.4-.4.7-.8 1.1-1.1.7-.8 1.4-1.5 1.9-2.1-.1 1.8.2 3.3 1.4 4.1.3.2.6.3 1 .2.5-.1 1.1-.4 1.8-.9.3-.3.7-.6 1.1-1 .2-.2.4-.4.6-.6.1-.1.2-.2.4-.4-.1.5-.1.7-.1 1.2 0 .1 0 .1 0 .2-.2 1.2-.5 2.4-.4 3.3-.2.2-.3.3-.5.5-.6.6-1.1 1.1-1.6 1.6-1 .9-1.8 1.6-2.4 2.1-.8.5-1.4.9-1.7.9-.3.1-.6 0-.7-.1-1.6-1.1-2.3-3.9-2-6.6zm8.7-3.5c-.2.2-.4.4-.6.7-.4.4-.7.7-1.1 1-.6.5-1.2.9-1.6 1-.1 0-.1 0-.2 0s-.3 0-.4-.1c-1-.8-1.2-2.4-1-4.3.1-1.1.3-2.2.5-3.3.1-.1.3-.2.4-.3.6-.4 1.2-.9 1.8-1.5.2.1.4.3.7.3.5 0 1-.3 1.5-.4-.1 1.8.1 3.3 1.2 4.1 0 0 .1 0 .2.1.2.1.4.3.7.3-.1.2-.3.4-.5.6-.4.5-.9 1.1-1.6 1.8zm0-8.3c-.2.1-.5.1-.7.2-.3 0-.5.2-.8.2-.1 0-.2-.1-.3-.1-.1 0-.2 0-.3-.1-.2-.2-.4-.6-.6-1-.2-.6-.4-1.4-.6-2.2-.2-1-.3-2.2-.3-3.2v-.5l-.4-.2c-.5-.3-.9 0-1.9.7-.2.2-.6.4-.9.6-.5.3-1.1.7-1.7 1.1-1.1.6-2.4 1.2-3.8 1.6-.4.1-.8.2-1.3.3-.2 0-.4.1-.6.2.3-.3.8-.8 1.5-1.5.8-.7 2-1.7 3.5-3 .5-.4 1-.8 1.6-1.3 1.1-.9 2.5-2 4-3.2.2-.1.3-.2.5-.4.5-.4.8-.6 1.3-1 .1-.1.2-.2.4-.3 0 0 .1-.1.1-.1 1.4-1.1 2.8-2.3 4.2-3.5.1-.1.1-.1.2-.2 0 .2-.1.3-.1.5 0 .1-.1.2-.1.3-.2.6-.4 1.2-.5 1.8-.1.3-.1.5-.1.8 0 .3 0 .5 0 .7 0 .8.2 1.5.9 2.1.3.3.7.3 1.1.2.4-.1.9-.4 1.4-.7.1 0 .1-.1.2-.1 0 .4 0 .6 0 1l.7 3.3c.2.3.3.8.6 1 .2.2.5.3.9.3 0 0 .1 0 .1 0-.3.4-.6.8-1 1.3-.4.4-.8.8-1.3 1.3-1.1 1.1-2.5 2.1-4.2 2.8-.2.1-.4.1-.6.2-.2.1-.5.1-.7.2-.3-.2-.4-.1-.4-.1zm11.5-91.4c2.9.2 5.9.5 9.1.8l.3 10.6c-3.3-.3-6.1-.3-8.4-.1l-1-11.3zm10.5 1c2.9.4 5.9.7 9 1.3l-.3 10.9c-.4-.1-.8-.2-1.1-.3-2.7-.6-5.1-1-7.3-1.2l-.3-10.7zm10.2 12.6l.3-11.1c2.9.5 5.8 1 8.9 1.7l-1 12.3c-2.7-1.2-5.5-2.2-8.2-2.9zm46.5-.9l.2-.7c1.3.2 2.5.3 3.8.5l-2.5 8h-3.7l.7-2.3-.8-.2-.7 2.5h-1.5l-1.2-3.4 1.5-5.7c1.2.2 2.4.3 3.6.5l-.2.6.8.2zm22.2 3l1-2.3c1.5 0 3 0 4.4-.1l-2.8 6.4-.6-2-1.8 7.1h-3.8l1.6-3.9-.7-.3-1.7 4.2h-2.7l5.8 4.1-12.2 26.9h-1.6l-.7-2.2.5-1.3-.7-.3-.2.4-1.2-3.8 13.6-35.2c1.3 0 2.5-.1 3.8-.1l-.8 2 .8.4zm-29 67.7l-1.4 3.4c-.3-.6-.7-1.1-1-1.7L436 346l.9.6-2.1 6.8.9-.7-.6 1.5.7.3 1.2-2.8 3.2-2.5.6.4-11.9 26.7c-.5-.7-.9-1.5-1.3-2.3l1.7-4h-.8zm8.9-27.6l2.6-6.7-1.7 6.7h-.9zm-2.1 0h-4.4l3.4 2.5-9.5 24.6c-1.2-2.9-2.1-5.9-2.9-9.1l19.3-61.1c3.4.3 6.9.6 10.4.7l-16.3 42.4zm-32 21c0-.3.1-.5.1-.8.1-.9.2-1.8.2-2.7 0-.2 0-.3 0-.4 0 0 .1 0 .1 0 .1.4.5 1.6 1 3.3.1.3.2.6.2.9.1.3.1.5.2.8.1.2.1.4.2.6.3 1.1.6 2.2.8 3.4.4 1.9.7 3.7.9 5.3l.7-.1c0-.1 0-.2 0-.3-.1-.7-.1-1.4-.3-2.1-.2-1.5-.6-3.1-.9-4.6-.2-.8-.4-1.5-.6-2.2-.1-.3-.1-.5-.2-.8 0-.1-.1-.2-.1-.3-.1-.2-.1-.4-.2-.6-.4-1.4-.8-2.6-1-3.2.4.9.9 1.7 1.4 2.6.1.3.3.5.4.8.2.3.4.6.6.9 0 .1.1.1.1.2.1.2.3.4.4.6.7 1 1.5 1.9 2.4 2.5-.1.3-.2.7-.2 1.4 0 1.9 0 6.9-2.2 7.6-.3.1-.7-.2-1-.3-.2-.1-.4 0-.7-.2-.3-.2-.6-.6-.9-.9-.4-.4-.8-.8-1.2-1.4-.7-.9-1.3-1.9-1.9-3-.2-.3-.3-.7-.5-1-.2-.5-.5-1.1-.7-1.6.2 0 .3.1.4.1.2 0 .4-.3.6-.4.5-.4.9-1 1.1-1.9.1-.4.2-.9.3-1.4.4-.3.4-.6.5-.8zm-2-6.8c-.6-.7-1.1-1.7-1.6-2.8-.1-.1-.1-.2-.2-.4.1 0 .2 0 .3 0 .5.2 1 .3 1.6.2.1 0 .2-.1.3-.1 1.2-.3 2-2.2 2.5-4.8.5.7 1.2 1.7 2.4 2.3 0 .1 0 .3 0 .6-.4 5.9-1.3 7.2-2 7.3-.2 0-.4-.1-.7-.2-.2 0-.3 0-.4-.1l-.1-.1c-.1 0-.1-.1-.2-.2-.6-.3-1.3-.9-1.9-1.7zm7.2 8.2c-.2-.2-.4-.5-.6-.8-.2-.3-.4-.6-.6-.9-.4-.6-.8-1.3-1.1-2-.3-.6-.6-1.1-.9-1.7 1.3-.9 1.8-4.3 2-7.7 0-.1 0-.3 0-.4.2.1.5.1.8.1.1 0 .2 0 .2 0 .2 0 .4-.2.6-.3.1.3.3.7.5 1.2.4 1 1 2.5 1.5 4.2.1.5.3 1 .4 1.6.4 1.6.7 3.4.9 5.3h.7c0-.2-.1-.4-.1-.6-.2-2.2-.7-4.2-1.2-6-.7-2.6-1.5-4.7-2-5.6-.1-.1-.1-.3-.2-.4.2-.2.3-.6.4-1 .4-1.1.7-2.7.9-4.5.1-.6.1-1.1.2-1.7 0-.1 0-.2 0-.3.1 0 .1 0 .2 0 .3.1.6.1.9.1.2.6.7 1.6 1.5 2.3.1.1.2.2.4.3.4.3.9.4 1.5.4.4 0 .8-.1 1-.4.7-.7.9-2.5.9-4.5.1.6.2 1.3.2 1.9.1.5.1 1.1.2 1.7h-.1l-.1.1c-.2.2-.2.5-.2 2.5 0 .5 0 1.3 0 2.1 0 2.3-.1 5.2-.8 5.6l-.2.1c-.1 0-.3-.1-.4-.2-.3-.1-.8-.4-1.3-.9-.6-.6-1.4-1.6-2.3-3.1-.1-.2-.3-.5-.5-.8-.3-.5-.6-.9-.9-1.5-.1-.2-.2-.4-.2-.4l-.6.4s.1.2.2.4c1.5 2.9 2.9 4.7 4 5.8.5.4.9.7 1.3.9.1 0 .1.1.2.1-.1.4-.1.9-.2 1.8-.1 1.6-.4 4.3-.9 6.5-.1.3-.1.5-.2.8-.1.2-.1.5-.2.7-.4 1.1-.9 2-1.5 2-.1 0-.1-.1-.2-.1-.5 0-1-.2-1.4-.4-.1-.1-.3-.1-.4-.1l-.1-.2-.4-.4-.3.1c-.2-.7-.9-1.3-1.5-2.1zm8.3-26.9c.1 1.6.4 6.6-.6 7.7-.2.2-.4.2-.5.2-1.8 0-2.6-1.9-2.9-2.7 1-1.1 1.4-4 1.6-6.9 0-.4.1-.7.1-1 .8-1 1.2-3.1 1.4-5.5.4 2.2.7 4.6 1.1 7.1-.3 0-.3.1-.2 1.1zm-3.9 30.5c.1 0 .2.1.4.1 1 0 1.6-1.1 2.1-2.6.1-.2.2-.4.3-.7.1-.2.1-.5.2-.8 0 0 0-.1 0-.1 0-.1.1-.3.1-.4.4-1.8.6-3.9.8-6 .1-.7.1-1.5.2-1.8 1.5-.5 1.5-4.3 1.3-8.4.2 1.7.5 3.4.8 5.1 0 .3.1.5.1.8.3 1.9.7 3.7 1.1 5.6.3 1.2.6 2.4.9 3.6.4 1.6.9 3.3 1.5 4.8.4 1.1.8 2 1.3 3.1.1.2.1.4.2.5.4.8.6 1.7 1 2.5l-.2-.2-1.2-1.2-4.3-4-1.6-1.5-.1-.1v.4l-.1 1.1c-.5 6.1-1.3 6.7-1.5 6.8 0 0 0 0-.1 0s-.4-.3-.6-.5c0 0-.1 0-.1-.1-.4-.4-.8-1-1.3-1.7-.2-.3-.4-.6-.6-.9-.4-.7-.8-1.4-1.2-2-.3-.5-.5-1-.8-1.4l-.1-.2c.7 0 1.1.2 1.5.2zm16.2-47.3l1.5-5.2 2.9 1.9-12.2 38.6c-.3-1.6-.7-3.2-.9-4.8l.9-3.2-.8-.2-.5 1.6c-.3-2-.5-4-.8-5.9l7.3-28.1 1.9-1.2 1.5 1h-.1l-1.6 5.4.9.1zm3-9.7l4.3-3.1-2.7 8.5-1.6-5.4zm-3.3-10.3l-.4-1-1.8 6.9H423l1.2-5.4-.8-.2-1.3 5.5.3.1h-3.1l5.7 4.4-2.1 6.7 1.8-1.2-5.9 22.9c-.5-3.8-.9-7.4-1.5-10.7l.7.2 1.3-5.5-.8-.2-1.2 5.3c-.5-2.6-1-4.9-1.7-7.1l5.1-25.7c2.8.6 5.8 1.2 9 1.7l-.9 3.3zm-14.3 18.1c-.8-1.9-1.9-3.6-3.1-4.8l.1-.8 3.7-.5-1.6-1.1c-.6-.4-1.1-.7-1.7-1.1l.3-2-.8-.1-.3 1.7c-1.1-.7-2.2-1.4-3.3-2.1l2-14.8c1.4.4 2.7.6 4.1 1 1.6.4 3.4.8 5.1 1.2l-4.5 23.4zm-8.4-11.8c-2.4-1.3-4.7-2.5-7.1-3.5l1-12.7c2.6.6 5.3 1.3 8 1.9l-1.9 14.3zm4.6 6.2zm-11.9 61.2c.5-1.2 1-2.7 1.3-4.7.8 1.7 2 3.6 3.2 5 .4.5.8.8 1.3 1.2.4.3.8.7 1.3.9 0 .5 0 1.1-.1 1.6-.1 1.5-.3 2.7-.8 3.4-.2.3-.4.5-.6.6-.3.1-.7 0-1-.1-.5-.1-.9-.3-1.4-.7-.6-.5-1.1-1-1.6-1.7-.2-.3-.4-.6-.6-.9-.3-.5-.6-.9-.9-1.4l-.2.1c0-.5-.1-.9-.1-1.3s-.1-.7-.1-1.1c.1-.3.2-.6.3-.9zm6.3 9.6c0-.5 0-1 0-1.3.4-.3.6-.9.8-1.4l.5-2.1c0-.2.1-.4.1-.7 0-.5.1-1 .1-1.6.1 0 .2 0 .3 0 0 0 .6 1.6 1.2 3.8.3.9.5 1.8.8 2.9.6 2.4 1.2 5.1 1.3 7.3 0 .1 0 .2 0 .3h.7c0-.6-.1-1.3-.2-1.9-.1-1.1-.4-2.3-.6-3.4-.1-.4-.2-.7-.2-1.1-.2-.9-.4-1.7-.6-2.5-.3-1-.6-2-.8-2.8-.4-1.1-.6-2-.8-2.4.1 0 .2.1.3 0 .1 0 .1-.1.2-.1l.1.2c.2.3.4.5.6.8.4.5.8 1 1.1 1.5.4.5.7.8 1.1 1.2.2.2.4.4.7.5.4.3.9.5 1.4.5.1 0 .1.1.2.1.2 0 .4 0 .5-.1 0 .3 0 .6 0 1.2 0 .7 0 1.7 0 2.8 0 3.5-.3 8.2-2.2 8.7-.1 0-.2 0-.3 0-.1 0-.2-.1-.3-.1-.5-.1-1.1-.4-1.8-.9-.3-.3-.6-.5-1-.9-.2-.2-.4-.4-.6-.6-.3-.3-.6-.7-.8-1-.4-.5-.8-1-1.1-1.5-.4-.5-.8-1.1-1-1.6l-.1.1c.3-1.4.4-2.8.4-3.9zm8.8-3c-.2.1-.3 0-.5 0-1.1 0-2.2-1-3.2-2.3-.4-.5-.7-1-1.1-1.6-.1-.1-.1-.2-.2-.3l-.1-.2c.2-.1.4-.2.5-.4 1.5-1.5 1.9-4.3 1.9-6.6.3.6.6 1.1.9 1.6.4.7.8 1.3 1.1 1.9.2.3.4.6.6.8.5.6.9 1.1 1.3 1.4.2.1.4.2.5.3 0 2.7-.5 5-1.7 5.4zm9.6 1.6c-.1-.2-.2-.2-.3-.2v.1c-.3-.2-.7-.4-1.1-.6-.5-.3-1.1-.7-1.6-1.2-1.4-1.2-2.8-2.6-3.7-3.9-.1-.1-.2-.2-.2-.3l-.2.1c0-.2 0-.5 0-.7.1 0 .2.1.3.1.2 0 .4-.2.6-.3 1-.7 1.6-2.5 1.9-6.1 0 0 0-.1 0-.1l4.2 4 1.5 1.5 1.6 1.5c.2.8.7 3.4-.1 5.1-.3.7-.8 1.1-1.5 1.4-.2.1-.6 0-.9-.1-.2-.3-.3-.2-.5-.3zm1.6.8c.4-.1.6-.4.8-.7 1-.8 1.5-2.1 1.5-3.4 0-.9 0-1.6-.1-2.2l.7.7s0 0 0 .1c.3.5.6 1 .9 1.5.9 1.5 1.7 3.1 2.6 4.7.3.5.6 1.1.8 1.6.1.2.2.5.3.7.2 1.5.1 2.7-.3 3.5-.3.7-.7 1.2-1.4 1.5-.1 0-.1.1-.2.1-.4.1-.9 0-1.4-.1-.5-.1-.9-.3-1.4-.6-1.1-.6-2.1-1.5-3-2.7-.2-.3-.5-.6-.7-.9l-.2.1c0-.2-.1-.5-.1-.7 0-.3-.1-.6-.1-1-.2-1.1-.3-1.8-.4-2.3.8.3 1.3.3 1.7.1zm39.4-62.9l-1.4-5.2 5.9-4.2h-7.4l-1-3 3.8-8.6c4.3-.3 8.2-1 11.8-1.9l-11.7 22.9zm41.3-114.1c1.7.8 3.6 1.2 5.6 1.2 1.6 0 3-.3 4.5-.8.2 3 1.4 5.8 3.4 7.9L490 271.9c-1.1-1.5-2.3-3.2-3.5-5.2l2.4-5-.7-.3-2.1 4.5c-1.1-2-2.3-4.1-3.3-6.6l5.3-11.9 1.9 3.9 1.8-6.4 4.7-.6-.9 1.8.7.3 1.1-2.2 1.4-.2-1-.6 1-2.1-.7-.3-1 2-4.4-2.6 2.1-7.3-.7.7 11.7-27zm-23.9 50.3c-.9-2.3-1.8-4.7-2.5-7.4l1.8-4.3 5.7-.2.1.3-5.1 11.6zm11.6-57.3c1.6 0 3.2-.3 4.7-.8 1.3 3 3.5 5.5 6.3 7.1l-13.4 30.1-2 1.9-3.9-2.6.5-1.2-.7-.3-.4 1-1.5-1 .9 2.6-1.1 2.7.7.3.8-1.9 1.2 3.4-4.4 3.6-.5-.2-.4.9-.1.1h.1l-1.2 2.9c-.2-.8-.3-1.7-.6-2.6 0-.2-.1-.4-.1-.6-.3-.7-.4-1.2-.6-1.5 0 0 0 0 0-.1-.3-.7-.5-.6-.9-.5-.2-.2-.5-.4-.9-.7l16.5-42.8c.3.1.6.2 1 .2zm-82.4 14.7l5.1 4.7-1.1-6.8 4.3-2.4-2.6 19.1c-1.6-.2-3.3-.3-5.3 0-3.3.4-5.6 1.9-6.9 4.2l1.3-16.1 5.2-2.7zm-5.1 1.3l.5-6.1 1.8 1.7-2.3 4.4zm16.3 20.9c-.9 1.1-2.8 1.5-4.8 1.6-.7 0-1.3 0-2 0-.4 0-.8 0-1.1-.1-.9-.1-1.7-.2-2.8-.4 0 0-.1 0-.1 0l-.7-.2.1 1c0 .5.1 1.2.2 2.1 0 .2.1.3.1.5.1.4.1.9.2 1.3l.3 1.9v.1c-.1 0-.1 0-.2 0-.4-.1-.7-.3-1-.4-.7-.3-1.5-.6-2.1-1-.3-.2-.5-.4-.7-.6-.7-.6-1.3-1.2-1.7-2-.1-.2-.3-.4-.4-.7-.5-1.1-.9-2.2-1-3.6.4-3.5 3-5.8 7-6.3 1.1-.2 2.2-.3 3.2-.3.7 0 1.2.2 1.9.3.7.1 1.4.1 1.9.3 1.2.4 2.3 1 3.3 1.7.1.2.2.3.3.5.1.2.2.3.3.5.4 1.7.5 3-.2 3.8zm1 .8c.3-.4.4-.8.5-1.2 0-.1 0-.1 0-.2 0-.2 0-.4 0-.5 0-.3.1-.5 0-.8.2.3.4.7.6 1.1.1.2.2.3.3.5 0 .1.1.2.1.3.1.3.2.6.4.9.9 2.8.9 5.6.9 6.6-1.1.2-2.2.3-3.1.4-.3 0-.5.1-.8.1-2.4.2-4.3.3-5.6.3-.8 0-1.5-.1-2-.1-1.1-.1-1.6-.3-1.9-.4 0-.1 0-.2-.1-.3 0-.2-.1-.5-.1-.7 0-.3-.1-.5-.1-.8l-.5-3.5c1.2.2 2.3.4 3.4.5.7.1 1.3.1 2 .1 1.1 0 2-.1 2.8-.2 1.5-.7 2.6-1.2 3.2-2.1zm-17.8 7c2 3.1 3 6.1 3.2 9.1-.4-.1-.7-.1-1.3-.2-1.3-.2-2.8-.4-4.3-.7l1-12c.3 1.3.7 2.6 1.4 3.8zm.8-.5c-.5-.9-.9-1.9-1.2-2.8.1.2.4.4.5.6.4.5.8 1 1.4 1.5.2.2.3.5.6.6.2.1.4.2.6.3.6.4 1.2.6 1.9.9.5.2.9.4 1.4.5.2.1.4.2.7.2 0 0 .1 0 .1 0v-.1.1c.8.1 1.4.2 2.1.2.1 0 .2 0 .2 0 .3 0 .6.1.8.1.3 0 .6 0 .9 0 .6 0 1.2.1 1.7.1 1.3 0 2.5-.1 3.9-.3.3 0 .6-.1.8-.2 1.1-.2 2.4-.5 4-.8h.3c.8-.2 1.5-.3 2.3-.4.5-.1 1-.2 1.6-.3 4.8-.9 9.1-1.6 13-2.1.5-.1 1.1-.2 1.6-.2 2-.2 3.8-.4 5.5-.6.3 0 .6 0 .8-.1 2-.2 4-.3 5.7-.4.7 0 1.4 0 2.1 0 6.7-.1 11.3.6 14 1.8.7.3 1.3.6 1.7.9.4.3.7.6.9.9.1.1.2.2.3.3.1.2.1.4.2.7 2.1 6.4 1.7 11.2-1.1 14.2-.3.3-.7.4-1 .6-.1.1-.2.1-.3.2-1.7 1.4-4 2.3-6.7 2.8-.7.1-1.5.3-2.2.3-3.8.4-8.3.2-13-.4-.6-.1-1.3-.2-2-.3-1.6-.2-3.2-.4-4.8-.7-.3 0-.5-.1-.8-.1-1.5-.3-3-.6-4.6-.9-.5-.1-1-.2-1.5-.3-1.8-.4-3.6-.8-5.3-1.2-.3-.1-.5-.1-.8-.2-1.7-.4-3.3-.8-4.9-1.2-.5-.1-1-.2-1.4-.4-1.4-.3-2.8-.7-4.1-1-.6-.1-1-.3-1.6-.4-.3-.1-.5-.1-.8-.2-1.8-.4-3.5-.9-5.1-1.2-.7-.2-1.3-.3-1.9-.4-1.2-.3-2.4-.6-3.5-.8 0-.1 0-.2-.1-.3.4-3-.7-6.2-2.9-9.5zm71.2-59.4c.7 7.3 6 13.5 12.9 14.9l-16.2 42.1c-2.6-1.1-7-2-14.1-1.9l2.9-9.1 3.5 5.4.7-6.5 7.2-1.8-6.6-3 .8-7.5-2.3 2.9 11.2-35.5zm-17.7 2.4c2 .8 4.1 1.2 6.3 1.2.1 0 .2 0 .3 0l-.6 2.1.8.2.7-2.4c2.9-.2 5.6-1.1 8-2.6l-11.7 37.2-5.4-2.5.7-2.5-.8-.2-1.6 5.4.8.2.7-2.4 3.1 5.8-4.8 5.1 4.7-.8-2.8 8.9c-1.8.1-3.7.2-5.8.4l.2-.7-.8-.2-.3 1c-1.7.2-3.6.4-5.6.6l13.9-53.8zm-9.5-8.9c.3.7.7 1.4 1.1 2h-.1l-1.3 5.5.8.2 1.1-4.9c1.7 2.4 4 4.2 6.6 5.5L444.3 241c-3.9.5-8.3 1.2-13.1 2.1l4.4-22.3 2.7-.8 3.5 4.3-.7-.2-1.3 5.5.8.2 1.2-5.5.7.8-.1-6.6.7.2.2-.8 6-2.5-5.1-1.4.2-.9-.8-.2-.2.9-1.3-.4v-7.5l-3.8 6.4-1-.3 6.3-31.7c2.4-.2 4.7-1 6.7-2.2zm-7.9 40.4zm-16.1-44.2c1.9 2.1 4.2 3.9 6.9 5l-.2 1 .8.1.2-.9c2.1.8 4.4 1.3 6.8 1.3.5 0 .9-.1 1.4-.1l-6.2 31.2-4.5-1.3 3.8 4.9-.5 2.6-3 4.1 2.4-.7-4.4 22.1c-.8.2-1.5.3-2.4.4.3-2.6-.2-5.1-1.1-7.1-.3-1-.8-1.9-1.3-2.9l.5-3.2-.8-.1-.4 2.4c-.3-.5-.7-.9-1.1-1.3l-.5-.6-.1.1c-1.1-.9-2.4-1.3-3.7-1.7l2.8-20.8 4.6-34.5zm-15.4 3.7c5.2 0 9.9-2 13.6-5.1l-4.9 35.5-5.4-.7-1.1-7.4-2.8 6.8-3.5-.5 2.3-28.9c.6.2 1.2.3 1.8.3zm-19.5 26.3l.7-27.1c2.2-.9 4.2-2.1 6.1-3.6 2.6 2 5.6 3.4 9 4l-2.3 28.8-1.9-.3 1.8 1.7-3.6 44.5c-3.4-.5-7.1-1-11-1.4l1.2-46.2.8-.5h-.8zm-8.8-25.4v3.5h.8V179c2.5 0 5-.5 7.3-1.3l-.7 26.6h-5l-1.6-4.9-.8-2.3-2 7.2h-4.3l-.7-26.8c2.2.8 4.5 1.3 7 1.4zm-.1 65.8v5.6c-1.6-.1-3.3-.2-4.9-.4l-1.2-43.6 2.9 2.1-2.3 6.9 5.5-4.1v5.1h.8v-4.6l4.9 3.6-2.1-6.9 3.8-2.6-1.2 45c-1.8-.2-3.5-.4-5.4-.5v-5.6h-.8zm-14.3-71.5c1.8 1.5 3.7 2.9 5.9 3.9l.8 27.3h-1.3l1.4 1 1.2 44.5c-1.9-.1-3.8-.2-5.7-.3l-.2-3.8h-.8l.2 3.7c-1.5-.1-3.1-.1-4.6-.2l-3.5-41.3 2-1.9-2.1.3-2.4-28.9c3.3-.6 6.4-2.2 9.1-4.3zM355 214.5l5.3 2.6 2.7 32.2c-3.4 0-6.9 0-10.4.1l-5.5-39.5 4.3 2.5-1.3 6.8 4.9-4.7zm3.1-3.1l1.6-1.5.5 5.8-2.1-4.3zm-3.3-33.4c.7 0 1.4-.1 2.1-.2l2.4 28.9-3.1.4-3.3-6.8-.7 7.4-5.4.7-4.9-35c3.7 2.9 8.1 4.6 12.9 4.6zm-22.7 1.5l.2 1 .8-.1-.2-1.2c2.8-1.2 5.2-3.2 7.1-5.6l10.6 75.9c-3.8.2-7.6.5-11.4.9l-5.5-27.8.4.1-.5-.7-1.5-7.7 2.7-3.2-3.2.9-6.2-31.2c2.4 0 4.6-.5 6.7-1.3zm-.7 39.6l-1.5-2.2.9-1.1.6 3.3zm-16-41.1c2.5 1.5 5.3 2.4 8.4 2.7l6.3 31.7-2.6.7-4-6.2.1 7.1-.3.1-.2-.9-.8.2.2.9-5.7 1.9 6.6 2.8-.3 6.8 4.1-5.2 4.7 1.5 5.6 28.5c-2 .2-3.9.4-5.9.7l-1.1-5-.8.2 1.1 4.9c-1.7.3-3.3.6-4.9.9L309 185.4c2.8-1.8 5-4.4 6.4-7.4zm-16.7 10.1l1.2 4.3.8-.2-1.2-4s.1 0 .1 0c2.9 0 5.6-.8 8-2.1l17 66.5c-2.1.4-4.1 1-6.1 1.5l-.6-2-.8.2.6 2c-1.7.5-3.5.9-5.1 1.4l-8.1-25.2 4.5.8-4.5-5.4 3.4-5.7 1.4 4.8.8-.2-1.6-5.4-.8.2.1.3-5.9 2.3-11.8-36.9c2.5 1.6 5.4 2.6 8.6 2.8zm-10.3-1.7l10.7 33.4-2.5-2.8 1.3 7.4-6.6 3 7.2 1.8.6 6.8 3.3-5.8h.2l8.4 26.3c-3.6 1.2-7 2.7-10.2 4.4L276.9 199c5.7-1.8 10.3-6.7 11.5-12.6zm-20.6 12.7c1.4.4 2.8.7 4.3.7 1 0 1.9-.1 2.8-.3l23.8 62.2c-3.5 1.9-6.9 4-9.9 6.5l-10.3-22.8.4-.9 7.2.4-5.4-4.4.7-2 .8 2 .7-.3-1.2-2.8 1.4-3.9-2.5 1.5-.6.3v.1l-3 1.8-3.7-2.8-12.6-28c3.3-1.6 5.8-4.2 7.1-7.3zm-17.8 8.1c.2.1.3.1.5.2l.6 1.2.7-.3-.2-.5c.9.2 1.8.3 2.8.3 1.9 0 3.6-.4 5.3-1l12.1 26.8 1.9 5.7-5.9 3.8 7.4.8 1.4 6.5 1.4-3.4 9.9 21.8c-2.9 2.5-5.5 5.5-7.9 8.6l-32.7-63.3c1.4-1.9 2.5-4.4 2.7-7.2zm-22.1 7.2c2.3 2.8 5.7 4.8 9.5 4.8 3.4 0 6.4-1.4 8.7-3.5l32.8 63.5c-1.2 1.8-2.4 3.6-3.5 5.5l-1.2-2.1-.7.4 1.5 2.7c-.8 1.6-1.5 3.2-2.1 4.9l-45-76.2zm45.6 78c.1-.1.1-.3.2-.4.6-1.7 1.4-3.2 2.2-4.8.1-.3.3-.6.4-.9.4-.7.6-1.6 1-2.3.3-.5.6-1 .9-1.4.4-.7 1-1.3 1.4-2 .3-.5.6-.9 1-1.4.3-.5.7-1 1-1.5.6-.8 1.3-1.6 2-2.4.2-.2.4-.5.6-.7 0 0 .1-.1.1-.2.1-.1.2-.2.3-.3 1.2-1.3 2.4-2.5 3.8-3.7.4-.3.7-.8 1.1-1.1 1.2-1 2.6-1.8 3.9-2.7.2-.1.4-.3.5-.4 1.7-1.2 3.5-2.3 5.4-3.3.6-.3 1.2-.6 1.8-.9 3.2-1.6 6.6-3.1 10.1-4.3.6-.2 1.2-.5 1.8-.7 1.7-.5 3.4-1 5.1-1.5.3-.1.5-.1.8-.2 2-.5 4-1.1 6-1.5.5-.1 1-.2 1.5-.3 3.8-.7 7.6-1.3 11.5-1.8.5-.1 1-.1 1.5-.2 3.8-.4 7.6-.7 11.4-.8.7 0 1.3-.1 2-.1 3.5-.1 6.9-.1 10.4-.1.7 0 1.3 0 2 0 1.6 0 3.1.1 4.6.2.3 0 .5 0 .8 0 1.9.1 3.8.2 5.7.3.5 0 1 .1 1.5.1 3.8.3 7.5.6 11 1 .5.1 1 .1 1.5.2 3.9.4 7.6.9 10.9 1.4.7.1 1.3.2 1.9.3 1.4.2 2.9.4 4.2.6 1.4.2 2 .3 2.4.3 1.1.2 2.4.5 3.6.8.7.1 1.2.3 1.9.4 1.6.4 3.3.8 5 1.2.3.1.5.1.8.2.6.2 1.2.3 1.8.4 1.2.3 2.5.6 3.8.9.5.1 1 .2 1.4.4 1.6.4 3.2.8 4.9 1.1.3.1.5.1.8.2 1.8.4 3.5.8 5.3 1.2.5.1 1 .2 1.5.3 1.5.3 3 .6 4.5.9.3 0 .5.1.8.2 1.6.3 3.2.5 4.8.7.7.1 1.3.2 2 .3 4.7.6 9 .7 12.9.4.7-.1 1.5 0 2.2-.1.3 0 .5-.1.7-.2.3-.1.6-.2.9-.2 1.1-.2 2.1-.5 3-.8.4-.1.8-.3 1.1-.4 1.2-.6 2.2-1.3 3.1-2.1.1-.1.4-.2.5-.4 1.4-1.5 2.2-3.3 2.6-5.5.5 1.5 1.1 2.7 1.6 4 .3.6.5 1.3.8 1.9 2.4 5.3 5 9.5 7.3 12.5.4.5.7.8 1 1.3.6.8 1.3 1.6 1.8 2.2.8 1 1.7 2.1 1.8 2.4 0 .1 0 .1 0 .2 0 1.6-.3 3-.7 4.4-.1.2-.1.4-.2.6-.9 2.9-2.6 5.4-5.2 7.4-.1.1-.3.1-.4.2-.4.3-.9.4-1.3.7-1.9 1.2-4.1 2.3-6.7 3.1-.6.2-1.3.3-1.9.5-3.7 1-7.7 1.7-12 2.1-.6 0-1.1.2-1.7.2-1.4.1-3 0-4.4.1-.3 0-.6 0-.9 0-1.3 0-2.6.1-3.9.1-.7 0-1.4 0-2.1 0-3.5-.1-7-.4-10.5-.7-.7-.1-1.3-.2-2-.2-1.3-.1-2.6-.3-3.8-.5-.3 0-.5-.1-.8-.1-1.2-.2-2.5-.3-3.7-.5-.5-.1-1-.2-1.5-.3-1.5-.2-2.9-.5-4.4-.8-.3 0-.5-.1-.8-.1-1.4-.3-2.6-.5-3.9-.8-.5-.1-1-.2-1.4-.3-1.7-.4-3.5-.8-5-1.2-1.5-.4-2.8-.7-4.3-1-.7-.2-1.3-.3-1.9-.5-2.7-.7-5.5-1.4-8.1-2-.7-.1-1.3-.2-1.9-.4-3.1-.6-6.1-1.2-9-1.7-.5-.1-1-.2-1.5-.3-3.2-.5-6.1-.9-9.1-1.2-.5-.1-1-.1-1.5-.2-3.2-.4-6.2-.6-9.1-.8-.7 0-1.3-.1-2-.1-3-.2-5.8-.2-8.5-.2-.7 0-1.3 0-2 0-3.3.1-6.5.2-9.5.5-.5 0-1 .1-1.5.1-3.5.3-6.7.8-9.7 1.4-.5.1-.9.2-1.4.3-1.7.4-3.5.7-5 1.1-.3.1-.5.2-.8.2-1.5.4-2.8.8-4.1 1.3-.6.2-1.3.4-1.9.6-3.2 1.1-5.9 2.4-8.3 3.7-.6.3-1.2.6-1.7.9-.9.5-1.8 1.1-2.6 1.6-.6.4-1.2.8-1.7 1.2-.2.2-.4.3-.7.5-.3.2-.7.5-1 .7-.8.6-1.4 1.1-2.1 1.6-.2.2-.4.3-.6.5 0 0-.1.1-.1.1-.2.1-.3.3-.5.4-1.9 1.8-2.9 3-3.2 3.5-.1.1-.1.2-.2.3-.2.2-.3.4-.3.6-.1.1-.1.2-.1.2-.6.9-1 1.7-1.4 2.5-.1.3-.2.5-.3.7-.1.2-.2.5-.3.7-.1.4-.2.8-.3 1.2 0 .1-.1.3-.1.4 0 .3-.1.5-.1.8 0 .4 0 .7 0 1.1 0 .1 0 .3 0 .4 0 .3.1.6.1.9 0 .1 0 .1 0 .2 0 0 0 .1 0 .2-.6-.1-1-.4-1.5-.6-.6-.2-1.1-.6-1.5-1-.9-1.1-1-2.5-1-2.5 0-3.8-1.2-7.2-3.3-10 0 0 0-.1-.1-.1-.9-1.1-1.8-2.1-2.9-3 0 0 0 0-.1-.1-1.5-1.2-3.1-2.3-5.1-3.2-.4-.2-.8-.3-1.2-.5-1.8-.7-3.7-1.4-5.8-1.8 0 .1-.2 0-.4 0zm1.5 1.8c1.9.5 3.9 1.2 5.9 2.1l.8 1.5.7-.4-.2-.4c4.7 2.6 8.8 6.9 8.8 14.2 0 0 0 2.4 1.8 4 1 1 2.4 1.5 4.1 1.5 0 0 0 0 .1 0h.4c.2 0 .6 0 .9 0l8.5 16.5c-1.1 1.2-1.9 2.3-2.7 3.4l-2.5-4.5-.7.4 2.7 4.8c-.6.9-1.1 1.8-1.5 2.7L275 294.2zm16.6 34.2c3.9 8.3 3.9 15 2.3 20.2-.2.8-.5 1.6-.8 2.3-1.2 3-2.9 5.3-4.6 7.2-.3.4-.7.8-1 1.1-1.2 1.2-2.3 2.1-3.1 2.7-.2.2-.4.4-.6.5-.2.2-.4.3-.4.4.9 9.9-1 22.8-.8 23.1 7.4 9.3 12.3 20.4 13.2 20.4 7.2 0 17.1 4.4 17.1 4.4-.8 2-1.5 12.7-2.4 12.2-1-.7-3.1-4.8-3.3-4.7-1.3.8-6.2 4-6.8 2.7-.7-1.7.4-8.9 0-8.3-.4.6-6.8 2.4-7.4 1.7-.7-.6-1-5-1.1-4.4-4.5 7.1-11 9.5-11.2 8.9-1.8-4 1.7-11.6 1.1-11.2-2.3 1.7-7.6 2.8-7.8 2-1.4-5.5 3.7-11.3 3-11-.6.6-7.8 1.7-7.8 1-.9-9.6 7.2-12.2 6.8-12.2-4 0-.3-4.2-.9-4.2-2 0-4.1-1.1-4.1-2 0-2.5 4.3-5.4 4.1-5.5-1.7-.7-2.3-2.4-2-2.8.1-1.4 3.3-3.7 3.1-3.8-2.8-1.3-3.5-4.2-3.4-4.4 1-1.7 4.7-1.7 4.4-1.7-1-.3-4.4-4.4-4.1-5.1.3-1.3 4.1-2.4 3.8-2.4-4.7-3.1-6.5-7.3-5.9-7.5 2.2-.9 6.7 0 7.6.1.1 0 .4.1.4 0-2.8-2.8-4.3-6.1-3.9-7 0-.1 0-.3.1-.4 1-.5 2.9-.4 4.5-.2.4.1.8.1 1.1.2.7.1 1.2.2 1.2.2-3.1-4.3-2.6-6.7-1.4-8 .5-.5 1.1-.9 1.6-1.1.7-.3 1.3-.4 1.2-.4-7.3-5.9-6.5-12.7-5.5-12.9 7.6-1.1 13.7 9.5 13.7 9.9zm-38.2 16.2c-23.6-8.6-30.1-27.2-29.9-27.2 5.5-1.8 18.1 3.5 18.1 3.5l1 6.2c-8.6-4.9-15.3-6.9-15-6.8 20.8 15.3 25.8 24.3 25.8 24.3zm24.1-7.5c0 .1-14.1-8.8-13.4-19.8 0-.5 3.2-1 6.9 1.8 1.7 1.3 3.6 3.3 5.3 6.4 0 0 .8 1.4.8 2.4 0 .3 0 .5-.1.7-.1.8-3.8-6.1-7.2-7.1-.2 0 8 10.2 7.7 15.6zm-4.3 7c0 .1-2.2-.3-4.7-1.4-.6-.3-1.2-.5-1.7-.9-2.5-1.4-4.8-3.7-5.7-6.9-.1-.4-.1-.9-.2-1.4-.1-.7-.3-1.3-.2-2 0-.3 2.3-.7 5.9 1 1.1.5 2.2 1.2 3.5 2.1 1.4 1 2.9 2.2 4.6 3.8 0 0-.9-.1-1.2.5-.1.1-.2.3-.2.5 0 .4-1.3-.9-3-2.2-1.7-1.3-3.7-2.6-5.3-2.6-.3-.1 7 5.4 8.2 9.5zm-3.4 39.9s1.3-1 1.3 1c-.1 1-1.3 3.9-9.3 1.7-.6-.1.1-7.6 7.8-7.5.1 0-5.5 6.2-5.5 6.2l5.7-1.4zm1.1-12.8c-10.5-1.3-12.5-7.7-11.2-8.4 2.5-2 6.5.6 6.5.6s-2.8 1.4-2.7 1.4c3 2.8 7.2 3.4 7.9 3.7 1.2.3 1.2 2.8-.5 2.7zm-4.7-13.2c.6-.7 2.3-.6 4 .6 1.3 1 2.1 2.8 1.6 3.5-.7.7-2.3.6-3.8-.4s-2.5-2.7-1.8-3.7zm1.4-3.4c-3.4-2.2-10.1-5.4-7.8-9.1 2-3.1 9.9 3 9.9 3.6 0 0 1.3 4.2 2.4 5.1 1.2 1-1.2 2.4-4.5.4zm-12.1-47.7l-1.4-1.1-15.6-11.9s23.2 23.9 23.2 25.2c-.4 2.1 1.3 5.2 1.1 5.2-1-.8-1.7-1.5-2.6-2.2-2-1.6-3.9-3.2-5.6-4.8-13.4-12.1-19-21.3-19.6-24.9-.1-.9-.1-1.5.4-1.6.1 0 .1 0 .2 0 2.7-.5 6.1.7 9.6 2.6.4.2.9.5 1.3.7 7.5 4.4 14.8 11.2 16.1 12.7.1.2.4.4.4.5 0 0 0 .1 0 .2-.1 2.7 2.4 6.9 2.4 6.9l-9.9-7.5zm2.1 25.3c0 1-4.2-5.8-10-7.3 0 0 .3 4 16.6 18.1 0 0-16.7 0-19.5-20.5 0-.1 3.2-.2 6.9 1.1.5.2 1 .4 1.5.6 2.3 1 4.6 2.5 6.3 5-.1-.1-2.5.5-1.8 3zm.3 16s0 1.6.6 2.8c.3.7-3.5-3-10.3-2.4-1.1 0 8.2 3.2 11.9 7.2 1.8 1.4-15.4-1.3-17.1-9.1-.7-2.3 8.2-2.3 14.9 1.5zm5.5 11.6s-4.9-.6-6.5 2.2c-.3.9-2.4-3.1-8.8-2-1.3.1 8.2 1.8 9.9 6.8.7 2.1-12.5-1.6-14.7-7.2-.7-2.5 13.4-3.6 20.1.2zm-16.8 15.9c9.8-11.2 19.7-2 19.7-2s-5-.4-8.2 0c-2.8.4-6.9 1.8-6.9 1.8s17.8.3 16.7 1.1c-11.9 8.7-22-.3-21.3-.9zm12.3 9.3l-11.3 5.2s8.6-1.1 10.9-1.7c12-3.1-6.4 10.5-14.4 3.1 0 0-1.4-5.5 12.3-8.8.9 0 4.3-1.2 2.5 2.2zm9.4 5.4c1.3-.3-12.2 13.3-12.2 13.3l11-6.5s.4 3.1 0 5.2c-.4 1.8-5.1 4.9-13.6 4.9-.6.1-2.7-11.2 14.8-16.9zm-.7 14.7c.4-.7 7.8-4.2 2.8 2l-9.3 13.9 11-9.8s1.7-.6 1.3 1.4c-.3 1.7-6.4 9.6-14.6 11.9-.6.2-.6-9.1 8.8-19.4zm7.5 10.3c.3-.7 3.8-7.2 3 1.4l-7.1 13.9 8.3-9.3s1.6-.6 1.6 1c-.1 2.1-2.8 7.6-10.8 10.7-.5.2-3.3-6.2 5-17.7zm6.4 10.9c.3-.3 2.3-2.4 3 .1l-3 11.5 6.6-7.7s3.8-1.1 3.8.6c-.1 2-3.4 6.1-11.3 9.3-.6.4-2.2-8.2.9-13.8zm10.8-10.3c.1-.1-4.4 9.5-4.4 9.5l8.1-8.3s1.8-1.7 1.8.1c-.3 1.8-3 7.4-10.9 10.5-.6.1-3.5-7.8 3.3-12.7.4-.2-.9 2.2 2.1.9zm-.6 19.8c.7-.9 1.8-5.5 3.8.3l-3 11.3 8.3-9.3s1.4-.6 1.4 1.2c-.1 2-3 7.5-10.6 10.6-.6.1-3.6-8.3.1-14.1zm6.2 1.6c-.6.1-4.1-9.2.1-14 .4-.7 1.8.7 4.7-.7.1 0-3.8 12.3-3.8 12.3l7.8-11.6s3 1.8 2.8 3.8c0 1.8-3.7 6.8-11.6 10.2zM279.4 316s-2.5-1.1-4 0c-.1.3-2.8-4.5-5.2-4.8-1-.2 4.5 6.1 3.8 7.2-.1.3-.6.2-1.2-.1-1.9-1.1-5.6-5.1-7.3-10.5-.1-.3-.2-.6-.3-1 0-.3 5.8-1.7 14.2 9.2zm-90.3-68.8c.1-.5.6-.6 1-.3 6.6 3.4 11.7 6.2 16 8.8 1.3.7 2.4 1.5 3.6 2.2 5.7 3.5 10.6 6.9 17.2 11.1.7.4 1.2.8 1.9 1.3 6.1 4 11.4 7.7 16.1 11.1 1.7 1.2 3.4 2.5 4.9 3.6 17.3 13.2 23.8 21.2 23.8 21.2-2.6-.4-9-4.3-14.8-8.3-1.6-1.1-3.2-2.2-4.7-3.3-3.6-2.6-6.4-4.8-7.1-5.5-1.7-1.7-6.3-5.2-12-9.3-.1 0-.1-.1-.2-.1-5.4-3.9-11.7-8.3-17.6-12.3-1.4-.9-2.7-1.9-4-2.7-8.2-5.5-14.5-9.7-14.2-9.3 2.7 3.5 13.3 12.4 22.8 20.2 1.8 1.5 3.6 2.9 5.3 4.3 6.4 5.2 11.2 9 11.2 9-1.6-.6-2.9-.4-4 .1-.5.2-1 .5-1.3.7-.4.3-.8.6-.8.6-9.6-7.5-17.1-13.7-23-19-.2-.2-.4-.3-.6-.5-13.9-12.6-18.5-19.3-19.3-22.2-.3-.6-.3-1.1-.2-1.4zm-17.4-9.3c4.7 1.1 14.4 6.6 14.2 6.9-.6 2 1.6 5.8 1.6 5.8-2.1-1.8-8.9-6.8-8.5-6.4 5.9 8.2 24.5 25.6 38.6 38.5.5.5 1.1 1 1.6 1.5 8.7 7.9 15.3 13.8 15.4 14.2 7.5 13.4 24.3 26 24.3 26-3.6-1.3-7.3-3.6-10.8-6.1-.9-.6-1.8-1.3-2.7-2-6.4-5-12-10.5-14.8-12.5-4.2-3.4-24.8-21.1-25.9-22.1-35-29.1-33.3-44-33-43.8zm26 47.5c4-.6 10.6 2.7 12 4.3 3.7 3.7 29.2 24 29.2 24-2.8-.7-13.9-9.1-15.7-10-11.9-9.2-22.6-16.4-21.8-15.3 4.4 7.4 30.3 26.3 29.4 26.3-5.4.2-11.5-4.5-13.2-5.4-23.1-16.4-21-23.8-19.9-23.9zm5.1 24.1c0-2.6 10.5-3.1 18.4 5.9 0 0-1.4.8-1.3 2 .1 1-6.1-6-12.7-6.9-1.3-.3 14.7 11.6 18.1 17.1.9 1.5-22.5-10.4-22.5-18.1zm4.3 16.9c0-.3 11.6-4.4 35.3 16.1l-31.7-14.1 28.6 17.8s6.4 7.8-.9 4.7c-12.2-5.2-29.6-15.3-31.3-24.5zm3.2 23.7c0-.3 12.7-6.2 26.3 3l-20.1-3 24.9 10.2s1.8 3.8-2.4 3.2c-12.8-1.4-25-5.5-28.7-13.4zm2.6 18.9c0-.1 9.5-9.3 31.7-1.3l-25.8 1.1 26.7 2.6s1.4 2.1-3 2.4c-12.6 1.7-23.8 2-29.6-4.8zm4.1 15c5-7.4 20.2-6.7 24.6-6.7 4.1 0 3 2.1 3 2.1L220 384l29.6-1.7c-21.2 13.8-32.6 1.9-32.6 1.7zm6.6 18.2s-3.7-5 13.6-12.3c1.1-.3 6.5-3.7 3.5 4l-13.4 6.9s18.7-4.1 21.1-4.4c12.2-3-16.7 14.7-24.8 5.8zm8.5 14c-.6-.1-.6-8.2 15-14.7 1.1-.3 7.9-1.8 2.1 2.3l-13.9 10s15.7-6.9 15.1-5.1c-.4 1.8-9.6 10-18.3 7.5zm6.3 12c-.7 0-2-9.5 13.2-16.6 1.6-.6 13.7-5.9 2.4 2.6l-13 10.3 16.3-9.1s-1 1.7-1.5 3.7c-.3 1.9-9 9.1-17.4 9.1zm9.7 13c-.6.1-3-6.5 5.7-17.3.6-.7 3.3.1 3.5 2.7l-8.1 12.3 9.5-8.6s.7-.8.6 1c-.1 1.8-3.1 7.1-11.2 9.9zm8.5 9.6c-.6.1-2.8-5.9 5.9-20.2 6.5-10.1 5.4-8.8 4.2 1.3l-7.9 16.1 10.8-12.9s1.7-.7 1.4 1.1c-.1 1.9-2.9 10.7-14.4 14.6zm11.3 9.2c-.6.2-3.1-5.8 4.7-21.1 2.7-5.2 4.9-11.6 4.4 2.7l-7.8 15.6 11.6-14s3.1-1.6 3.1.4c-.1 1.7-4.4 12.3-16 16.4zm9.9 8.9c-.3.3-3.1-7.4 6.1-20.2 2.4-3.4 5.5-8.2 3 2.1l-7.9 15.4 10.9-14.4s3.7-1.4 2.5 0c-1.3 1.6-3.1 12.3-14.6 17.1zm9.2 7.4c-.3.4-2.7-7.1 6.4-20 3.8-5.4 5.1-8.5 2.7 1.8l-7.9 15.6 10.8-14.6c-.1.1 3.2 9.6-12 17.2zm14 6.8c-3.7-11.3 0-19.1.7-20.4 1-1.4 2.8-1.1 2.8-1.1l-1.8 17.8s3-6.2 3.1-4c.2 5.7-4.6 8.7-4.8 7.7zm.6-24.5c-2.5-10.6 8.1-25.2 8.1-25.2l-.1 4.7-6.5 19s6.6-10.8 6.5-9.6c-.1 3 .1 6.1.1 6.1-1.2 2.8-7.9 6.2-8.1 5zm7.8-.3l.3 14s1.8-3.4 2.1-.9c.1 4.8-3.4 6.1-3.5 5.4-1.7-8.4 1.1-18.5 1.1-18.5zm.6 29.6c-2.3-3.3-1.4-7.9-1.4-8.2 0-.8 1.8-.3 1.8-.3v6.5l3-8.9s1.7 5.2 1.8 6.1c.4 1.5-5.1 5-5.2 4.8zm7.2-4.3c-.1-.4-.3-.8-.4-1.2-4.2-14.9-5.4-29.7-5.1-42.9H321.1v55.6c-1.5-3.7-2.7-7.5-3.9-11.5zm3.8 16.5s2 2.5 1.4 3c-2.5 1.3-5.1.3-4.9 0 .7-2.5 3.5-3 3.5-3zm-5.1 5.1s-9.3 5.8-9.2 3.7c.4-5 9.2-3.7 9.2-3.7zm-10.2 6.5c1.4.3-6.1 7.2-10.9 8.2-3.8 1-6.7 3.6-6.7 2.8-.5-3.8 12.9-11.7 17.6-11zm-17 25.1c-1.8.2-3.6.4-5.4.2 0 0-.2-.9.3-2.5.8-2.6 3.2-7 11-12.8 0 0-1.8 2.8-1 5.5 0 .4-4.8 2.3-6.4 6.1 0 .3 3.8-1.4 9.8-5.1 3.7-2.4 5.7-2 10.8-3.5 0 0-2 2-3.3 4.7-.8 2.1-8 6.4-15.8 7.4zm2.8 3.3c2-1.9 4.7-3.1 5.2-2.6 1.7 1.4 3.7 1.7 3.7 1.7-2.1 2.9-4.6 3.7-6.7 3.8-2.2.1-3.8-.6-3.8-.7.3-.8.9-1.6 1.6-2.2zm-.8 10.1c1.3-.6 2.5-1.7 3.3-2.5.6-.5 1-.9 1.2-.8.2.2.4.2.6.3 2.4 1.4 5 1.2 5 1.2-4.9 4.9-10.4 1.9-10.1 1.8zm8.6 3.9c1.7-3 8.2-6.2 9.1-6.1 1.8.6 5.2 0 5.2 0-3.5 8.7-14.3 6.3-14.3 6.1zm14.8-1.9c2.3-2 2.7-5.2 3.2-5.2 4 0 8.6-2 8.6-2-1.7 3.6-12 7.4-11.8 7.2zm12.7-9.2c3.4-2.6 2.8-6.1 3.4-6.5 1.8-1 7.6-8.7 7.8-8.9.3-1.7 0 0 0 0 0 .2-.1.3-.1.7-.3 3.1-3.3 7.2-2.7 6.9 2.6-.6 6.2-5.8 5.2-3.9-9.2 15.3-13.9 11.9-13.6 11.7zm17.7-8.4c-.7 1.3-5.7 3.1-5.5 2.8 2.7-4.1 3.5-5.5 3.5-5.5s2.8 1.4 2 2.7zm5.5 4.1s.7.3 1.4.7c.4.3.8.7 1.2 1 .2.7 3 10.7 3.1 10.7.4 0-.7-6.7-.8-8.8.7.6 1.4 1.1 2.1 1.7.1.3.3.5.4.9.7 1.7-.2 8.5-.6 8.3-5.1-1.6-6.8-14.5-6.8-14.5zm7.4 23.9c-2.3-.1-3.4-2.6-4-5.2-.6-2.7-.6-5.5-.6-5.5s.9 2.3 2.1 2.3c0 0 .2.7.5 1.6.6 2.1 1.7 5.6 1.9 5.6l.2-5.7s0-1 .1-1.6c.1-.4.2-.8.4-.4 0 0 .1.2.1.3.3 1.4 2.1 8.6-.7 8.6zm2.1-7.8c-1-2.8-.4-7.9-.2-9.1.1.1.2.2.3.2.1.1.1.2.1.3.6 1.3 1.3 8.9 1.3 8.6 0 0 .9-6.2 1.7-6.5.1 0 .1 0 .1-.1.2.1.3.2.5.3 0 .9-.6 5.7-1.5 7.4-.2.4-.4.7-.7.7-.8-.1-1.3-.8-1.6-1.8zm3 10.4c-2.4-.7-2.5-7.9-2.5-7.9s1.6.4 1.6 1.3c.3 4.1 1.3 4.8 1.4 4.8.1 0-.4-4.6-.4-4.6s.9-2.4 1.1-1.7c.3.7-.3 8.5-1.2 8.1zm-8-25V439.5h11.9v109.4c-4.2-2.8-8.1-5.7-11.9-8.7zm12.4 18.4c.4-1.9 1.1-5.8 1.8-6.6.2.1.3.2.5.3 0 .2-.1.4 0 .6.1.4-.3 4.1-.9 6.3-.3 1.1-.6 1.8-.9 1.7-1.3-.3-1.9-1.6-2.2-3.3-.5-2.8-.2-6.5 0-7.9.5.3 1 .6 1.4.9.3 1.3.3 5.7.2 7.9 0 .7 0 1.2 0 1.2-.1 0 0-.5.1-1.1zm.4 10.2c-2.4-.7-2.5-7.6-2.5-7.6s1.8.4 1.8 1.3c.1 4.2.7 5.1.7 5.1.1 0 .7-5.4.7-5.4s1.1-2.4 1.6-1.5c.2.8-1.2 8.3-2.3 8.1zm6.2 4.4c-3.8-1.4-3.1-11.2-3.1-11.2s2.3 2.4 2.3 2.6c-.6 5.4 1.3 7.2 1.3 7.1l.7-5.8s1.8-1.3 1.8-.6c.7 7.7-1.9 8.4-3 7.9zm2.6-10.1c-.3.7-.6 1.3-.7 1.3-2-.2-3.1-1.7-3.7-3.6-1-2.9-.8-6.6-.7-7.6.4.2.8.5 1.2.7.2 1 1.8 6.3 2.4 8.3.1.5.3.8.3.8s0-.3 0-.7c.1-1.6.4-5.7 1-6.5.3.1.6.3.8.4 0 0 0 .1 0 .1.5 2.6 0 5.3-.6 6.8zm.6-174.9c-.6.5-1.2.9-1.9 1.4-.8.6-1.6 1.1-2.5 1.7-.6.4-1.2.7-1.8 1.1-1 .6-2 1.1-3 1.6-.5.2-.9.5-1.4.7-1.1.5-2.2.9-3.4 1.3-.5.2-.9.4-1.4.5-.5.2-1.1.3-1.6.4-.2.1-.5.1-.8.2-.3.1-.7.2-1 .3-.6.2-1.3.3-1.9.5-.9.2-1.8.3-2.7.4-.7.1-1.3.2-2 .3-1.1.1-2.3.1-3.5.1-.5 0-1.1 0-1.6 0-.6 0-1.3-.1-1.9-.1-.3 0-.6-.1-.9-.1-.4 0-.8-.1-1.2-.1-.6-.1-1.2-.1-1.8-.2-1.5-.2-3.1-.6-4.6-1-.9-.2-1.8-.4-2.7-.7-.8-.3-1.6-.6-2.4-.9.3-.6.5-1.2.8-1.8.3-.7.6-1.4 1-2.1.4-.8.9-1.6 1.3-2.5-.5 2.1-.6 4 .8 5.1.1.1.3 0 .4 0 .3.1.6.1.9 0 .6-.1 1.2-.4 2-.9.4-.3.8-.4 1.2-.8.1-.1.1-.1.2-.1.1-.1.4-.4.7-.7.2-.2.3-.3.6-.6.4-.4.9-.9 1.2-1.3.2.5.5.9.9 1.3.1.1.1.1.1.2.4.3 1 .2 1.6 0 .8-.3 1.8-1 2.8-1.9-.5 3.1.4 6.4 2.1 7.7.2.2.5.3.9.3.1 0 .3-.1.5-.1.5-.1 1.1-.4 1.8-.9.8-.5 1.5-1.2 2.4-2 .5-.5 1-1 1.6-1.6.1-.1.2-.2.4-.4.2 1 .6 1.7 1.2 2.2.1 0 .1 0 .2.1.3.2.6.3.9.3 0 0 0 0 .1 0 .5-.1 1-.4 1.5-.8.4-.3.8-.7 1.2-1.1.3-.3.6-.6.9-1 .2-.3.4-.5.6-.8.1-.1.1-.2.2-.3.1-.1.2-.2.2-.3l-.2-.2h.4v-.3l-.2-.1c-.2-.1-.3.1-.4.3-.1.1-.1 0-.2.1-.2.2-.3.3-.5.6-.3.4-.6.7-.9 1-.4.5-.8.9-1.2 1.2-.5.4-1 .8-1.4.8-.1 0-.1-.1-.2-.1-.2 0-.3 0-.4-.1-.1-.1-.1-.3-.1-.3-.5-.5-.8-1.1-.9-2 .1-.1.2-.2.2-.2l-.2-.3h.4v-.2l-.2-.1c-.1 0-.1 0-.1 0 0-1.2.3-2.8.8-4.6l-.3-.1c.1-.1.2-.2.3-.3.2-.2.2-.3.3-.4.6-.8 1-1.3 1.1-1.5 0 0 .1-.1.1-.2.3-.1.7-.4 1.1-.6.2-.1.5-.3.7-.4.5-.4 1.1-.8 1.6-1.3-.9 3.8-.6 6.3.9 7.5.3.2.7.1 1 .1.4 0 .9-.2 1.4-.5.2-.1.4-.2.7-.4.2-.2.5-.4.7-.5.6-.5 1.2-1.1 1.9-1.7.6-.6 1.2-1.2 1.7-1.8.2-.2.3-.4.4-.4l-.2-.3h.4v-.2l-.2-.1c-.1-.1-.3 0-.4.2-.1.1-.2.2-.4.4-.5.6-.9.9-1.4 1.4-1 1-1.9 1.8-2.5 2.3 0 0 0 0-.1 0-.2.2-.5.4-.7.5-.7.4-1.1.6-1.4.6-.2 0-.4 0-.5-.1-1.1-.9-1.3-3-.7-6 .1-.6.2-1.2.4-1.9.2-.2.4-.4.6-.6.2-.2.4-.4.6-.6.2-.2.3-.3.3-.3l-.2-.3.2.1.1.1.1-.3-.2-.2s-.1 0-.1 0c-.1-.1-.2.1-.3.2-.1.1-.2 0-.4.2-.1.1-.1.1-.2.2-.5.5-.8.8-1.3 1.2-.7.7-1.4 1.3-1.9 1.7-.2.2-.5.4-.7.5-.5.3-.9.6-1.2.7-.5.2-.9.2-1.1 0-.3-.2-.5-.6-.7-.9-.2-.3-.3-.8-.3-1.2-.1-.5-.1-1-.1-1.5.4-.1.8-.2 1.1-.3 1.6-.6 3-1.6 4.1-2.6.5-.4.9-.8 1.3-1.2.8-.8 1.4-1.6 1.9-2.2.5 1.5 1.6 4.1 3 5.9.7.8 1.4 1.4 2.2 1.6.1 0 .3.2.4.2.1 0 .2 0 .4 0 0 0 0 0 .1 0 .7 2.4 1.7 3.9 2.8 4.5.3.2.7.3 1.1.3.1 0 .2 0 .3 0 .2 0 .4-.2.6-.3.3-.2.6-.4.9-.7.3-.3.5-.6.7-1 .7-1.1 1.2-2.6 1.7-4.3.3-1.1.7-2.3.9-3.5.2.2.3.4.5.6.7.7 1.4 1.3 2 1.6.4 1.5 1.1 2.9 2 3.9.4.5.9.8 1.5 1 .3.1.6.4.9.4 0 0 .1 0 .1 0 .3 0 .5-.2.8-.4.5-.3 1-.8 1.5-1.5.2.4.5.8.7 1.2.5.9 1.1 1.7 1.8 2.3.9.9 1.8 1.5 2.8 1.7.4.1.9.2 1.3 0 .3-.1.5-.4.8-.6 1.2-1.2 1.5-3.9 1.4-6.7.3.4.6.8.8 1.3.2.3.4.6.7.9.5.7 1.1 1.2 1.6 1.6.4.3.9.5 1.4.6.4.1.8.2 1.2.1 0 1.4-.1 4.6-1 6.4-.1.2-.2.2-.3.3-.3.4-.5.8-.9.9-.1 0-.3.1-.4.1 0 0-.1 0-.1 0-.5 0-.9-.3-1.4-.6-.5-.4-1-.8-1.4-1.4-.2-.3-.4-.5-.7-.8-.3-.4-.7-.9-1-1.3l-.1-.1-.3-.4-.6.4.4.5c.1.2.2.3.4.5.3.5.7.9 1 1.4.2.3.4.5.7.8.5.5.9.9 1.4 1.3.5.3.9.5 1.4.5.1 0 .2.1.2.1.2 0 .4 0 .6-.1.2 0 .3-.2.5-.3.4-.3.8-.7 1.1-1.3.2-.3.4-.6.5-1 .3.5.7 1.1 1.1 1.6.4.5.7 1 1.2 1.4.3.3.5.7.8 1 .2.2.4.4.7.6.3.3.6.6.9.8.6.5 1.2.7 1.8.9.2 0 .3.2.5.2s.3 0 .5-.1c2.2-.6 2.7-4.9 2.7-9.6.9 1.5 1.8 2.7 2.5 3.7.5.7 1 1.2 1.4 1.7.3.3.5.5.7.8.2.2.4.4.6.5.5.4 1 .7 1.4.8.2.1.5.2.7.2.1 0 .2 0 .3 0 .3-.1.4-.2.6-.4.8-.5 1.2-1.6 1.3-2.9 0-.5.1-1.1 0-1.7.1.2.3.4.5.5.9 1 1.9 2 3 2.6.4.3.9.5 1.4.6.5.1 1 .1 1.5.1.1 0 .3 0 .5 0 .2-.1.4-.2.7-.4.9-.5 1.7-1.6 1.8-3.6.3.6.6 1.3.9 1.9.3.8.6 1.6.9 2.4.3.8.6 1.7.8 2.5-1 .4-2 .8-2.9 1.1-.9.3-1.8.4-2.7.7-1.4.4-2.9.7-4.3 1-.6.1-1.2.1-1.8.2-.6.1-1.1.1-1.7.2-.3 0-.6.1-.9.1-.4 0-.8.1-1.2.1-.6 0-1.1 0-1.6 0-1.1 0-2.2 0-3.3 0-.7 0-1.3-.1-2-.2-1.2-.1-2.4-.3-3.6-.5-.7-.1-1.3-.3-1.9-.5-.3-.1-.7-.2-1-.3-.3-.1-.5-.1-.8-.2-.3-.1-.6-.1-.9-.2-.5-.2-.9-.3-1.4-.5-1.1-.4-2.2-.8-3.3-1.2-.5-.2-.9-.5-1.4-.7-1.1-.5-2.2-1.1-3.2-1.7-.6-.4-1.2-.7-1.8-1.1-.9-.6-1.7-1.1-2.5-1.7-.7-.5-1.3-.9-1.9-1.4-.9-.7-1.6-1.3-2.3-2-.1-.1-.2-.2-.4-.3-.3-.3-.6-.6-.9-.8-.6-.5-1-1-1.4-1.4-.8-.9-1.3-1.4-1.3-1.5l-.6-.7-.5.7s-.1.2-.2.3c-.2.3-.6.6-1.1 1.2-.4.4-.9.9-1.4 1.4-.5.5-1.1 1-1.7 1.5 0 0 0 0-.1.1-1-.3-1.5.1-2 .5zm.5 146.6v-95.3h12.2v115.6c-2 1.1-4 2.2-6.1 3.2-2.1-1-4.1-2.1-6.1-3.2v-20.3zm10.7 24.9c-.1 1.4-.3 2.4-.5 3.5-.9 4.8-3 6.7-3.6 6.5-2.4-1.1-3.7-2.9-4.4-4.8-1.1-2.9-.7-6-.5-7.2 1.1.6 2.2 1.2 3.3 1.7 0 .1.2.2.2.3.2 1.7.6 4 .9 5.8.3 1.5.5 2.6.5 2.5 0 0 .1-1.4.3-3 .1-1.7.3-3.5.3-3.5 0-.6 3.5-2.6 3.5-1.8zm-4.2 19.1c-7.2-3.2-5.4-12-5.4-12l4.8 4c0 2 1.1 6.5 1.1 6.5-.4 0 1.4-6.5 1.6-6.6 2-.5 2.3-2.7 2.3-3.6 0-.1 0-.1 0-.2 0-.3 0-.1 0 .2 2.3 12.1-3.7 11.9-4.4 11.7zm5.5-19.7c0-.7.8-.8 1.7-.6.3.1.3 1.4.1 2.5-.1.9-.3 1.8-.4 2.1.2-.2.7-1.3 1.3-2.6.6-1.3 1.1-2.8 1.2-3.4 0-1.2 2.3-1.3 2.3-1.3s-.1 1.3-.4 3c-.6 2.9-1.8 6.9-4.4 7.1-.2 0-1.3-.2-1.4-3.8-.1-.8-.1-1.8 0-3zm3.7 14.6c-2-.7-3.5-6.7-3-6.7 1.3.4 2 0 2 0 .4 0 1 4.7 1 4.4.1-.2 1.7-5.2 1.7-6.1.2-.8 1.4-3.2 1.4-3.2s0 12.4-3.1 11.6zm3.4-15.6c.1-.9.3-2 .8-3.5 0-.3.3.8.8 2.6.1.6.3 1.2.5 1.9.1.7.5-1 .8-2.6.2-1.1.4-2.2.5-2.6 0-1.1 2-1.7 2-1.7s0 1.4-.3 3.1c-.4 2.4-1.3 5.3-3.5 5.9-.4.1-2 .3-1.6-3.1zM399 570c-.3 0-2.4-2.2-2.3-7.5 0-.8 0 .3.7.6.6.3 1.7 5.8 1.7 5.5.1 0 .6-6.1 1-6.9.7-1.3 1.6-3.1 1.6-3.1s.7 11.2-2.7 11.4zm5.6-5c-.4 0-2-1.8-1.8-6 0-.6.6.3 1.4.3.4.1.4 5 .4 4.7.1-.1 1-5.1 1.1-5.7.6-.9 1.7-1.8 1.7-1.8s-.2 8.4-2.8 8.5zm3.7-13.4c-.5 2.6-1.6 5.4-3.5 5.9-.2.1-1.8.1-1.5-3.2.1-1 .3-2.2.7-3.8.1-.2.2 1.2.4 3.2.1.7.2 1.4.3 2.2.1.6.6-1 1.1-2.9.4-1.5.8-3.1.9-3.6 0-1 2.3-2.1 2.3-2.1s-.2 2-.7 4.3zm.6 5.1c0-.6.4-2.6 1.4-2.6.4.4.4 7.9.6 7.8 0 0 1.1-5 1.5-5.5.7-1 1.4-2.4 1.4-2.4s-.1 8.8-3.1 8.8c-.1 0-2-1.6-1.8-6.1zM390.7 563.1s-.1.1 0 0c-.1.2-.1.1 0 0zM418.9 385c.2.6.4 1.2.5 1.9l.7-.1c-.2-1.1-.5-2-.8-2.9-1.1-3.5-2.6-5.4-2.7-5.5l-.4.4-.1.1.1.1c.1.2 1.7 2.2 2.7 6zM392.2 314.1c1.9.1 3.3 0 4-.2.4-.1.6-.2.6-.2l.1-.1-.1-.2h-.1c-.2 0-.3-.1-.5-.1-5.4-.7-7.2-1.6-7.7-2.3-.1-.1-.2-.3-.2-.4 0-.2.2-.3.3-.5.3-.5 1-.9 1-.9l-.1-.3c-.3 0-.6.1-.9.2-.5.1-1 .2-1.5.3-.9.2-1.8.3-2.7.5-1.7.4-3.4.7-5.1.8-.5 0-1 0-1.5 0-.4 0-.9.1-1.3 0-2.3-.6-3.4-.4-4-.1-.5.3-.6.6-.6.6v.2h.2c2.8 0 3.1 1 3.1 1 .7 2.2 1.5 3.9 2.8 5.1.4.4.9.8 1.5 1 .8.3 1.8.5 2.9.5 2.5-.2 3.8-1.7 4.5-3.2.6-1.2.8-2.3.8-2.7.3.1.5.1.7.1 1.1.3 2.1.5 3 .6.3.3.6.2.8.3zm-9.7-1.1s0-.1 0-.1c.1-.1.2-.1.3-.2.4-.4 1-.6 1.5-.3s.6 1.2.2 1.8c-.3.4-.7.6-1.1.6-.2 0-.4 0-.6-.1-.1-.1-.1-.2-.2-.4-.3-.4-.4-.9-.1-1.3zm.8 4.9c-.3.1-.5.1-.8.1-.2 0-.3.1-.5.1-1 0-1.8-.3-2.5-.8-.6-.4-1.2-.9-1.5-1.5-.2-.5-.4-1-.4-1.5h.2s0 0 0 .1c.1.2.7.8 1.5 1.4.7.5 1.6.9 2.5.9.2 0 .3-.1.5-.1.3 0 .5-.1.8-.2 1.3-.5 2.3-1.5 2.8-2 .2-.3.3-.3.4-.3h.1v.1c.1 1.8-1.3 3.2-3.1 3.7zM377.9 314.8zM374.7 322.4c.7 2.4 1.5 6.4.3 7.2 0 0-.1 0-.1 0-.2.1-.5 0-.8-.1-.6-.1-1.5-.5-2.5-1.4-.1-.1-.2-.1-.3-.2l-.1-.1s0 0-.1 0c-.4-.2-1-.5-1.6-.7-1.4-.6-3.1-1.2-5.5-1.7l-.2.7c2.5.6 4.3 1.2 5.7 1.8.4.2.8.3 1.1.5.1 0 .1.1.2.1.3.2.5.3.8.5 1 .7 1.8 1.1 2.5 1.2.1 0 .3.1.4.1.2 0 .3-.1.4-.1.2 0 .3 0 .5-.1 2-1.3.2-7.3-.1-8l-.6.3zM362.6 309.3c-.5-.3-1.5-1.8-2-2.7l-.1.1-.5.3c.1.1.4.6.7 1.1.5.7 1.1 1.6 1.5 1.8 1.5 1 3 1.5 4.2 1.9.5.2 1 .3 1.4.5l.3-.6c-.4-.2-.9-.4-1.5-.5-1.1-.5-2.5-.9-4-1.9zM382.2 364.8c0 .1 2.2 5.9 1.8 10l.7.1c.4-4.3-1.8-10.1-1.9-10.3l-.6.2zM221 511.3c.4-.1.7-.2 1.1-.2 1.4 0 2.6.5 3.6 1.2 2.7-11.2 7.5-25.9 15.9-38.2l.8.6c-8.4 12.3-13.2 27.1-15.9 38.2 1.2 1.2 2 2.8 2 4.7 0 2-.9 3.7-2.3 4.9.3 0 .5-.2.8-.2.1 0 .1 0 .1 0 16-20.2 17.3-27.6 17.4-27.7l.5.1s3.2-9.8 1.5-16.7c-1.4-5.4 1.8-10.3 3.7-10.9 0 0-21.4-4.1-29.2 44.2zM228.9 522.7c.6.2 1.2.5 1.8.8 4.2-4.6 11.3-9.5 22.5-12.6 15.8-4.6 11.5-16 22.1-24.2 0 0-15.6-5.1-30.3 7.9l.5.1c0 .3-.8 5.3-10.2 18.5 7.4-8.5 19.1-20.1 30-23.5l.3.9c-15.6 4.9-33.2 27.5-36.7 32.1zM154.5 479.6c1.4.1 2.8.2 4.4.4.3-1.8 1.4-3.4 3-4.2-.5-.8-.8-1.7-.8-2.6-3.2-.5-6.8-.7-11-.3l-.1-.7c-1.9.4-10.9 2-17.4-2.9 0 0 3.5 26.6 39.9 24.4.9-2.5 3.1-4.2 5.9-4.2.8 0 1.5.2 2.1.4-3.5-3-7-5-10.5-6.3-1 2-3 3.4-5.3 3.4-3.3 0-6-2.7-6-6-1.5-.2-2.9-.3-4.2-.4-4.1-.3-7.3-.6-9.4-2l.6-.8c1.7 1.3 4.8 1.5 8.8 1.8zM225.4 576c.1.1.1.3.2.4l.4-.2c-.1 0-.2-.2-.2-.2-.2.1-.3 0-.4 0zM215.3 559.9c0 .1-.1.2-.1.4h.5c-.2-.2-.3-.3-.4-.4zM291.1 289.8l4.4 5.3 2.8-2.4 1.2-1 3.2-2.6.7-.6.1-.1.8-.6-1.2-1.5-.7.6-3.7 3.1-1.1 1-1.6 1.4-3.6-4.2 2.8-2.3 1.2-1 2.7-2.3-1.2-1.4-2.3 1.9-1.1 1-3.2 2.7-3.2-3.8 4.2-3.6 1.2-1 1.4-1.2-1.1-1.4-1.1.9-1.2 1-6.2 5.2 4.5 5.3zM313.5 282.4l-3-6.1 4.7-2.3c.3-.1.6-.4.9-.7.6-.6 1.1-1.5 1.2-2.6.1-1 0-2-.8-3.2-.1-.2-.2-.2-.4-.4-.8-1-1.7-1.5-2.6-1.6-1.2-.2-2.4.2-3 .6l-6 2.9 7 14.3 2-.9zm-6.2-12.7l4.1-2c.7-.4 2.1-.6 3.2.6.2.2.3.3.5.5.4.7.4 1.4.3 1.9-.2.9-.7 1.5-1 1.6l-4.7 2.3-2.4-4.9zM322.3 268.4l1.3 5.6.5 2.4.4 1.3.8-.2 5.3-1.2 1.5-.4 2-.4-.4-1.8-2.1.5-1.4.3-4.2 1-3.1-13.8-2 .5.1.7zM335.2 270l.1.7c0 .4.2.9.4 1.5.3.5.6 1.1 1.2 1.5 1 .9 2.6 1.6 4.9 1.4.3 0 .4-.1.7-.2.5-.1 1-.2 1.4-.4 2.7-1 3.5-3.2 3.5-4.6 0-.1 0-.2 0-.2l-.5-5.4-.5-6h-.3l-.8.1-1 .1 1 11.3c.1.9-.3 2.3-1.8 3.1-.4.2-.9.3-1.4.4-.2 0-.3.1-.5.1-3.1.3-4.2-1.7-4.3-2.9l-1-11.3-2 .2.8 9.4.1 1.2zM352.4 267.1h.7l2 .1 2.5.1c3.3.1 2.3 3 2.4 4.9 0 .6.1 1.3.4 2l2.5.1v-.5c-.7-.6-.8-1.3-.7-3.3.1-2.6-.1-3-1.7-4.1 1.6-1.1 2.3-1.8 2.2-3.9-.1-3.6-2.5-4.2-4.9-4.2l-4-.1-2-.1h-1.1l-.5 15.9 2 .1.2-7zm.1-3.9l.1-3.4 1.4.1 3.7.1c1.3 0 3.2.4 2.8 3.1-.3 2-1.7 2.4-3 2.3l-2.8-.1-2-.1h-.4l.2-2zM367.6 274.9L369 259l-2-.2-.7 7-.7 8.9 1.5.1zM378.3 276.2h.3c1 .1 3.5-.6 4.3-3.2.1-.3.2-.4.3-.7.2-1.4-.2-2.3-.7-3-.6-.7-1.2-1-1.4-1.2 1.4-.4 2.3-1.6 2.5-3.1.4-3.1-2.3-4.5-3.6-4.6l-2.1-.3-1.5-.2-3.3-.5-1.5 10.8-.6 3.8-.2 1.1 6 .8 1.5.3zm-3.4-14.7l1.6.2 1.5.2.4.1c3.1.4 3.3 2.2 3.2 3.2-.1 1-.8 2.2-3.2 1.9h-.2l-1.5-.2-2.4-.3.6-5.1zm-1.8 12.1l.8-5.4 2.7.4 1.2.2c.1 0 .2 0 .3.1 1.8.3 3.5.9 3.2 3-.2 1.2-1 2.7-3 2.5 0 0 0 0-.1 0l-1.4-.2-3.7-.6zM388 277.6c.4.3.9.5 1.5.7.5.2.9.5 1.5.6 4.7.9 6.6-2 6.9-3.7l2.2-11.3-2-.4-2.2 11.2c-.2 1.2-1.5 3.1-4.6 2.5-.7-.1-1.3-.4-1.8-.7-.8-.5-1.2-1.2-1.4-1.9-.1-.5-.2-1-.1-1.4l.2-.9 1.7-8.8.3-1.4h-.2l-1.5-.3-.3-.1L386 273c-.4 1.1 0 3.2 2 4.6zM401 278.9c1.1 1.7 2.5 2.3 4.4 2.7 1.5.3 3 .2 4.3-.4 1-.4 1.8-1.1 2.3-2.1.2-.4.5-.9.6-1.4.1-.4-.1-.8-.2-1.2-.2-1.1-.8-2.1-1.6-2.7-.1 0-.1-.1-.1-.1-1.2-.6-2.4-1.2-3.7-1.8-1-.4-1.7-.8-2.2-1.2-1.6-1.3-.3-4.5 3.3-3.8.8.2 1.5.3 2.5 1.1.5.5.7.9.9 1.3.1.5.1 1 0 1.5l1.7.3h.2c.1-.4.2-1.1 0-1.9-.2-.8-.5-1.7-1.4-2.5 0 0-.1-.1-.2-.1-.8-.7-2.2-1.2-3.4-1.4-3.8-.7-6 1.4-6.2 4-.2 2 .9 2.9 1.5 3.2 2 1.1 1 .7 3 1.6 1 .4 2.2 1 3.1 1.6.4.4.6.8.7 1.1.2.6.1 1.1-.2 1.6-.3.5-.7.9-1.1 1.2-.7.4-1.5.4-2.4.3-.8-.1-1.6-.3-2-.5-2.6-1-2.5-3.2-2.3-4.1l-.9-.2-1-.2c-.2 1.2-.3 2.2.5 3.7-.3.3-.2.3-.1.4zM422.9 284.7c.7.4 1.6.8 2.7 1 4.7.9 6.6-2 6.9-3.7l2.2-11.3-2-.4-2.2 11.1c-.2.9-.9 1.9-2.3 2.4-.3.1-.5.1-.8.2-.5 0-.9.1-1.5 0-1.3-.3-2.1-.8-2.6-1.5-.7-.9-.9-1.9-.7-2.6l2.2-11.1h-.2l-1.8-.3-2.2 11.2c-.2 1 .1 2.4 1.1 3.7.3.5.6.9 1.2 1.3zM436.7 287l1.8-12.6 5 11.3 1.2 2.5h.1l2.2.3 1.7-12.7.5-3.1-1.5-.2h-.6l-.4 3.2-1.3 9.5-1-2.2-2.7-6.1-.5-1.1-1.9-4.5-1.3-.1-1.1-.2-1.5 10.3-.7 5.5zM455.9 289c.6.2 1.2.3 2 .4.2 0 .3.1.5.1 2 0 3.3-.6 4.2-1.4.5-.4 1-.9 1.2-1.4.4-.8.7-1.5.7-2.1V273h-2.1V284.4c0 1.2-.9 3.2-3.9 3.3-.1 0-.1 0-.2 0-.7 0-1.3-.1-1.8-.3-1.7-.6-2.2-2-2.2-3V273h-2.1v11.5c.1 1.3 1 3.6 3.7 4.5zM467.8 277.5l1.9 7.1.5 2.1h.2l1.9-.6-.7-2.3-.6-2.3-2.1-7.8 3.4 5 .9 1.5 3.2 4.8h.2l1-.3.4-.1.5-.1.1-1.8v-.8l.7-11 1.5 5.4.1.4 1.8 6.7 1.4-.4.6-.2-.2-.7-2-7.5-.3-1.2-1.6-5.9-2 .5-.8.2-.2 2-.7 12.1v.2l-2.8-4.2-1-1.5-4.2-6.2-2.8.8 1.4 4.9zM596.7 469.5l36-54.5 4.6 6.5 6.1-24.9-21.3 16.2 8.3 1-.3.4-15.4 23.1-1 5.6-1.5-1.9-18.1 27-.2 1.6 3.3-2.7-.2 1zM605.5 472.8l-3.1-.6-8.6 10.8-.9 4.4.4.4 4.1-4.8zM609.8 462.9l7.3-4.7 16.4-20.7 3.8 6.9L646 420l-22.9 14.4 8.3 1.5-.4.4zM595.1 438.8l-.2 6.9 5.6-11.3h-3.1zM598.1 415.8l8.6-.1-7.9 15.8 5.6-5 4.9-9.9 2.6 3.3 3-2.7 2.8-20.2zM586.2 456.8l6.3-6.3 2.1-4.2-2.2-2.1zM595.9 451.2l-.7 6.8 13-23.1 3.9 4.9.3.3.2.3.7.8.4-2.5.1-.8.2-.9 3.5-21.2-1.9 1.8-.4.3-.5.4-2.4 2.2-.3.2-.2.2-6.8 6-.7.7-.7.6-5.7 5-.4.4h8.4l-.3.6zM612.9 481.2l-1.4-2.6-21.9 22.2 8.5-4.4zM650.5 441l-24.1 12 8.2 2.3-18.1 18.3-2 6 22.1-22.5 3.1 7.6zM574.7 468.2l2.8-2.8 11-25.9 3.7 3.6.3.2.3.3 1.4 1.3.2-4.5V438.7l.7-19.6-17.5 20.3 8.4-.9-11.5 27.4.3 5.5-1.9-1.6-26.8 63.6-1.5 3.4-2.2 6.8 3.8-6.9 5.4-9.9 24.8-58.6zM587.4 468.7v-.1l.4.5 2.8 2.9.1.2.3-.2 1-.8 1.2-1 .1-.9.1-.8v-.7l.7-6.5.1-.8.1-.9.7-6.8.1-.9.1-.9.3-2.5-2.4 2.4-.8.8-.8.8-6.3 6.3-.8.8-.8.7-5.5 5.5-.6.6-.7.7-.4.3h1l7.7-.1-.3.5-9.3 17 5.5-4.5zM548.9 533.1l-2.9 5.3-3 5.6 2.8-4.2.7-.9 1-1.4 1-1.5 8.4-12.1 20.5-37.1-2.9-.2-22.3 40.5-1.6 3zM591.2 495.3l18.4-21.5 2 3.7.2.3.2.3 1.4 2.6 2-6 .2-.7.3-.8 5.6-17-4 2.6-.9.6-.9.6-7.3 4.7-.9.6-1 .6-7.6 5 3.2.5.4.1.4.1 3.1.5.4.1.4.1.7.1-.4.5-9.2 10.6-4.5 5.3-1.1 1.2zM577.7 506.9l6.3-3.2 6.9-8-1.6-2.2zM546 521.8l-1.7 8.4-2.1 10.6-.3 1.7-.2.9.7-2.2 1.6-4.6 1.6-4.9 22.4-66.6 4.6 3.6.3.2.2.3.9.7-.1-2.5-.1-.8v-.8l-1.3-21.7-13.7 19.2.4 2.2 6.2-1.2-4.1 12 .9 4.9-2.1-1.4zM541.4 550.9c.1.1.2.1.3.2h.1l.3-.3.3-.3.5-.5.1-.1c-.1 0-.2 0-.3-.1-.1 0-.2 0-.3 0-.1 0-.2 0-.4 0-.4 0-.7-.1-1-.1-.1 0-.3 0-.4 0v.1l-.1.5s0 0 .1 0c.2.1.5.3.8.6zM592.9 516l-2.2 5 32.2-24.6 2 7.6 13.5-22.3-25.4 9.2 8.1 3.6-.4.3zM540.4 546.3l.1-.6.3-1.7 2.9-14.5.5-2.5.5-2.7.5-2.7 9.2-46.5 5.2 3.5.3.2.3.2.8.6-.4-1.9-.1-.7-.1-.7-1.9-10-.1-.4-.1-.3-.3-1.5-.1-.5-.1-.5-1.7-9.2-12.6 23.8 8.1-2.7-.1.6-10.2 52.1-2.4 12.4-.5 2.7-.5 2.7-.6 2.9c.3-.3 1.1-1 2.3-1.8.1-.1.3-.2.5-.3.2.1.2.1.3 0zM539.6 549.5c-.1 0-.2 0-.2 0-.1 0-.1 0-.2 0 0 0-.1 0-.1 0s0 0 .1 0 .1 0 .2.1c.1 0 .1 0 .2.1 0 0 .1 0 .1.1.1 0 .1 0 .1.1l.1-.3c-.2-.1-.2-.1-.3-.1zM481.5 620.9l5.6-.2-3.9-5.3zM517.7 586.8L498.1 628l-.6-.3.1.4 8-1.6-.1-.1 20.4-43.5zM514.6 591.7l-18.8 30.4-.3-.2 1.9 5.8zM512.5 632l-.1-.1.1.1zM501.3 605.3l.1.1 19.5-30.7 1.1-1.7-1.3 1.4-36.9 40.6 3.6 4.9zM500 607.7l-12.3 13 4.9-.2-.5-.3zM513.6 576.6h-5.2l-30.1 29.3-.1-.1-3.2 4 6 1.3zM483.3 615zM510.3 628h-.1l2.1 3.7 3.7-16.6zM509.9 575.9l3.9-3.5-9.3-.2-35.5 33.3 9.1.2-.3-.3 30.3-29.5zM524.6 568.8l.1.1 2.9-3.2c-.3-.7-.5-1.5-.6-2.3l-8.4 8.9-37.3 39.5-.4-.4-.8 1.4 3.2 2.1-.3-.2 37.1-40.8 4.1-4.5.4-.6zM528.2 568.3l.6-.9c-.3-.3-.6-.6-.8-1l-3.3 3.6-3.3 5.2-28.8 45.4h.2l2.4 1 27.8-45.1 5.2-8.2zM544.2 548.9z" class="st0"/></svg>